<!-- SpeedSize.com --><svg id="Layer_1" data-name="Layer 1" xmlns="http://www.w3.org/2000/svg" viewBox="0 0 500 500"><defs><style>.cls-1{fill:#302f2f}</style></defs><path class="cls-1" d="M110.08 321.19c14.83-39.94 38.58-72.8 75.9-94.58 23.74-13.86 49.5-19.7 76.94-17 27.25 2.71 51.13 13.56 72 31.07 24.37 20.4 41 46.19 52.06 75.76a2.34 2.34 0 01-.34 2.58c-20.68 27-46.36 47.58-77.78 60.82a5.41 5.41 0 00-1.63.16 66.1 66.1 0 01-10.95 3.33c-5.32 1.29-10.7 2.35-16.11 3.31a173.07 173.07 0 01-22.3 2.39 171 171 0 01-42.13-3.43c-4.74-1-9.5-1.94-14.13-3.26a190.3 190.3 0 01-22.81-8.21A181.46 181.46 0 01141 352a169.05 169.05 0 01-23.59-21.72c-2.57-2.92-5.41-5.65-7.33-9.09z"/><path class="cls-1" d="M91.15 340.74a215.39 215.39 0 0032.33 27 195.41 195.41 0 0067.57 28.92 191.25 191.25 0 0065.62 3.15c60.17-7.72 107.12-37.13 141.54-86.87a183.32 183.32 0 0026.26-55.16 177.44 177.44 0 006.65-42.56 217.52 217.52 0 00-5.43-57.5 194.31 194.31 0 00-25.82-60.55A197.16 197.16 0 00325 28.66 192.85 192.85 0 00260.3 8a196 196 0 00-72.14 3.51c-1.75.42-3.51.74-5.27 1.11-.61 0-1.3.08-1.4-.82a190.65 190.65 0 0137.62-9.49 211.94 211.94 0 0153.5-1.21 201.38 201.38 0 0173.85 22q71.25 37.55 100 112.93a201.49 201.49 0 0112.76 63.95 208.74 208.74 0 01-154.6 210.23A205.5 205.5 0 01227.2 416c-46.15-5.34-86.07-24.11-119.93-55.86a161.36 161.36 0 01-17.07-18.43.89.89 0 01.95-.97z"/><path class="cls-1" d="M250.89 199.77c-39.15-.11-70.25-31.54-69.73-71.22.51-39.24 33.17-69.64 71.83-68.63a69.94 69.94 0 01-2.1 139.85z"/><path class="cls-1" d="M110.08 321.19c1.93 3.44 4.76 6.17 7.36 9.05A169.05 169.05 0 00141 352a181.46 181.46 0 0037.8 22.2 190.3 190.3 0 0022.81 8.21c4.63 1.32 9.39 2.29 14.13 3.26a171 171 0 0042.13 3.43 173.07 173.07 0 0022.3-2.39c5.41-1 10.79-2 16.11-3.31a66.1 66.1 0 0010.98-3.4 5.41 5.41 0 011.63-.16 157.53 157.53 0 01-30 10.16 191.72 191.72 0 01-142.59-21.1 190.34 190.34 0 01-72.9-77 186.24 186.24 0 01-20.28-67c-2.23-20.9-.43-41.56 4.11-62a199.73 199.73 0 0127.68-66.38 181.37 181.37 0 0141.21-44.19 188.81 188.81 0 0167.2-33.57 191.71 191.71 0 01199.68 65c.39.48.7 1 1.05 1.55a.94.94 0 01-.88.57 189.61 189.61 0 00-33.9-28.47c-21.66-14.08-45.19-23.49-70.77-27-58.76-8.14-110 8-153.2 48.79-23.48 22.18-39.3 49.25-48.18 80.33a180.79 180.79 0 0031.17 159.81c.52.66.93 1.49 1.79 1.85zM380.12 467.6v14c0 2.95-.67 3.55-3.66 3.56h-8.08c-2.9 0-3.39-.48-3.39-3.48 0-8.32-.13-16.64.05-24.95a13.22 13.22 0 00-2.71-8.8c-2.24-2.93-2-3.79.92-6 2.08-1.57 4.13-3.2 6.26-4.71s3.37-1.32 5 .76c1.14 1.42 2 3.61 3.44 4.08s2.33-2.07 3.7-3.05a9.74 9.74 0 015.57-1.75 79.18 79.18 0 0110.67.17c7.69.86 11.89 5.11 12.12 12.91s.21 15.52 0 23.28c-.15 6.24-3.86 10.31-9.95 11.54a29.55 29.55 0 01-13.16-.43 2.56 2.56 0 01-2.27-2.83v-6.17c0-1.66.65-2.5 2.42-2.41s3.32 0 5 0c1.88-.06 3-1 3-2.94v-17.1c0-2.22-1.28-3.32-3.46-3.34-2.85 0-5.7-.05-8.55 0-2 0-3 1.08-2.95 3.16.08 4.84.03 9.67.03 14.5zm55.56-2.75c-.52 6.43-2.79 12.47-4.19 18.7a2 2 0 01-2.26 1.65q-4.51-.07-9 0c-1.94 0-2.95-1-2.57-2.8 1.19-5.56 1.93-11.23 4.14-16.53 1.38-3.31 4-5.72 6.49-8.08 1.29-1.2 1.45-2 .3-3.44-3-3.78-5.85-7.69-8.73-11.56a11.41 11.41 0 01-1.28-2c-.89-1.93-.13-3.43 2-3.51 3.16-.13 6.33-.06 9.5 0a5.16 5.16 0 014.1 2.46c3.61 5 7.29 10 11 14.92.31.41.45 1 1.24 1.17-.43-5.61 2-10.63 2.93-15.95.34-1.91 1.47-2.8 3.5-2.72 2.84.1 5.7-.05 8.55.05 2.67.1 3.2.83 2.62 3.41-.65 2.93-1.41 5.83-2 8.77-1.12 5.38-4.24 9.47-8.27 13-1.29 1.11-1.37 1.87-.27 3.25 3.78 4.77 7.39 9.69 11.1 14.53.9 1.18 1.63 2.32.92 3.89s-2.12 1.08-3.31 1.1c-2.93.06-5.86-.08-8.79 0a4.93 4.93 0 01-4.71-2.51c-4.11-6.1-8.32-12.13-12.5-18.18l-.51-.63a.68.68 0 000 1.01zm-230.56 8.43a82 82 0 01-10.45-7 33.63 33.63 0 01-11.16-14.77c-1.26-3.23-2.36-6.54-3.48-9.82-1.06-3.09-.17-4.41 3-4.46h7.84a4 4 0 014.29 3c1.57 4.3 3.21 8.57 4.88 12.84a19.65 19.65 0 003.08 5.43c1.31-1.23 1.63-2.87 2.09-4.41 1.31-4.47 2.62-8.95 3.81-13.45.65-2.47 2-3.55 4.6-3.41s5.23-.05 7.84.06c2.84.12 3.67 1.27 2.88 4-1.3 4.56-2.74 9.07-4.13 13.6-1.17 3.87-4.28 6-7.41 8-1.71 1.1-2.41 1.83-.27 3.37 2.75 2 5.26 4.31 7.82 6.56 2 1.78 2.74 9.23 1.2 11.41a2.55 2.55 0 01-2.28 1H184.1c-1.89 0-2.73-.94-2.7-2.79v-6.42c0-2 .95-2.78 2.95-2.75 6.18.07 12.36 0 18.54 0zm-78.36 11.9c-5.86 0-11.71-.07-17.57 0-2.31 0-3.14-1-3.1-3.1v-6.89c0-2.06.86-3 3-2.93 5.69.09 11.39 0 17.09.08 1.71 0 2.09-.49 2-2.12-.1-5.14 0-10.29 0-15.43 0-3.32-1.12-4.54-4.46-4.87a70 70 0 00-12.78.32c-3.35.28-3.74 0-3.75-3.34 0-1.74.11-3.49 0-5.22-.18-2.2.91-3.23 2.88-3.58 7.6-1.37 15.24-1.89 22.87-.42 6.88 1.33 10.19 5.58 10.25 12.76q.09 9.74 0 19.47c0 1.61 0 2.68 2.18 2.54 1.63-.12 2.58 1 2.59 2.75 0 2.21.09 4.44 0 6.65-.14 2.56-1 3.28-3.6 3.29zM276 467.36v14.26c0 3-.58 3.56-3.62 3.56h-8.32c-2.55 0-3.2-.64-3.2-3.25v-25.67c0-4.55-1.37-6-6.08-6.24a175.84 175.84 0 00-18.51.28c-3.84.25-4.32-.14-4.32-3.91v-5c0-1.86.8-3 2.73-3.21 9.38-.85 18.78-1.76 28.18-.51 8.83 1.18 13 6.28 13.14 15.66.07 4.67 0 9.36 0 14.03zm-204.8-.89v15.44c0 2.83-.45 3.29-3.33 3.33s-5.54 0-8.31 0-3.33-.56-3.34-3.36v-24.46c0-5.81-1.4-7.27-7.2-7.49a95.79 95.79 0 00-11.36.53c-2.73.23-3.27-.31-3.29-3v-6.65c0-1.22.42-2.14 1.79-2.4 8.61-1.61 17.26-2.46 25.82 0 5.93 1.71 9.11 6.17 9.2 12.34.08 5.25.02 10.5.02 15.72zM326.37 498c-.15 1.47-1 2-2.42 2-3.32 0-6.65-.05-10 0a2.22 2.22 0 01-2.53-2.2 16.73 16.73 0 01-.11-2.12v-54.14c0-3.86.47-4.31 4.4-4.31 2.62 0 5.23-.06 7.84 0 1.23 0 2.65 0 2.79 1.83-.58.69-.35 1.51-.35 2.28v54.37c.01.78-.21 1.61.38 2.29zm-229.5-36.61v20.44c0 2.78-.58 3.34-3.31 3.35-2.93 0-5.87-.1-8.79 0-2.08.1-2.87-.91-3-2.77v-40.84c0-3.89.46-4.34 4.37-4.35h7.84c2 0 3 .86 3 3-.16 7.07-.11 14.12-.11 21.17zm255.76-.19v20.68c0 2.75-.57 3.29-3.35 3.3-3 0-6-.06-9 0a2.28 2.28 0 01-2.65-2.34 18.87 18.87 0 01-.1-2.13v-39.43c0-3.48.55-4 3.94-4h7.6c3.17 0 3.6.44 3.6 3.54zm-196.27-9.79v-10.92c0-2.15.86-3.27 3.06-3.27h9.25c1.89 0 2.9.8 2.88 2.87-.05 7.51 0 15 0 22.55 0 2.23-1.05 3.11-3.23 3.05-2.92-.08-5.85-.11-8.78 0-2.3.09-3.14-1-3.15-3.14-.04-3.7-.03-7.42-.03-11.14z"/><path class="cls-1" d="M248.12 471.67v10.68c0 2-.79 2.9-2.85 2.85-3.16-.08-6.33 0-9.49 0-1.36 0-2.5-.4-2.51-1.88 0-5.85-.36-11.71.21-17.55a12.54 12.54 0 01.68-2.52c1.37-4.47 1.69-4.71 6.27-4.7h5c1.88 0 2.76.73 2.71 2.69-.07 3.46-.02 6.94-.02 10.43zM326.37 498c-.59-.68-.36-1.51-.36-2.28v-54.37c0-.77-.23-1.59.35-2.28 0 4.59.11 9.18.11 13.77v42.79c0 .79-.06 1.58-.1 2.37zM91.15 340.74a.89.89 0 00-1 1A75.86 75.86 0 0181 329.28zm90.34-328.9c.1.9.79.8 1.4.82l-14.84 4.64a89.45 89.45 0 0113.44-5.46zm201.68 74.04a.94.94 0 00.88-.57 34.27 34.27 0 015.46 7.87l-6.34-7.3z"/></svg>