<!-- SpeedSize.com --><svg id="Layer_1" data-name="Layer 1" xmlns="http://www.w3.org/2000/svg" viewBox="0 0 500 500"><defs><style>.cls-1{fill:#302f2f}</style></defs><path class="cls-1" d="M362 0H138C61.9 0 0 61.9 0 138v224c0 76.1 61.9 138 138 138h224c76.08 0 138-61.9 138-138V138C500 61.9 438.1 0 362 0zm93.62 362A93.73 93.73 0 01362 455.64H138A93.73 93.73 0 0144.36 362V138A93.73 93.73 0 01138 44.36h224A93.73 93.73 0 01455.64 138v224z"/><path class="cls-1" d="M250 121.17A129 129 0 00121.16 250c0 71 57.8 128.83 128.84 128.83S378.84 321 378.84 250A129 129 0 00250 121.17zm0 213.3A84.47 84.47 0 11334.47 250 84.56 84.56 0 01250 334.47zM384.24 83.55a32.52 32.52 0 1023 9.53 32.64 32.64 0 00-23-9.53z"/></svg>