<?xml version="1.0" encoding="UTF-8"?>
<svg id="Layer_1" data-name="Layer 1" xmlns="http://www.w3.org/2000/svg" viewBox="0 0 50 50">
  <defs>
    <style>
      .cls-1 {
        fill: #1d1d1f;
      }
    </style>
  </defs>
  <path class="cls-1" d="m37.55,2c5.76,0,10.45,4.69,10.45,10.45v25.1c0,5.76-4.69,10.45-10.45,10.45H12.45c-5.76,0-10.45-4.69-10.45-10.45V12.45C2,6.69,6.69,2,12.45,2h25.1m0-2H12.45C5.57,0,0,5.57,0,12.45v25.1c0,6.88,5.57,12.45,12.45,12.45h25.1c6.88,0,12.45-5.57,12.45-12.45V12.45c0-6.88-5.57-12.45-12.45-12.45h0Z"/>
  <g>
    <g>
      <path class="cls-1" d="m34.86,5.59c1.7,0,3.09,1.39,3.09,3.09s-1.39,3.09-3.09,3.09-3.09-1.39-3.09-3.09,1.39-3.09,3.09-3.09m0-.8c-2.15,0-3.89,1.74-3.89,3.89s1.74,3.89,3.89,3.89,3.89-1.74,3.89-3.89-1.74-3.89-3.89-3.89h0Z"/>
      <circle class="cls-1" cx="35.16" cy="41.23" r="3.89"/>
    </g>
    <g>
      <g>
        <g>
          <circle class="cls-1" cx="15.31" cy="13.83" r="8.69"/>
          <path class="cls-1" d="m15.31,5.5c4.59,0,8.33,3.74,8.33,8.33s-3.74,8.33-8.33,8.33-8.33-3.74-8.33-8.33,3.74-8.33,8.33-8.33m0-1.5c-5.43,0-9.83,4.4-9.83,9.83s4.4,9.83,9.83,9.83,9.83-4.4,9.83-9.83-4.4-9.83-9.83-9.83h0Z"/>
        </g>
        <g>
          <circle class="cls-1" cx="15.31" cy="36.17" r="9.17"/>
          <path class="cls-1" d="m15.31,27.85c4.59,0,8.33,3.74,8.33,8.33s-3.74,8.33-8.33,8.33-8.33-3.74-8.33-8.33,3.74-8.33,8.33-8.33m0-1.5c-5.43,0-9.83,4.4-9.83,9.83s4.4,9.83,9.83,9.83,9.83-4.4,9.83-9.83-4.4-9.83-9.83-9.83h0Z"/>
        </g>
      </g>
      <g>
        <circle class="cls-1" cx="34.69" cy="25" r="9"/>
        <path class="cls-1" d="m34.69,16.67c4.59,0,8.33,3.74,8.33,8.33s-3.74,8.33-8.33,8.33-8.33-3.74-8.33-8.33,3.74-8.33,8.33-8.33m0-1.5c-5.43,0-9.83,4.4-9.83,9.83s4.4,9.83,9.83,9.83,9.83-4.4,9.83-9.83-4.4-9.83-9.83-9.83h0Z"/>
      </g>
    </g>
  </g>
</svg>