<?xml version="1.0" encoding="UTF-8"?>
<svg id="Layer_1" data-name="Layer 1" xmlns="http://www.w3.org/2000/svg" viewBox="0 0 50 50">
  <defs>
    <style>
      .cls-1 {
        fill: #1d1d1f;
      }
    </style>
  </defs>
  <path class="cls-1" d="m40,2c4.41,0,8,3.59,8,8v30c0,4.41-3.59,8-8,8H10c-4.41,0-8-3.59-8-8V10C2,5.59,5.59,2,10,2h30m0-2H10C4.48,0,0,4.48,0,10v30c0,5.52,4.48,10,10,10h30c5.52,0,10-4.48,10-10V10c0-5.52-4.48-10-10-10h0Z"/>
  <g>
    <path class="cls-1" d="m14.67,18.92h2.21v2.32h-.76l-2.99,9.63h-2.63l4.17-11.95Zm-1.31,7.18h5.57l.61,1.87h-6.8l.61-1.87Zm2.81-4.86v-2.32h1.45l4.17,11.95h-2.63l-2.98-9.63Z"/>
    <path class="cls-1" d="m25.13,21.22h-.05l-3.05,2.07v-2.22l3.09-2.14h2.49v11.95h-2.48v-9.66Z"/>
    <path class="cls-1" d="m32.6,30.61c-.65-.31-1.17-.73-1.55-1.26s-.6-1.13-.65-1.79v-.12s2.3,0,2.3,0l.02.06c.06.3.19.57.39.81s.45.43.75.58.65.21,1.03.21c.44,0,.82-.09,1.16-.28s.59-.44.78-.77.28-.7.28-1.13v-.02c0-.42-.1-.79-.29-1.11s-.45-.57-.78-.75-.71-.27-1.14-.27c-.3,0-.59.04-.84.13s-.49.21-.7.38c-.12.09-.22.19-.32.3s-.18.23-.25.36h-2.18l.55-7.02h7.63v1.99h-5.64l-.29,3.37h.05c.25-.4.61-.72,1.08-.95s1.01-.35,1.61-.35c.76,0,1.44.17,2.02.5s1.05.79,1.38,1.38.51,1.25.51,2v.02c0,.83-.19,1.57-.58,2.19s-.93,1.12-1.63,1.47-1.5.53-2.41.53-1.63-.15-2.28-.46Z"/>
  </g>
</svg>