<?xml version="1.0" encoding="UTF-8"?>
<svg id="Layer_1" data-name="Layer 1" xmlns="http://www.w3.org/2000/svg" viewBox="0 0 50 50">
  <defs>
    <style>
      .cls-1 {
        fill: #1d1d1f;
      }
    </style>
  </defs>
  <path class="cls-1" d="m40,2c4.41,0,8,3.59,8,8v30c0,4.41-3.59,8-8,8H10c-4.41,0-8-3.59-8-8V10C2,5.59,5.59,2,10,2h30m0-2H10C4.48,0,0,4.48,0,10v30c0,5.52,4.48,10,10,10h30c5.52,0,10-4.48,10-10V10c0-5.52-4.48-10-10-10h0Z"/>
  <g>
    <path class="cls-1" d="m10.47,30.93l3.99-11.88h2.75l3.97,11.88h-2.5l-.93-3.06h-3.97l-.93,3.06h-2.38Zm5.25-9.61l-1.45,4.81h3.01l-1.45-4.81h-.1Z"/>
    <path class="cls-1" d="m24.97,30.93v-9.62h-.11c-.3.21-.6.42-.9.63s-.6.43-.9.64-.6.42-.9.64v-2.16c.47-.34.94-.67,1.41-1.01s.94-.67,1.4-1.01h2.33v11.88h-2.33Z"/>
    <path class="cls-1" d="m37.05,21.8c-.06-.17-.16-.35-.3-.51-.15-.17-.34-.31-.59-.42s-.54-.17-.89-.17c-.31,0-.6.06-.86.19s-.49.31-.7.55c-.2.24-.38.54-.52.88-.14.34-.25.72-.31,1.15-.07.43-.09.89-.08,1.38h.14c.12-.27.3-.54.54-.79.24-.25.56-.46.94-.62.39-.16.85-.24,1.38-.24.63,0,1.23.14,1.8.43s1.03.71,1.39,1.27c.36.56.54,1.27.54,2.11s-.19,1.62-.57,2.25c-.38.62-.9,1.09-1.55,1.42-.66.33-1.4.49-2.25.49-.5,0-.98-.06-1.44-.19-.46-.13-.89-.33-1.28-.62-.39-.28-.73-.66-1.02-1.13-.28-.45-.5-1-.65-1.65s-.23-1.4-.23-2.27.07-1.65.21-2.35c.14-.7.35-1.3.63-1.81.28-.51.61-.94,1-1.28.39-.34.83-.59,1.32-.76.49-.17,1.03-.25,1.61-.25.64,0,1.2.09,1.69.26.49.17.9.41,1.23.7.33.29.59.61.77.96.18.35.28.7.3,1.04h-2.24Zm-3.71,6.48c.19.33.44.58.76.76.32.18.67.27,1.06.27s.76-.08,1.08-.25c.32-.17.57-.41.75-.74s.27-.73.27-1.22-.1-.87-.29-1.18c-.19-.32-.45-.56-.77-.72-.32-.16-.66-.24-1.03-.24-.41,0-.78.09-1.1.27-.32.18-.57.43-.74.76-.18.32-.27.69-.27,1.11,0,.46.09.85.28,1.18Z"/>
  </g>
</svg>