<?xml version="1.0" encoding="utf-8"?>
<!-- Generator: Adobe Illustrator 16.0.0, SVG Export Plug-In . SVG Version: 6.00 Build 0)  -->
<!DOCTYPE svg PUBLIC "-//W3C//DTD SVG 1.1//EN" "http://www.w3.org/Graphics/SVG/1.1/DTD/svg11.dtd">
<svg version="1.1" id="Layer_1" xmlns="http://www.w3.org/2000/svg" xmlns:xlink="http://www.w3.org/1999/xlink" x="0px" y="0px"
	 width="456.793px" height="165.21px" viewBox="709.604 313.395 456.793 165.21"
	 enable-background="new 709.604 313.395 456.793 165.21" xml:space="preserve">
<g>
	<path d="M218.1,434.1c-0.2,0.601-3.4,11.801-11.1,23.5c-6.7,10.101-13.6,20.101-24.5,20.301c-10.7,0.199-14.2-6.601-26.4-6.601
		c-12.3,0-16.1,6.4-26.2,6.8c-10.5,0.4-18.5-10.899-25.3-20.899c-13.7-20.5-24.2-58-10.1-83.2c7-12.6,19.5-20.5,33.1-20.7
		c10.3-0.2,20.1,7.2,26.4,7.2s18.1-8.9,30.6-7.6c5.2,0.2,19.8,2.2,29.2,16.4c-0.7,0.5-17.5,10.5-17.3,31.4
		C196.8,425.7,217.9,434,218.1,434.1z M176.5,339.3c5.6-7,9.3-16.7,8.3-26.4c-8,0.3-17.8,5.5-23.6,12.5c-5.2,6.2-9.7,16.1-8.5,25.5
		C161.8,351.7,170.9,346.3,176.5,339.3z"/>
	<g>
		<path d="M307.9,401.4h-6.8l-3.7-12.101h-12.9L281,401.4h-6.6l12.8-41h7.9L307.9,401.4z M296.3,384.3l-3.4-10.7
			c-0.3-1.1-1-3.7-2-7.7h-0.1c-0.4,1.7-1,4.3-1.9,7.7l-3.3,10.7H296.3z"/>
		<path d="M337.3,401.4h-5.6l-0.4-4.5h-0.1c-2,3.399-5,5.199-9.101,5.199c-2.8,0-5.1-0.899-6.8-2.699c-2-2.2-3-5.601-3-10.101v-17.4
			h6.4v16.3c0,5.7,1.899,8.5,5.7,8.5c2.8,0,4.8-1.4,5.899-4.3c0.3-0.7,0.4-1.6,0.4-2.5v-18.1h6.3v21.1
			C337.1,395.7,337.2,398.5,337.3,401.4z"/>
		<path d="M359.6,376.8h-7v14.4c0,3.7,1.2,5.5,3.7,5.5c1.101,0,2.101-0.101,2.8-0.3l0.2,5c-1.3,0.5-2.899,0.699-5,0.699
			c-2.5,0-4.5-0.8-5.899-2.399c-1.4-1.601-2.101-4.2-2.101-8v-14.9h-4.2v-4.9h4.2v-5.4l6.2-1.9v7.4h7v4.8H359.6z"/>
		<path d="M389.9,401.4h-6.4v-16.9c0-5.3-1.9-8-5.8-8c-3,0-5,1.5-6.101,4.6c-0.199,0.7-0.3,1.4-0.3,2.4v17.8H364.9v-43.2h6.399V376
			h0.101c2-3.2,4.899-4.8,8.6-4.8c2.6,0,4.8,0.9,6.5,2.7c2.2,2.2,3.2,5.5,3.2,9.9V401.4H389.9z"/>
		<path d="M424,386.4c0,4.6-1.3,8.3-3.8,11.2c-2.601,3-6.101,4.5-10.5,4.5c-4.2,0-7.5-1.399-10-4.3c-2.5-2.9-3.7-6.5-3.7-10.9
			c0-4.6,1.3-8.3,3.9-11.3c2.6-2.9,6-4.4,10.399-4.4c4.2,0,7.601,1.4,10.101,4.3C422.8,378.3,424,382,424,386.4z M417.4,386.6
			c0-2.7-0.601-5-1.7-7c-1.3-2.4-3.2-3.5-5.7-3.5c-2.6,0-4.5,1.2-5.8,3.5c-1.101,1.9-1.7,4.3-1.7,7.1c0,2.7,0.6,5.1,1.7,7
			c1.399,2.3,3.3,3.5,5.8,3.5c2.4,0,4.3-1.2,5.7-3.6C416.8,391.6,417.4,389.3,417.4,386.6z"/>
		<path d="M445.2,377.6c-0.601-0.1-1.3-0.2-2-0.2c-2.2,0-4,0.9-5.2,2.6c-1,1.5-1.6,3.5-1.6,5.8v15.5H430l0.1-20.3
			c0-3.4-0.1-6.5-0.199-9.3h5.5l0.199,5.7h0.2c0.7-1.9,1.7-3.5,3.2-4.7c1.4-1,3-1.6,4.6-1.6c0.601,0,1.101,0,1.601,0.1V377.6
			L445.2,377.6z"/>
		<path d="M457.2,363c0,1.2-0.4,2.1-1.101,2.9c-0.699,0.7-1.699,1.1-2.899,1.1c-1.101,0-1.9-0.4-2.7-1.1c-0.7-0.8-1.1-1.7-1.1-2.8
			s0.399-2.1,1.1-2.8c0.8-0.7,1.7-1.1,2.8-1.1c1.101,0,2,0.4,2.8,1.1C456.8,360.9,457.2,361.9,457.2,363z M456.5,401.4h-6.4V371.8
			h6.4V401.4z"/>
		<path d="M485,401.4h-23.3V397.6l11.399-15.5c0.7-1,2-2.6,3.9-4.8v-0.1h-14.2v-5.3h21.9v4.1l-11.2,15.3c-1.3,1.7-2.6,3.3-3.9,4.8
			v0.101H485V401.4z"/>
		<path d="M513.2,385.2c0,1.2-0.101,2.2-0.2,3h-19.1c0.1,2.9,1,5.1,2.8,6.7c1.6,1.4,3.7,2.1,6.2,2.1c2.8,0,5.399-0.5,7.699-1.4
			l1,4.6c-2.699,1.2-5.899,1.8-9.6,1.8c-4.4,0-7.9-1.3-10.5-4c-2.5-2.7-3.8-6.3-3.8-10.9c0-4.5,1.2-8.2,3.5-11.1
			c2.5-3.2,5.8-4.8,10-4.8c4.1,0,7.2,1.6,9.399,4.8C512.3,378.4,513.2,381.5,513.2,385.2z M507.1,383.5c0-1.9-0.399-3.6-1.199-5.1
			c-1.101-1.8-2.801-2.7-5.101-2.7c-2.1,0-3.8,0.9-5.1,2.7c-1.101,1.4-1.7,3.1-1.9,5.1H507.1z"/>
		<path d="M544.6,401.4H538.9L538.6,396.6H538.4c-1.801,3.601-4.9,5.4-9.2,5.4c-3.5,0-6.3-1.4-8.601-4.2
			c-2.3-2.8-3.399-6.4-3.399-10.9c0-4.8,1.2-8.7,3.7-11.6c2.399-2.8,5.3-4.1,8.8-4.1c3.8,0,6.5,1.3,8.1,4h0.101v-17h6.399v35.2
			C544.3,396.3,544.4,399,544.6,401.4z M538,388.9V384c0-0.8-0.1-1.5-0.2-2.1c-0.399-1.6-1.1-2.9-2.3-4s-2.6-1.6-4.2-1.6
			c-2.399,0-4.2,1-5.6,2.9c-1.4,1.9-2,4.4-2,7.5c0,2.9,0.7,5.3,1.899,7.1c1.4,1.9,3.2,2.9,5.5,2.9c2.101,0,3.7-0.8,5-2.4
			C537.4,392.9,538,391,538,388.9z"/>
		<path d="M304.1,471.4h-6.6c-0.6-1.2-1.5-4.5-2.6-9.7c-0.6-2.8-1.4-4.7-2.5-5.8c-1.1-1.101-2.7-1.7-4.9-1.7h-3.9v17.2h-6.3v-40.5
			c2.9-0.601,6.3-0.9,10.3-0.9c5.4,0,9.3,1.1,11.8,3.3c2.2,1.9,3.3,4.601,3.3,8.101c0,2.5-0.7,4.699-2.2,6.6c-1.3,1.7-3,2.9-5.1,3.7
			v0.1c2.7,1.101,4.6,3.8,5.6,8.2c0.8,3.4,1.3,5.8,1.7,7.1C303.3,469.3,303.8,470.7,304.1,471.4z M296.3,442.1
			c0-4.699-2.7-7-8.1-7.1c-2,0-3.6,0.1-4.6,0.4v13.8h4.5c2.5,0,4.5-0.7,6-2C295.6,446,296.3,444.3,296.3,442.1z"/>
		<path d="M333,455.2c0,1.2-0.1,2.2-0.2,3h-19.1c0.1,2.899,1,5.1,2.8,6.7c1.6,1.399,3.7,2.1,6.2,2.1c2.8,0,5.399-0.5,7.7-1.4
			l1,4.601c-2.7,1.2-5.9,1.8-9.601,1.8c-4.399,0-7.899-1.3-10.5-4c-2.5-2.7-3.8-6.3-3.8-10.9c0-4.5,1.2-8.199,3.5-11.1
			c2.5-3.2,5.8-4.8,10-4.8c4.1,0,7.2,1.6,9.4,4.8C332.2,448.4,333,451.5,333,455.2z M327,453.5c0-1.9-0.4-3.6-1.2-5
			c-1.1-1.8-2.8-2.7-5.1-2.7c-2.101,0-3.8,0.9-5.101,2.7c-1.1,1.4-1.699,3.1-1.899,5.1H327V453.5z"/>
		<path d="M356.1,462.9c0,2.8-1,5-3,6.6c-2,1.7-4.699,2.5-8.1,2.5c-3.3,0-6-0.7-8.3-2l1.399-4.9c2.2,1.4,4.5,2.101,7,2.101
			c3.301,0,4.9-1.2,4.9-3.7c0-1.1-0.4-2-1.1-2.7c-0.7-0.7-2-1.399-3.801-2.1c-5.1-1.9-7.699-4.8-7.699-8.5
			c0-2.601,0.899-4.7,2.8-6.4c1.899-1.7,4.399-2.6,7.5-2.6c2.8,0,5.2,0.6,7.3,1.8l-1.4,4.7c-1.8-1.101-3.8-1.7-5.8-1.7
			c-1.3,0-2.399,0.3-3.1,1c-0.7,0.6-1.101,1.5-1.101,2.5s0.4,1.9,1.2,2.5c0.7,0.6,2,1.3,3.9,2C353.6,455.9,356.1,458.9,356.1,462.9z
			"/>
		<path d="M385.9,455.2c0,1.2-0.101,2.2-0.2,3H366.6c0.101,2.899,1,5.1,2.801,6.7c1.6,1.399,3.699,2.1,6.199,2.1
			c2.801,0,5.4-0.5,7.7-1.4l1,4.601c-2.7,1.2-5.899,1.8-9.6,1.8c-4.4,0-7.9-1.3-10.5-4c-2.5-2.7-3.8-6.3-3.8-10.9
			c0-4.5,1.199-8.199,3.5-11.1c2.5-3.2,5.8-4.8,10-4.8c4.1,0,7.199,1.6,9.399,4.8C385,448.4,385.9,451.5,385.9,455.2z M379.8,453.5
			c0-1.9-0.399-3.6-1.2-5c-1.1-1.8-2.8-2.7-5.1-2.7c-2.1,0-3.8,0.9-5.1,2.7c-1.101,1.4-1.7,3.1-1.9,5.1h13.3V453.5z"/>
		<path d="M398.2,471.4h-6.4V428.3h6.4V471.4z"/>
		<path d="M412.6,471.4H406.2V428.3h6.399V471.4z"/>
		<path d="M444.1,455.2c0,1.2-0.1,2.2-0.199,3H424.8c0.101,2.899,1,5.1,2.8,6.7c1.601,1.399,3.7,2.1,6.301,2.1
			c2.8,0,5.399-0.5,7.699-1.4l1,4.601c-2.699,1.2-5.899,1.8-9.6,1.8c-4.4,0-7.9-1.3-10.4-4s-3.8-6.3-3.8-10.9
			c0-4.5,1.2-8.199,3.5-11.1c2.5-3.2,5.8-4.8,10-4.8c4.101,0,7.2,1.6,9.4,4.8C443.3,448.4,444.1,451.5,444.1,455.2z M438.1,453.5
			c0-1.9-0.399-3.6-1.199-5c-1.101-1.8-2.801-2.7-5.101-2.7c-2.1,0-3.8,0.9-5.1,2.7c-1.101,1.4-1.7,3.1-1.9,5.1h13.3V453.5z"/>
		<path d="M465.2,447.6c-0.601-0.1-1.3-0.199-2-0.199c-2.2,0-4,0.899-5.2,2.6c-1.1,1.5-1.6,3.5-1.6,5.8v15.5H450l0.1-20.3
			c0-3.4-0.1-6.5-0.199-9.3h5.5l0.199,5.7h0.2c0.7-2,1.7-3.5,3.2-4.7c1.4-1.101,2.9-1.601,4.6-1.601c0.601,0,1.101,0,1.601,0.101
			V447.6L465.2,447.6z"/>
	</g>
</g>
<g>
	<path d="M839.896,434.1c-0.199,0.601-3.399,11.801-11.1,23.5c-6.7,10.101-13.6,20.101-24.5,20.301
		c-10.7,0.199-14.2-6.601-26.4-6.601c-12.3,0-16.1,6.4-26.199,6.8c-10.5,0.4-18.5-10.899-25.301-20.899
		c-13.699-20.5-24.199-58-10.1-83.2c7-12.6,19.5-20.5,33.1-20.7c10.301-0.2,20.101,7.2,26.4,7.2s18.1-8.9,30.6-7.6
		c5.2,0.2,19.801,2.2,29.2,16.4c-0.7,0.5-17.5,10.5-17.3,31.4C818.596,425.7,839.696,434,839.896,434.1z M798.296,339.3
		c5.6-7,9.3-16.7,8.3-26.4c-8,0.3-17.8,5.5-23.6,12.5c-5.2,6.2-9.7,16.1-8.5,25.5C783.596,351.7,792.696,346.3,798.296,339.3z"/>
	<g>
		<path d="M929.696,401.4h-6.801l-3.699-12.101h-12.9l-3.5,12.101h-6.6l12.8-41h7.899L929.696,401.4z M918.096,384.3l-3.399-10.7
			c-0.301-1.1-1-3.7-2-7.7h-0.101c-0.399,1.7-1,4.3-1.899,7.7l-3.301,10.7H918.096z"/>
		<path d="M959.096,401.4h-5.6l-0.4-4.5h-0.1c-2,3.399-5,5.199-9.101,5.199c-2.8,0-5.1-0.899-6.8-2.699c-2-2.2-3-5.601-3-10.101
			v-17.4h6.4v16.3c0,5.7,1.899,8.5,5.7,8.5c2.8,0,4.8-1.4,5.899-4.3c0.3-0.7,0.4-1.6,0.4-2.5v-18.1h6.3v21.1
			C958.896,395.7,958.996,398.5,959.096,401.4z"/>
		<path d="M981.396,376.8h-7v14.4c0,3.7,1.2,5.5,3.7,5.5c1.101,0,2.101-0.101,2.8-0.3l0.2,5c-1.3,0.5-2.899,0.699-5,0.699
			c-2.5,0-4.5-0.8-5.899-2.399c-1.4-1.601-2.101-4.2-2.101-8v-14.9h-4.2v-4.9h4.2v-5.4l6.2-1.9v7.4h7v4.8H981.396z"/>
		<path d="M1011.696,401.4h-6.4v-16.9c0-5.3-1.9-8-5.8-8c-3,0-5,1.5-6.101,4.6c-0.199,0.7-0.3,1.4-0.3,2.4v17.8h-6.399v-43.2h6.399
			V376h0.101c2-3.2,4.899-4.8,8.6-4.8c2.6,0,4.8,0.9,6.5,2.7c2.2,2.2,3.2,5.5,3.2,9.9V401.4H1011.696z"/>
		<path d="M1045.796,386.4c0,4.6-1.3,8.3-3.8,11.2c-2.601,3-6.101,4.5-10.5,4.5c-4.2,0-7.5-1.399-10-4.3c-2.5-2.9-3.7-6.5-3.7-10.9
			c0-4.6,1.3-8.3,3.9-11.3c2.6-2.9,6-4.4,10.399-4.4c4.2,0,7.601,1.4,10.101,4.3C1044.596,378.3,1045.796,382,1045.796,386.4z
			 M1039.196,386.6c0-2.7-0.601-5-1.7-7c-1.3-2.4-3.2-3.5-5.7-3.5c-2.6,0-4.5,1.2-5.8,3.5c-1.101,1.9-1.7,4.3-1.7,7.1
			c0,2.7,0.6,5.1,1.7,7c1.399,2.3,3.3,3.5,5.8,3.5c2.4,0,4.3-1.2,5.7-3.6C1038.596,391.6,1039.196,389.3,1039.196,386.6z"/>
		<path d="M1066.996,377.6c-0.601-0.1-1.3-0.2-2-0.2c-2.2,0-4,0.9-5.2,2.6c-1,1.5-1.6,3.5-1.6,5.8v15.5h-6.4l0.1-20.3
			c0-3.4-0.1-6.5-0.199-9.3h5.5l0.199,5.7h0.2c0.7-1.9,1.7-3.5,3.2-4.7c1.4-1,3-1.6,4.6-1.6c0.601,0,1.101,0,1.601,0.1V377.6
			L1066.996,377.6z"/>
		<path d="M1078.996,363c0,1.2-0.4,2.1-1.101,2.9c-0.699,0.7-1.699,1.1-2.899,1.1c-1.101,0-1.9-0.4-2.7-1.1
			c-0.7-0.8-1.1-1.7-1.1-2.8s0.399-2.1,1.1-2.8c0.8-0.7,1.7-1.1,2.8-1.1c1.101,0,2,0.4,2.8,1.1
			C1078.596,360.9,1078.996,361.9,1078.996,363z M1078.296,401.4h-6.4V371.8h6.4V401.4z"/>
		<path d="M1106.796,401.4h-23.3V397.6l11.399-15.5c0.7-1,2-2.6,3.9-4.8v-0.1h-14.2v-5.3h21.9v4.1l-11.2,15.3
			c-1.3,1.7-2.6,3.3-3.9,4.8v0.101h15.4V401.4z"/>
		<path d="M1134.996,385.2c0,1.2-0.101,2.2-0.2,3h-19.1c0.1,2.9,1,5.1,2.8,6.7c1.6,1.4,3.7,2.1,6.2,2.1c2.8,0,5.399-0.5,7.699-1.4
			l1,4.6c-2.699,1.2-5.899,1.8-9.6,1.8c-4.4,0-7.9-1.3-10.5-4c-2.5-2.7-3.8-6.3-3.8-10.9c0-4.5,1.2-8.2,3.5-11.1
			c2.5-3.2,5.8-4.8,10-4.8c4.1,0,7.2,1.6,9.399,4.8C1134.096,378.4,1134.996,381.5,1134.996,385.2z M1128.896,383.5
			c0-1.9-0.399-3.6-1.199-5.1c-1.101-1.8-2.801-2.7-5.101-2.7c-2.1,0-3.8,0.9-5.1,2.7c-1.101,1.4-1.7,3.1-1.9,5.1H1128.896z"/>
		<path d="M1166.396,401.4h-5.699l-0.301-4.801h-0.199c-1.801,3.601-4.9,5.4-9.2,5.4c-3.5,0-6.3-1.4-8.601-4.2
			c-2.3-2.8-3.399-6.4-3.399-10.9c0-4.8,1.2-8.7,3.7-11.6c2.399-2.8,5.3-4.1,8.8-4.1c3.8,0,6.5,1.3,8.1,4h0.101v-17h6.399v35.2
			C1166.096,396.3,1166.196,399,1166.396,401.4z M1159.796,388.9V384c0-0.8-0.1-1.5-0.2-2.1c-0.399-1.6-1.1-2.9-2.3-4
			s-2.6-1.6-4.2-1.6c-2.399,0-4.2,1-5.6,2.9c-1.4,1.9-2,4.4-2,7.5c0,2.9,0.7,5.3,1.899,7.1c1.4,1.9,3.2,2.9,5.5,2.9
			c2.101,0,3.7-0.8,5-2.4C1159.196,392.9,1159.796,391,1159.796,388.9z"/>
		<path d="M925.896,471.4h-6.6c-0.6-1.2-1.5-4.5-2.6-9.7c-0.601-2.8-1.4-4.7-2.5-5.8c-1.101-1.101-2.7-1.7-4.9-1.7h-3.9v17.2h-6.3
			v-40.5c2.9-0.601,6.3-0.9,10.3-0.9c5.4,0,9.301,1.1,11.801,3.3c2.199,1.9,3.3,4.601,3.3,8.101c0,2.5-0.7,4.699-2.2,6.6
			c-1.3,1.7-3,2.9-5.1,3.7v0.1c2.699,1.101,4.6,3.8,5.6,8.2c0.8,3.4,1.3,5.8,1.7,7.1C925.096,469.3,925.596,470.7,925.896,471.4z
			 M918.096,442.1c0-4.699-2.7-7-8.1-7.1c-2,0-3.601,0.1-4.601,0.4v13.8h4.5c2.5,0,4.5-0.7,6-2
			C917.396,446,918.096,444.3,918.096,442.1z"/>
		<path d="M954.796,455.2c0,1.2-0.1,2.2-0.2,3h-19.1c0.1,2.899,1,5.1,2.8,6.7c1.6,1.399,3.7,2.1,6.2,2.1c2.8,0,5.399-0.5,7.7-1.4
			l1,4.601c-2.7,1.2-5.9,1.8-9.601,1.8c-4.399,0-7.899-1.3-10.5-4c-2.5-2.7-3.8-6.3-3.8-10.9c0-4.5,1.2-8.199,3.5-11.1
			c2.5-3.2,5.8-4.8,10-4.8c4.1,0,7.2,1.6,9.4,4.8C953.996,448.4,954.796,451.5,954.796,455.2z M948.796,453.5c0-1.9-0.4-3.6-1.2-5
			c-1.1-1.8-2.8-2.7-5.1-2.7c-2.101,0-3.8,0.9-5.101,2.7c-1.1,1.4-1.699,3.1-1.899,5.1h13.3V453.5z"/>
		<path d="M977.896,462.9c0,2.8-1,5-3,6.6c-2,1.7-4.699,2.5-8.1,2.5c-3.3,0-6-0.7-8.3-2l1.399-4.9c2.2,1.4,4.5,2.101,7,2.101
			c3.301,0,4.9-1.2,4.9-3.7c0-1.1-0.4-2-1.1-2.7c-0.7-0.7-2-1.399-3.801-2.1c-5.1-1.9-7.699-4.8-7.699-8.5
			c0-2.601,0.899-4.7,2.8-6.4c1.899-1.7,4.399-2.6,7.5-2.6c2.8,0,5.2,0.6,7.3,1.8l-1.4,4.7c-1.8-1.101-3.8-1.7-5.8-1.7
			c-1.3,0-2.399,0.3-3.1,1c-0.7,0.6-1.101,1.5-1.101,2.5s0.4,1.9,1.2,2.5c0.7,0.6,2,1.3,3.9,2
			C975.396,455.9,977.896,458.9,977.896,462.9z"/>
		<path d="M1007.696,455.2c0,1.2-0.101,2.2-0.2,3h-19.101c0.101,2.899,1,5.1,2.801,6.7c1.6,1.399,3.699,2.1,6.199,2.1
			c2.801,0,5.4-0.5,7.7-1.4l1,4.601c-2.7,1.2-5.899,1.8-9.6,1.8c-4.4,0-7.9-1.3-10.5-4c-2.5-2.7-3.8-6.3-3.8-10.9
			c0-4.5,1.199-8.199,3.5-11.1c2.5-3.2,5.8-4.8,10-4.8c4.1,0,7.199,1.6,9.399,4.8C1006.796,448.4,1007.696,451.5,1007.696,455.2z
			 M1001.596,453.5c0-1.9-0.399-3.6-1.2-5c-1.1-1.8-2.8-2.7-5.1-2.7c-2.1,0-3.8,0.9-5.1,2.7c-1.101,1.4-1.7,3.1-1.9,5.1h13.3V453.5z
			"/>
		<path d="M1019.996,471.4h-6.4V428.3h6.4V471.4z"/>
		<path d="M1034.396,471.4h-6.399V428.3h6.399V471.4z"/>
		<path d="M1065.896,455.2c0,1.2-0.1,2.2-0.199,3h-19.101c0.101,2.899,1,5.1,2.8,6.7c1.601,1.399,3.7,2.1,6.301,2.1
			c2.8,0,5.399-0.5,7.699-1.4l1,4.601c-2.699,1.2-5.899,1.8-9.6,1.8c-4.4,0-7.9-1.3-10.4-4s-3.8-6.3-3.8-10.9
			c0-4.5,1.2-8.199,3.5-11.1c2.5-3.2,5.8-4.8,10-4.8c4.101,0,7.2,1.6,9.4,4.8C1065.096,448.4,1065.896,451.5,1065.896,455.2z
			 M1059.896,453.5c0-1.9-0.399-3.6-1.199-5c-1.101-1.8-2.801-2.7-5.101-2.7c-2.1,0-3.8,0.9-5.1,2.7c-1.101,1.4-1.7,3.1-1.9,5.1
			h13.3V453.5z"/>
		<path d="M1086.996,447.6c-0.601-0.1-1.3-0.199-2-0.199c-2.2,0-4,0.899-5.2,2.6c-1.1,1.5-1.6,3.5-1.6,5.8v15.5h-6.4l0.1-20.3
			c0-3.4-0.1-6.5-0.199-9.3h5.5l0.199,5.7h0.2c0.7-2,1.7-3.5,3.2-4.7c1.4-1.101,2.9-1.601,4.6-1.601c0.601,0,1.101,0,1.601,0.101
			V447.6L1086.996,447.6z"/>
	</g>
</g>
</svg>
