<!-- SpeedSize.com --><svg xmlns="http://www.w3.org/2000/svg" width="52" height="54"><path d="M42.35 27.165c-.016-.779-.026-1.439-.026-1.84C42.324 20.657 35 17 25.9 17S9.511 20.657 9.511 25.325v1.913C4.7 29.728.999 33.359.999 37.406.999 44.914 12.191 51 25.998 51s25.001-6.086 25.001-13.594c0-4.087-3.77-7.749-8.649-10.241zm-16.292-9.119c8.362 0 15.142 3.259 15.142 7.279 0 1.276-.686 2.473-1.886 3.516a9.753 9.753 0 01-.981.735c-.074.05-.151.098-.228.147-.322.204-.664.399-1.028.585-.058.029-.111.061-.169.09-.315.156-.619.303-.907.444v-.233C36 29.165 34.916 28 33.447 28l-1.596-.006H23V27h-4v.994h-.447c-1.469 0-2.553 1.17-2.553 2.614v.203c-.279-.132-.634-.268-.928-.413-.058-.029-.041-.06-.099-.089a7.39 7.39 0 01-.253-.136c-.259-.145-.495-.295-.74-.449-.077-.049-.136-.097-.211-.147a9.514 9.514 0 01-.973-.735c-1.199-1.043-1.882-2.24-1.882-3.516 0-4.021 6.781-7.28 15.144-7.28zM35 30.609v9.411c0 .866-.672 1.98-1.553 1.98H18.553C17.672 42 17 40.886 17 40.02v-9.411c0-.866.672-1.569 1.553-1.569h14.894c.881 0 1.553.702 1.553 1.569zm-9.002 19.032c-12.773 0-23.563-5.603-23.563-12.235 0-3.352 2.447-6.439 7.076-8.674v4.959c0 2.809 2.29 5.29 6.489 6.79.222 1.223 1.245 2.519 2.553 2.519h14.894c1.325 0 2.35-1.32 2.553-2.566 4.244-1.503 6.478-3.952 6.478-6.743 0-.894-.052-3.056-.096-5.012 4.699 2.24 7.18 5.349 7.18 8.728.001 6.631-10.791 12.234-23.564 12.234z" fill="#333"/></svg>