<svg data-name="Layer 1" xmlns="http://www.w3.org/2000/svg" viewBox="0 0 100 100"><path d="M86.67 43.58c-4 2.28-8 4.53-12.07 6.71-2.23 1.21-3.6.71-4.6-1.61-.68-1.56-1.31-3.14-2-4.71 0-.11-.21-.16-.56-.43-.82 2.87-1.69 5.61-2.32 8.41-.12.5.62 1.36 1.16 1.81 3.43 2.87 6.92 5.66 10.37 8.49 2.31 1.9 2.45 4.81 0 6.42-5.85 3.87-11.81 7.58-17.79 11.24a3.23 3.23 0 01-4.58-1.28c-.88-1.62-.41-3.38 1.44-4.56 3.94-2.52 7.94-5 11.91-7.43.64-.4 1.26-.84 2.17-1.44-.64-.57-1-1-1.53-1.35q-4-2.82-8-5.62c-2.94-2-3.34-1.9-4.41 1.64s-2.08 7.23-3.27 10.79a9.67 9.67 0 01-2 3.42c-4.11 4.45-8.31 8.83-12.49 13.23l-.37.39a3.38 3.38 0 01-5.65-2.5 3.41 3.41 0 01.55-1.84l.13-.18.11-.15.3-.35c3.65-4 7.41-7.82 11.07-11.78A7.13 7.13 0 0046 68.24c3.12-11 6.16-22 9.22-33 .09-.33.11-.68.21-1.35-1.88.32-3.61.5-5.28 1-.47.12-.95 1-1 1.54-.55 3.36-1 6.74-1.48 10.11-.33 2.27-1.24 3.14-3.05 3s-2.91-1.39-2.62-3.65c.52-4.57 1.15-9.14 1.8-13.7a3.09 3.09 0 012.82-2.76C52.05 28.6 57.5 27.74 63 27a5.52 5.52 0 016.22 3.71q2.28 5.73 4.36 11.54c.57 1.6 1.23 2 2.76 1 2.43-1.58 5-3 7.51-4.42 1.88-1 3.58-.71 4.43.8s.25 2.89-1.61 3.95zM68.58 24.64a6.64 6.64 0 110-13.27 6.64 6.64 0 010 13.27zM29.77 39.16H7.93a1.38 1.38 0 010-2.76h21.84a1.38 1.38 0 010 2.76zm-4.22 6.27H3.7a1.38 1.38 0 110-2.76h21.85a1.38 1.38 0 010 2.76zm7.66 7.03H14.62a1.38 1.38 0 010-2.76h18.59a1.38 1.38 0 110 2.76z" fill="#333"/></svg>