<?xml version="1.0" encoding="UTF-8"?>
<svg id="Layer_1" data-name="Layer 1" xmlns="http://www.w3.org/2000/svg" viewBox="0 0 50 50">
  <defs>
    <style>
      .cls-1 {
        fill: none;
        stroke: #000;
        stroke-linecap: round;
        stroke-miterlimit: 10;
        stroke-width: 1.5px;
      }

      .cls-2 {
        fill: #1d1d1f;
      }
    </style>
  </defs>
  <path class="cls-2" d="m25,3c12.13,0,22,9.87,22,22s-9.87,22-22,22S3,37.13,3,25,12.87,3,25,3m0-3h0C11.19,0,0,11.19,0,25h0c0,13.81,11.19,25,25,25h0c13.81,0,25-11.19,25-25h0C50,11.19,38.81,0,25,0h0Z"/>
  <g id="Regular-S">
    <path d="m30.89,28.49l4.75,2.68-3.07,2.62c-.67.6-.63,1.33-.23,1.77.41.45,1.14.6,1.85-.02l4.29-3.66c.6-.49.5-1.58-.22-2.05l-4.65-3.05.91-3.21c.13-.45.66-.52.92-.13l1.36,2c.33.47.92.66,1.46.41l3.95-1.75c.72-.31.99-.94.67-1.58-.31-.63-.92-.81-1.61-.5l-3.13,1.38-2.15-2.98c-1.13-1.53-2.51-2.18-4.81-2l-4.39.31c-.7.05-1.17.52-1.27,1.22l-.6,4.45c-.11.77.28,1.32.97,1.39.7.06,1.16-.34,1.27-1.11l.53-3.62,1.74-.13c.38-.03.75.22.61.7l-1,3.57c-.61,2.11.77,2.68,1.85,3.29Zm-8.35,10.76c.47.39,1.17.47,1.83-.17l4.02-3.99c.34-.34.42-.42.63-.94l1.68-4.34-.42-.23c-.92-.52-1.6-1.02-2.05-1.58l-1.47,5.18-4.18,4.17c-.67.66-.52,1.47-.03,1.91Zm12.61-21.6c1.52,0,2.73-1.22,2.73-2.73s-1.21-2.73-2.73-2.73-2.73,1.21-2.73,2.73,1.22,2.73,2.73,2.73Z"/>
  </g>
  <line class="cls-1" x1="18" y1="15" x2="24.99" y2="15"/>
  <line class="cls-1" x1="9" y1="21.14" x2="21" y2="21.14"/>
  <line class="cls-1" x1="16.51" y1="27.07" x2="23.5" y2="27.07"/>
  <line class="cls-1" x1="11" y1="33.21" x2="19.5" y2="33.21"/>
</svg>