<!-- SpeedSize.com --><svg id="Layer_1" data-name="Layer 1" xmlns="http://www.w3.org/2000/svg" viewBox="0 0 29 54"><defs><style>.cls-2{fill:none}</style></defs><path class="cls-2" d="M-1.75 0h32v54h-32z"/><path class="cls-2" d="M0 0h29v54H0z"/><path d="M14.5 22.5a13.75 13.75 0 1013.75 13.75A13.76 13.76 0 0014.5 22.5zm0 25.85a12.1 12.1 0 1112.1-12.1 12.12 12.12 0 01-12.1 12.1zm0-23.1a11 11 0 1011 11 11 11 0 00-11-11zm.5 6.26a1.86 1.86 0 011.36-.68 2 2 0 01-.48 1.45 1.59 1.59 0 01-1.36.68 1.91 1.91 0 01.48-1.45zM17.63 39c-.38.58-.81 1.16-1.44 1.16s-.81-.39-1.51-.39-1 .39-1.55.39-1.07-.61-1.46-1.18a5.75 5.75 0 01-1-3 3.14 3.14 0 01.39-1.67A2.34 2.34 0 0113 33.06c.6 0 1.13.43 1.5.43a10.86 10.86 0 011.79-.43A2 2 0 0118 34a2.17 2.17 0 00-1 1.81 2.11 2.11 0 001.25 1.87 4.61 4.61 0 01-.62 1.32z" fill="#141414"/></svg>