<?xml version="1.0" encoding="utf-8"?>
<!-- Generator: Adobe Illustrator 27.9.0, SVG Export Plug-In . SVG Version: 6.00 Build 0)  -->
<svg version="1.1" id="Layer_1" xmlns="http://www.w3.org/2000/svg" xmlns:xlink="http://www.w3.org/1999/xlink" x="0px" y="0px"
	 viewBox="0 0 370.8 138.7" style="enable-background:new 0 0 370.8 138.7;" xml:space="preserve">
<style type="text/css">
	.st0{fill:#FE6A14;}
</style>
<g>
	<g>
		<g>
			<g>
				<path d="M132.5,61.5h-0.2L122,20.3h-12.2L99.5,61.5h-0.2l-9.5-41.2H77.1l16.1,57.8h12l10.7-39.6h0.2l10.7,39.6h12.1l16.1-57.8
					h-12.8L132.5,61.5z M357.7,20.3v23.2h-23.6V20.3h-12v57.8h12V53.5h23.6v24.6h12.1V20.3H357.7z M208.4,30.1h17.3v48h11.9v-48
					h17.3v-9.8h-46.4V30.1z M175.3,54.7l6.6-23h0.2l6.5,23H175.3z M175.2,20.3l-18.6,57.8h12l4.2-14.5h18.3l4.1,14.5h12.8
					l-18.5-57.8H175.2z M286.6,19.6c-15.3,0-24.3,9.9-24.3,26.4v6.5c0,16.7,9,26.3,24.2,26.3c15.3,0,23-9.3,23-19.8V58h-11.5
					c0,6-2.9,10.7-11.2,10.7c-8.2,0-12.3-5.1-12.3-16.1V46c0-10.9,4.1-16.3,12.3-16.3c7.7,0,11.2,5,11.2,10.8h11.5v-0.6
					C309.5,28.7,300.8,19.6,286.6,19.6"/>
			</g>
			<g>
				<path d="M48.6,19.4c-6.5-0.5-12,3.6-15.1,3.6c-3.1,0-7.9-3.5-13-3.4c-6.7,0.1-12.8,3.9-16.3,9.9c-6.9,12.1-1.8,29.9,5,39.7
					c3.3,4.8,7.3,10.2,12.4,10c5-0.2,6.9-3.2,12.9-3.2c6,0,7.7,3.2,13,3.1c5.4-0.1,8.8-4.9,12.1-9.7c3.8-5.5,5.4-10.9,5.5-11.2
					c-0.1,0-10.5-4-10.6-15.9c-0.1-10,8.1-14.8,8.5-15C58.3,20.3,51.1,19.6,48.6,19.4z"/>
				<path d="M44.6,12.9c2.8-3.3,4.6-8,4.1-12.6c-4,0.2-8.8,2.6-11.6,6c-2.5,2.9-4.8,7.7-4.2,12.2C37.3,18.8,41.8,16.2,44.6,12.9z"/>
			</g>
		</g>
	</g>
	<g>
		<g>
			<path class="st0" d="M137.8,128.4v-16.7h4.7V129c0,5.5-3.9,9.3-10.4,9.3c-6.5,0-10.4-3.8-10.4-9.3v-17.4h4.7v16.7
				c0,3.8,2.3,5.9,5.7,5.9C135.5,134.3,137.8,132.1,137.8,128.4z"/>
			<path class="st0" d="M168.8,137.8h-16.1v-26.2h4.7v22.2h11.4V137.8z"/>
			<path class="st0" d="M179.8,137.8v-22.2h-7.6v-4h19.9v4h-7.6v22.2H179.8z"/>
			<path class="st0" d="M219.3,119.8c0,4.3-2.7,6.5-4.8,7.3l5.3,10.7h-5.3l-4.6-9.9h-5.1v9.9h-4.6v-26.2h10.2
				C216.4,111.6,219.3,115.3,219.3,119.8z M209.5,124.2c3.1,0,4.9-1.5,4.9-4.3c0-3-2-4.5-4.8-4.5h-4.9v8.9H209.5z"/>
			<path class="st0" d="M225.9,137.8l8.9-26.2h5.4l8.9,26.2h-5l-2.2-7h-9l-2.2,7H225.9z M237.4,116.3l-3.4,10.9h7l-3.4-10.9H237.4z"
				/>
			<path class="st0" d="M264.5,119.3v-0.2c0-4.3,3.4-8,8.9-8c5.2,0,8.6,3.1,8.6,7.3c0,3.1-1.7,5.2-4.5,8.3l-6.2,7.1v0.1h11.3v3.9
				h-17.7v-2.9l9.6-10.6c1.7-1.8,3-3.4,3-5.5c0-2.4-1.8-3.9-4.1-3.9c-2.6,0-4.2,1.9-4.2,4.1v0.2H264.5z"/>
		</g>
	</g>
</g>
</svg>
