<!-- SpeedSize.com --><svg id="Layer_1" data-name="Layer 1" xmlns="http://www.w3.org/2000/svg" viewBox="0 0 100 100"><path d="M81.36 38.26v-4.15A28.27 28.27 0 0081 30a14.1 14.1 0 00-1.29-3.92 13.22 13.22 0 00-5.77-5.76A14 14 0 0070 19a28.41 28.41 0 00-4.12-.36H34.11A28.41 28.41 0 0030 19a14 14 0 00-3.92 1.29 13.19 13.19 0 00-5.76 5.76A14.32 14.32 0 0019 30a28.41 28.41 0 00-.36 4.12v31.76A28.27 28.27 0 0019 70a13.78 13.78 0 001.29 3.92 13.17 13.17 0 005.77 5.76A13.78 13.78 0 0030 81a28.27 28.27 0 004.11.36h31.78A28.27 28.27 0 0070 81a13.78 13.78 0 003.92-1.29 13.12 13.12 0 005.75-5.76A13.78 13.78 0 0081 70a28.27 28.27 0 00.36-4.11V38.26zM38 39a5.08 5.08 0 013.33-1.73 5.08 5.08 0 01-1.17 3.63 4.2 4.2 0 01-3.37 1.58A4.79 4.79 0 0138 39zm6.49 18.07c-.94 1.39-1.91 2.74-3.47 2.78S39 59 37.26 59s-2.28.86-3.7.92S30.93 58.39 30 57c-1.94-2.8-3.41-7.91-1.41-11.36a5.47 5.47 0 014.66-2.84c1.47 0 2.83 1 3.72 1s2.48-1.17 4.34-1.05A5.27 5.27 0 0145.42 45 5.12 5.12 0 0043 49.29a5 5 0 003 4.58 12.24 12.24 0 01-1.55 3.19zm11.68-10.72h-3v8.88c0 1.37.61 2 1.94 2a9.81 9.81 0 001.08-.08v2.51a10.71 10.71 0 01-1.79.13c-3.14 0-4.36-1.2-4.36-4.25v-9.18h-2.37v-2.5H50v-3.77h3.13v3.77h3zm10.62 13.33h-3.33l-5.61-15.82h3.32l3.93 12.71h.07l3.94-12.71h3.25z" fill="#333"/></svg>