<!-- SpeedSize.com --><svg xmlns="http://www.w3.org/2000/svg" width="23" height="54"><g id="Light"><g><path d="M10.2 47.08c.3.26.55.15.57-.25v-.37c-.01-.45-.2-.88-.52-1.19l-1.2-1.06c-.3-.26-.55-.15-.56.25v.36c.01.44.19.87.51 1.18l1.2 1.08zm-2.7-2.84l-1.24 1c-.33.31-.53.73-.55 1.18v.37c0 .4.25.52.55.26l1.25-1c.33-.31.52-.73.55-1.18v-.37c0-.4-.25-.5-.56-.26zm-2.22 2.59v-.37c-.01-.45-.2-.88-.52-1.19l-1.2-1.06s-.06 0-.09-.05c.07.28.13.56.17.84.06.41.09.82.1 1.23l1 .85c.26.26.52.15.54-.25zm11.96-1.55c-.33.31-.53.73-.55 1.18v.37c0 .4.25.52.55.26l.86-.72c.05-.74.2-1.47.45-2.17h-.07l-1.24 1.08zM13 44.24l-1.24 1c-.33.31-.53.73-.55 1.18v.37c0 .4.25.52.55.26l1.25-1c.33-.31.52-.73.55-1.18v-.37c-.01-.4-.26-.5-.56-.26zm-4 2.42c-.31-.25-.56-.13-.56.26v.37c.03.45.23.87.56 1.18l1.25 1c.3.26.55.14.55-.25v-.37c-.02-.45-.22-.87-.55-1.18L9 46.66zm-.51 2.74v.54c.51 0 1 0 1.52.05l-1-.84c-.26-.26-.51-.15-.52.25zm-.99-.22l-.76.64c.4 0 .84.08 1.3.1v-.48c.02-.39-.23-.51-.54-.26zm.5-1.89v-.37c0-.39-.26-.5-.56-.24l-1.19 1.06c-.32.31-.51.74-.52 1.19v.37c0 .4.27.51.57.25l1.21-1.06c.31-.32.49-.75.49-1.2zm-4.23-.41c.01.53.06 1.06.15 1.58.18.58.67 1.01 1.27 1.11.08-.08.12-.2.11-.31v-.37c-.02-.45-.22-.87-.55-1.18l-.98-.83zm13 2.12v.37c-.02.08-.02.16 0 .24.61-.11 1.1-.57 1.23-1.18v-1.34l-.77.69c-.31.33-.48.77-.46 1.22zm-2.27-2.34c-.31-.25-.56-.13-.56.26v.37c.02.45.22.87.55 1.18l1.25 1c.3.26.55.14.55-.25v-.37c-.02-.45-.22-.87-.55-1.18l-1.24-1.01zm0-2.44c-.31-.25-.56-.14-.56.26v.37c.04.44.23.85.55 1.15l1.25 1c.3.25.55.14.55-.26v-.37c-.02-.45-.22-.87-.55-1.18l-1.24-.97zM14 49.4v.52l1.32-.1-.76-.67c-.32-.26-.56-.15-.56.25zm-1-.22L12 50c.49 0 1 0 1.5-.05v-.5c.05-.4-.2-.52-.5-.27zm.52-1.89v-.37c0-.39-.26-.5-.56-.24l-1.21 1.06c-.32.31-.51.74-.52 1.19v.37c0 .4.27.51.57.25l1.2-1.06c.32-.32.51-.75.52-1.2zM10.2 10.76L9 11.82c-.32.31-.51.73-.52 1.18v.37c0 .39.26.5.56.24l1.21-1.06c.32-.31.51-.74.52-1.19V11c-.02-.39-.27-.5-.57-.24zM7.5 13.6c.31.25.56.14.56-.26V13c-.03-.45-.23-.87-.55-1.18l-1.25-1c-.3-.25-.55-.14-.55.26v.37c.02.45.22.87.55 1.18l1.24.97zm-2.73-1.03c.32-.31.51-.74.52-1.19V11c0-.4-.27-.51-.57-.25l-1 .88c0 .2 0 .39-.07.56a8.33 8.33 0 01-.33 1.56c.09-.02.17-.07.24-.13l1.21-1.05zm13.71 1.03c.06.05.13.09.2.11 0-.14-.09-.29-.13-.44-.11-.53-.18-1.06-.21-1.6l-1.1-.92c-.3-.25-.55-.14-.55.26v.37c.02.45.22.87.55 1.18l1.24 1.04zm-5.48 0c.31.25.56.14.56-.26V13c-.02-.46-.22-.89-.56-1.21l-1.25-1c-.3-.25-.55-.14-.55.26v.37c.02.45.22.87.55 1.18l1.25 1zm-4-2.42l1.24-1c.33-.31.53-.73.56-1.18v-.42c0-.39-.25-.51-.55-.25L9 9.37c-.33.31-.53.73-.55 1.18v.37c0 .39.25.51.55.26zm.05-2.49L9.82 8H8.48v.39c.02.45.27.61.57.3zm-.99-.29v-.32l-1.16.07.6.51c.31.25.56.14.56-.26zm-.6 2.76c.3.27.55.15.56-.24v-.37c-.01-.45-.19-.88-.51-1.19L6.31 8.3a.746.746 0 00-.12-.07h-.38c-.04.08-.07.17-.07.26v.37c.01.45.2.88.52 1.19l1.2 1.11zM5.31 9v-.42c.01-.06.01-.13 0-.19h-.17c-.58.14-1.02.6-1.14 1.18-.06.3-.11.84-.17 1.38l1-.81c.29-.31.46-.71.48-1.14zm12.97 1.94c-.03-.39-.08-.78-.15-1.17a1.65 1.65 0 00-1.34-1.32v.42c.01.45.2.88.52 1.2l.97.87zm-3.78.24l1.24-1c.33-.31.53-.73.55-1.18v-.42c.02-.08.02-.16 0-.24l-.45-.05h-.06l-1.25 1c-.33.31-.53.73-.55 1.18v.37c-.04.47.21.59.52.34zm0 2.44l1.24-1c.33-.31.53-.73.55-1.18V11c0-.4-.25-.51-.55-.26l-1.25 1c-.34.33-.54.78-.55 1.26v.37c0 .39.25.51.56.25zm.04-4.93l.54-.47-1.08-.1v.32c0 .4.24.56.54.25zm-.99-.29v-.31c-.43 0-.87-.05-1.31-.06l.75.63c.31.25.56.14.56-.26zM13 11.16c.3.27.55.15.56-.24v-.37c-.02-.46-.22-.89-.56-1.19L11.8 8.3c-.3-.27-.56-.16-.57.24v.37c.01.45.2.88.52 1.19L13 11.16zM22 22v-1.66c0-1.93-1.28-3.62-3.13-4.15a.41.41 0 00.13-.33v-.37c-.01-.45-.2-.88-.52-1.19l-1.2-1.06c-.3-.26-.56-.15-.57.24v.37c.01.45.2.88.52 1.2l1.17 1c-.24-.04-.49-.07-.74-.07h-3l1.1-.92c.33-.31.53-.73.55-1.18v-.37c0-.4-.25-.51-.55-.26l-1.25 1c-.33.31-.52.73-.55 1.18v.37c0 .07.01.14.04.2h-.49a.33.33 0 000-.14v-.37c-.01-.45-.19-.88-.51-1.19l-1.2-1.06c-.3-.26-.56-.15-.57.24v.37c.01.45.2.88.52 1.2l1.09.95H9.15l1.1-.92c.33-.31.53-.73.55-1.18v-.37c0-.4-.25-.51-.55-.26L9 14.31c-.33.31-.52.73-.55 1.18v.37a.33.33 0 000 .14H8a.33.33 0 000-.14v-.37c-.01-.45-.19-.87-.51-1.19l-1.18-1.06c-.3-.26-.55-.15-.57.24v.37c.01.45.2.88.52 1.2l1.08.95h-3c-.26 0-.52.03-.77.08l1.19-1c.33-.31.53-.73.55-1.18v-.37c0-.4-.25-.51-.55-.26l-1.25 1c-.32.33-.5.76-.51 1.22v.37c-.01.13.04.26.14.34A4.326 4.326 0 000 20.34v17.32c0 1.88 1.21 3.54 3 4.11-.01.08-.01.15 0 .23v.37c.03.45.22.87.55 1.18l1.25 1c.3.26.55.14.55-.26v-.37c-.02-.45-.22-.87-.55-1.18l-1-.82c.18.03.37.05.56.06h2.8l-.91.79c-.33.33-.51.77-.52 1.23v.37c0 .39.27.5.57.24l1.21-1.06c.31-.32.49-.75.49-1.2V42h.43v.35c.03.45.24.87.57 1.18l1.25 1c.3.26.55.14.55-.26v-.37c-.02-.45-.22-.87-.55-1.18L9.34 42h3.31l-.91.79c-.32.32-.51.75-.52 1.2v.37c0 .39.27.5.57.24L13 43.54c.32-.31.51-.74.52-1.19V42h.43v.35c.03.45.22.87.55 1.18l1.25 1c.3.26.55.14.55-.26v-.37c-.02-.45-.22-.87-.55-1.18l-.92-.72h3.38l-.95.83c-.32.32-.51.75-.52 1.2v.37c0 .39.27.5.57.24l1.2-1.06c.32-.33.5-.77.49-1.23V42c.01-.06.01-.11 0-.17 1.78-.52 3-2.15 3-4V27h1v-5h-1zm-1 0v15.8a3.21 3.21 0 01-3.2 3.2H4.34A3.359 3.359 0 011 37.66V20.34c.01-1.84 1.5-3.33 3.34-3.34h13.32c1.84.01 3.33 1.5 3.34 3.34V22z" fill="#1d1d1f"/><path fill="none" d="M0 0h23v54H0z"/></g></g></svg>