<?xml version="1.0" encoding="UTF-8"?>
<svg id="Layer_1" data-name="Layer 1" xmlns="http://www.w3.org/2000/svg" viewBox="0 0 50 50">
  <defs>
    <style>
      .cls-1 {
        fill: #1d1d1f;
      }
    </style>
  </defs>
  <path class="cls-1" d="m25.22,46.18c-3.54.15-6.83-.79-9.96-2.36-.86-.43-1.3-.83-.34-1.73,2.01-1.88,3.95-3.83,5.84-5.83.79-.83,1.64-.93,2.62-.67,8.23,2.18,17.78-5.52,14.87-15.8-.51-1.8-1.18-2.01-2.49-.73-1.59,1.56-3.23,3.09-4.71,4.75-.98,1.1-2.07,1.64-3.5,1.39-1.05-.19-2.63.71-3-1.02-.4-1.86-1.39-3.83.48-5.58,1.84-1.73,3.58-3.57,5.38-5.34.74-.73.79-1.18-.35-1.46-8.56-2.08-15.03,2.73-16.24,11.31-.15,1.05.04,2.27.47,3.24.79,1.75-.04,2.73-1.19,3.81-1.68,1.57-3.29,3.23-4.9,4.88-.7.72-1.03.96-1.71-.19-3.76-6.51-3.21-16.04,1.29-22.18C12.21,6.61,18.19,3.73,25.59,3.78c10.63.08,20.02,9.05,20.38,19.29.18,5.15-.59,9.85-3.61,14.12-3.52,4.99-11.08,9.51-17.14,9h0Z"/>
</svg>