<!-- SpeedSize.com --><svg version="1.1" id="Layer_1" xmlns="http://www.w3.org/2000/svg" x="0" y="0" viewBox="0 0 35 54" xml:space="preserve"><style>.st0{fill-rule:evenodd;clip-rule:evenodd;fill:#333}</style><path class="st0" d="M34 39.6V46c0 1.6-1.3 3-3 3H4c-1.7 0-3-1.3-3-3v-6.4c.8.9 1.9 1.4 3 1.4h27c1.2 0 2.2-.5 3-1.4z"/><path class="st0" d="M33.9 36.1c0-.3-.1-.8-.2-.9l-1.8-7v-.1c-.2-1.2-1.2-2.1-2.5-2.1h-24c-1.2 0-2.3.9-2.5 2.1v.1l-1.8 7c0 .2-.2.7-.2.8 0 .2-.1.7-.1 1 0 1.6 1.4 3 3 3h27c1.7 0 3-1.3 3-3 .2-.1.2-.6.1-.9zm-20.7-4.5c-.1-.2.2-.5.4-.6.3-.2.7-.3 1.1-.3 0 .2-.1.4-.4.6-.3.2-.7.3-1 .3h-.1zm3 1.9c-.1.2-.3.4-.5.5-.3.3-.7.4-1.1.5-.2 0-.4 0-.6-.1-.2 0-.4-.1-.6-.1-.2 0-.4 0-.6.1-.2 0-.3.1-.5.1-.4 0-.8-.2-1.2-.5-.7-.5-1.1-1.3-.5-1.9.4-.3 1-.5 1.5-.5.2 0 .5 0 .8.1.1 0 .3.1.4.1.1 0 .3 0 .4-.1.3-.1.6-.1 1-.1h.1c.4 0 .9.1 1.2.4-.2.1-.7.3-.7.7 0 .5.7.7.9.8 0-.1 0-.1 0 0zm4.1-1.4h-1v1.5c0 .2.2.3.6.3h.4v.5h-.6c-1.1 0-1.5-.2-1.5-.8V32h-.8v-.5h.8V31h1.1v.7h1v.4zm3.5 2.3h-1.1l-2-2.8h1.2l1.4 2.1 1.4-2.1h1.2l-2.1 2.8z"/><path d="M0 0h35v54H0z" fill="none"/></svg>