<svg id="Layer_1" data-name="Layer 1" xmlns="http://www.w3.org/2000/svg" viewBox="0 0 150 150"><defs><style>.cls-1{fill:#333;}</style></defs><path class="cls-1" d="M101.8,72.15V67.94a10.83,10.83,0,0,0-3.56-8.2A9.17,9.17,0,0,1,97,58.25c-.5-.66-1.06-1.28-1.59-1.93a13.73,13.73,0,0,1-3.21-8,37.71,37.71,0,0,1-.07-4,11.32,11.32,0,0,0,0-2.47,3.61,3.61,0,0,0-2.81-2.69c-.45-.14-2.22-.26-2.92-.36a3.48,3.48,0,0,1-6.64-.57c-1.9-.08-3.77-.11-5.27-.11-1.21,0-2.65,0-4.14.07a3.48,3.48,0,0,1-6.7.47,17,17,0,0,0-2.69.5A3.69,3.69,0,0,0,58.16,42c-.27,1.31.34,7.69-1.92,11.55-.55.95-2.35,3.69-3.4,5.27a18.58,18.58,0,0,1-1.35,1.66A10.22,10.22,0,0,0,48.4,68v42c0,2.94.26,5.43,2.05,7.34.26.27.77,1,.87,1l2.77,3.07a16.43,16.43,0,0,1,2.08,3.2c2.26,3.87,1.65,10.29,1.92,11.6a3.62,3.62,0,0,0,2.81,2.69c.42.13,2.25.4,2.89.5a3.47,3.47,0,0,1,6.51.57c2,.09,4,.13,5.55.13,1.15,0,2.53,0,4-.07a3.47,3.47,0,0,1,6.61-.44,17.26,17.26,0,0,0,3-.53,3.7,3.7,0,0,0,2.8-2.77c.28-1.31-.34-7.69,1.92-11.55.79-1.37,4.21-6.48,4.21-6.48s.56-.88,1-1.35A11,11,0,0,0,101.8,110V84.28h2.43V72.15ZM83.18,44.7a3.5,3.5,0,1,1-3.49,3.49A3.49,3.49,0,0,1,83.18,44.7ZM75,39.55a3.5,3.5,0,1,1-3.49,3.5A3.49,3.49,0,0,1,75,39.55Zm0,10.5a3.5,3.5,0,1,1-3.49,3.5A3.49,3.49,0,0,1,75,50.05ZM66.94,44.7a3.5,3.5,0,1,1-3.49,3.49A3.49,3.49,0,0,1,66.94,44.7Zm0,89.09a3.5,3.5,0,1,1,3.49-3.49A3.49,3.49,0,0,1,66.94,133.79Zm8.17,5.15a3.5,3.5,0,1,1,3.49-3.5A3.5,3.5,0,0,1,75.11,138.94Zm0-10.5a3.5,3.5,0,1,1,3.49-3.5A3.49,3.49,0,0,1,75.11,128.44Zm8.07,5.35a3.5,3.5,0,1,1,3.49-3.49A3.49,3.49,0,0,1,83.18,133.79ZM99.37,110c0,4.36-3.18,8.26-7.2,8.26H58.28c-4,0-7.46-3.9-7.46-8.26V67.94A7.79,7.79,0,0,1,58.28,60H92.17c4,0,7.2,3.57,7.2,7.93Z"/></svg>