<svg id="Layer_1" data-name="Layer 1" xmlns="http://www.w3.org/2000/svg" viewBox="0 0 150 150"><defs><style>.cls-1{fill:#333;fill-rule:evenodd;}</style></defs><path class="cls-1" d="M136.3,105.47v23.64a11.11,11.11,0,0,1-11.07,11.08H25.51a10.89,10.89,0,0,1-11.08-11.08h0V105.47a15,15,0,0,0,11.08,5.17h99.72A14.37,14.37,0,0,0,136.3,105.47Z"/><path class="cls-1" d="M135.94,92.55a7.39,7.39,0,0,0-.74-3.33l-6.65-25.85V63h0a9.19,9.19,0,0,0-9.23-7.75H30.68A9.48,9.48,0,0,0,21.45,63v.37L14.8,89.22c0,.74-.74,2.59-.74,3,0,.73-.36,2.58-.36,3.69A11.36,11.36,0,0,0,24.77,107h99.72a10.89,10.89,0,0,0,11.08-11.08C136.3,95.5,136.3,93.65,135.94,92.55ZM59.49,75.93c-.37-.74.74-1.85,1.48-2.22h0A7.4,7.4,0,0,1,65,72.6h0a2.68,2.68,0,0,1-1.48,2.22,7.11,7.11,0,0,1-3.69,1.11Zm11.08,7a4.46,4.46,0,0,1-1.85,1.85,8.18,8.18,0,0,1-4.06,1.85,4.69,4.69,0,0,1-2.22-.37c-.73,0-1.47-.37-2.21-.37a4.69,4.69,0,0,0-2.22.37c-.74,0-1.11.37-1.84.37h0a7.69,7.69,0,0,1-4.44-1.85c-2.58-1.85-4.06-4.8-1.84-7a10,10,0,0,1,5.54-1.84,9.14,9.14,0,0,1,3,.37c.37,0,1.11.37,1.48.37a2.22,2.22,0,0,0,1.48-.37A11.31,11.31,0,0,1,65,75.93h.37a6.47,6.47,0,0,1,4.43,1.47h0c-.74.37-2.59,1.11-2.59,2.59,0,1.85,2.59,2.58,3.33,3Zm15.14-5.17H82v5.54c0,.74.74,1.11,2.21,1.11h1.48v1.85H83.49c-4.06,0-5.54-.74-5.54-3V77.4H75V75.56h3V73.71H82V76.3h3.69Zm12.93,8.5H94.57L87.19,75.93h4.43l5.17,7.75L102,75.93h4.43Z"/></svg>