<!-- SpeedSize.com --><svg id="Layer_1" data-name="Layer 1" xmlns="http://www.w3.org/2000/svg" viewBox="0 0 100 100"><defs><style>.cls-1{fill:#333}</style></defs><g id="Lvurcq.tif"><path class="cls-1" d="M62.07 79.4c-.16 4.56-1.38 5.83-5.75 7.07A34.08 34.08 0 0146 88.24h-3.39c-7.49-.59-15-1-22.4-2.52-3.4-.72-5.15-2.52-5.21-5.96-.24-7.52-.43-15.06.67-22.55.81-5.55 3.71-8 9.34-8.16a142.3 142.3 0 0118 .47c7.44.78 10.21 3.47 10.76 11A98.37 98.37 0 0152.53 82a7 7 0 01-2.38 4.27c3 .41 5.92-2 6.56-5.18a77.91 77.91 0 001.38-18.54 35.87 35.87 0 00-.4-5.16C56.28 50 52.78 46.67 45.23 45.91a111.69 111.69 0 00-21.71-.23c-1.15.11-1.3-.16-1.05-1.18a47.17 47.17 0 014.1-11.22c3.47-6.43 10.81-9.71 18.91-8.5 7.36 1.11 12.12 5.58 13.72 13 2.97 13.73 3.37 27.65 2.87 41.62z"/><path class="cls-1" d="M85.2 73.92C83.11 62.46 81 51 78.14 39.71 76.8 34.38 75.45 29 73.09 24c-1.35-2.87-3.1-3.6-6.18-2.78a13.2 13.2 0 00-4.84 2.66c-.49.39-.8 1.2-1.72.78s-.73-1.2-.77-1.93a21 21 0 00-1.27-6.89c-.76-1.86-1.9-3.58-4-3.79-6.6-.68-9.26-.78-12.5 5.83a34.27 34.27 0 00-1.29 3.47c.48 1.21 1.4.52 2.17.51 1.87.25 3-.25 3.63-2.35.8-2.69 2.78-3.45 6-2.92 1.53.26 2.59 2.11 2.78 4.52.1 1.31-.31 1.77-1.57 1.45a5.7 5.7 0 00-3.78 0l1.67.43c6.21 2.16 9.85 6.52 11.26 12.9a114.26 114.26 0 012.59 18.21c.54 9.48 1.37 19-.25 28.34 6.56-1.57 4.69-7.2 5.14-11.89 2.26 2 4.28 3.76 6.29 5.54A9.54 9.54 0 0079.13 78c2.46.9 6.5-1.75 6.07-4.08zM70.7 64c-.78-.56-.7-1.24-.76-2-.82-9.68-1.54-19.38-4-28.83a18.13 18.13 0 00-1.14-3.3 1.47 1.47 0 01.44-2c2-2 2.5-1.91 3.46.69A167 167 0 0177 64.13c.21 1.57.36 3.14.59 5.15-2.52-1.96-4.66-3.67-6.89-5.28z"/></g><rect x="18.78" y="79.15" width="9.22" height="3.85" rx="1.36" transform="rotate(7.91 23.403 81.002)" fill="#ccc"/></svg>