<?xml version="1.0" encoding="UTF-8"?>
<svg id="Layer_1" data-name="Layer 1" xmlns="http://www.w3.org/2000/svg" viewBox="0 0 52 22">
  <defs>
    <style>
      .cls-1 {
        fill: #1d1d1f;
      }
    </style>
  </defs>
  <path class="cls-1" d="m38.65,2c1.57,0,2.8.12,3.66.35.79.21,1.43.56,1.94,1.06.51.51.86,1.14,1.06,1.92.22.87.33,2.11.33,3.69v3.96c0,1.58-.11,2.83-.33,3.69-.2.78-.54,1.4-1.07,1.91-.5.51-1.12.86-1.91,1.06-.87.23-2.11.34-3.68.34H13.31c-1.58,0-2.82-.11-3.69-.34-.78-.2-1.42-.55-1.93-1.07-.5-.5-.85-1.13-1.06-1.92-.23-.86-.35-2.1-.35-3.68v-4.17c0-1.45.12-2.61.36-3.44.22-.78.58-1.42,1.08-1.94.51-.51,1.13-.86,1.91-1.07.85-.24,2.02-.36,3.47-.36h25.56m0-1H13.09c-1.55,0-2.79.13-3.74.39-.94.26-1.73.71-2.35,1.33-.62.65-1.07,1.44-1.33,2.37-.26.93-.39,2.17-.39,3.72v4.17c0,1.68.13,2.99.38,3.94.26.95.7,1.74,1.32,2.36.64.64,1.43,1.08,2.39,1.33.95.25,2.26.37,3.94.37h25.35c1.66,0,2.97-.12,3.93-.37.96-.25,1.75-.69,2.37-1.33.64-.62,1.08-1.41,1.32-2.36.24-.95.36-2.26.36-3.94v-3.96c0-1.68-.12-2.99-.36-3.94-.24-.95-.68-1.75-1.32-2.39-.64-.62-1.43-1.06-2.39-1.32-.95-.26-2.26-.38-3.92-.38h0Z"/>
  <path class="cls-1" d="m12.81,18.72h26.3c2.06,0,3.44-.36,4.15-1.09.74-.74,1.11-2.13,1.11-4.17v-4.92c0-1.06-.09-1.93-.27-2.6-.18-.67-.45-1.19-.82-1.58-.75-.72-2.14-1.09-4.17-1.09H13c-1.16,0-2.1.09-2.8.27-.7.18-1.22.45-1.57.82-.37.38-.64.92-.82,1.62-.18.7-.27,1.62-.27,2.77v4.71c0,1.08.09,1.95.27,2.62.18.67.45,1.19.82,1.55.75.72,2.14,1.09,4.17,1.09Z"/>
  <path class="cls-1" d="m48,14.62c.37-.01.75-.18,1.15-.49.4-.31.74-.73,1.02-1.27.28-.53.43-1.15.43-1.86s-.14-1.33-.43-1.86c-.28-.53-.62-.95-1.02-1.27-.4-.31-.78-.48-1.15-.49v7.24Z"/>
</svg>