<!-- SpeedSize.com --><svg xmlns="http://www.w3.org/2000/svg" viewBox="0 0 17 54"><path d="M0 0h17v54H0z" fill="none"/><path d="M12.3 34.7c0 .1.1.2.1.4.1.1.1.3.2.4.1.3.3.5.5.8.2.3.4.6.6.8l.3.5c.1.2.2.3.3.4.4.6.7 1.2.9 1.9.2.7.3 1.4.3 2.1 0 3.9-3.2 7-7.1 7-3.9 0-7-3.2-7-7 0-.7.1-1.4.3-2.1.3-.7.6-1.3 1-1.9l.3-.5.3-.5c.2-.3.4-.6.6-.8.2-.3.3-.5.5-.8l.1-.4.2-.4c-4 2.1-5.6 7.1-3.5 11.1s7.1 5.6 11.1 3.5c2.7-1.4 4.4-4.2 4.4-7.3.1-3-1.6-5.8-4.4-7.2z" fill="#fff"/><path d="M13.6 38.5c-.3-.4-.6-.8-.9-1.3-.3-.4-.6-.9-.8-1.3-.2-.4-.3-.7-.5-1.1-.1-.5-.2-1-.2-1.5V20.9c0-1.8-.1-3.7-.1-3.8-1.7-.4-3.5-.4-5.2 0-.1 1.3-.2 2.5-.1 3.8v12.4c0 .5 0 1-.2 1.5-.1.4-.3.8-.5 1.1-.2.5-.5.9-.8 1.3-.3.5-.6.9-.9 1.3-.3.5-.6 1.1-.8 1.6-.2.6-.4 1.2-.4 1.9 0 3.4 2.8 6.2 6.2 6.2 3.4 0 6.2-2.8 6.2-6.2 0-.6-.1-1.3-.3-1.9 0-.6-.3-1.1-.7-1.6zm-5.1 7.7c-2.3 0-4.2-1.9-4.3-4.2 0-1.5.8-2.9 2.1-3.7v3.6c0 .2 0 .3.1.5 0 .2.1.3.2.5s.1.3.2.4c.2.3.5.5.8.6.3.1.6.2.9.2.4 0 .8-.1 1.2-.4.4-.2.6-.6.8-1 .2-.4.2-.8.1-1.2-.1-.4-.3-.8-.6-1.1-.2-.2-.4-.3-.7-.4-.2-.1-.5-.2-.7-.2-.2 0-.5.1-.7.2-.2.1-.5.2-.6.4V38c.2-.1.4-.1.6-.2.2 0 .4-.1.7-.1 2.3 0 4.2 1.9 4.2 4.2s-1.9 4.4-4.3 4.3zM7.3 42c0-.7.6-1.3 1.3-1.3.3 0 .7.1.9.4.2.2.4.6.4.9 0 .3-.1.7-.4.9-.2.2-.6.4-.9.4-.8 0-1.3-.6-1.3-1.3z" fill="#333"/></svg>