<?xml version="1.0" encoding="UTF-8"?>
<svg id="Layer_1" data-name="Layer 1" xmlns="http://www.w3.org/2000/svg" viewBox="0 0 200 200">
  <defs>
    <style>
      .cls-2 {
        fill: #06c;
      }
    </style>
  </defs>
  <g id="Regular-S">
    <path class="cls-2" d="m99.84,14C52.95,14,13.95,53,13.95,100s39.11,86,86,86,86.1-39,86.1-86S146.84,14,99.84,14Zm.11,38.15c16.09,0,28.77,13.96,28.77,30.91,0,18.01-12.68,31.75-28.77,31.54-16.1-.21-28.78-13.53-28.78-31.54-.1-16.95,12.68-30.91,28.78-30.91Zm0,119.46c-18.23,0-37.41-7.35-50.41-20.99,8.95-13.96,28.03-21.95,50.41-21.95s41.34,7.88,50.4,21.95c-13,13.64-32.18,20.99-50.4,20.99Z"/>
  </g>
</svg>