<?xml version="1.0" encoding="UTF-8"?>
<svg id="Layer_1" data-name="Layer 1" xmlns="http://www.w3.org/2000/svg" viewBox="0 0 200 200">
  <defs>
    <style>
      .cls-2 {
        fill: #06c;
      }
    </style>
  </defs>
  <g id="Regular-S">
    <path class="cls-2" d="m99.84,14C52.95,14,13.95,53,13.95,100s39.11,86,86,86,86.1-39,86.1-86S146.84,14,99.84,14Zm-23.02,124.15c0,3.52-2.24,6.08-5.65,6.08s-5.96-2.46-5.96-5.97v-70.87c0-4.8,3.09-7.78,7.78-7.78h17.69c15.13,0,22.59,7.14,22.59,23.45v31.22c0,3.62-2.24,5.97-5.65,5.97s-5.86-2.35-5.86-5.97v-29.52c0-10.02-4.26-12.57-14.07-12.57h-10.87v65.96Zm54.78-20.25c0,18.23-6.29,25.37-21.42,25.37h-18.97c-4.58,0-7.46-2.99-7.46-7.68v-47.1c0-3.62,2.45-5.97,5.86-5.97s5.65,2.35,5.65,5.97v42.2h12.36c9.8,0,12.47-1.7,12.47-12.79v-53.39c0-3.62,2.34-6.07,5.86-6.07s5.65,2.56,5.65,6.07v53.39Z"/>
  </g>
</svg>