<?xml version="1.0" encoding="UTF-8"?>
<svg id="Layer_1" data-name="Layer 1" xmlns="http://www.w3.org/2000/svg" viewBox="0 0 200 200">
  <defs>
    <style>
      .cls-2 {
        fill: #06c;
      }
    </style>
  </defs>
  <path class="cls-2" d="m186,100c0,47.49-38.51,86-86,86-15.58,0-30.2-4.14-42.8-11.39,7.42-9.7,17.02-20.93,29.91-34.15,17.92,8.33,39.37,5.51,53.64-8.78,15.24-15.05,17.67-39.19,5.96-58.73l-8.89,8.98s.02.05.02.07l-14.02,13.93c-1.89,1.89-4.6,2.1-6.81,0l-10.03-10.22c-2.19-2.29-2.4-4.92-.51-6.78l14-13.92,1.34-1.35h.02l7.62-7.64c-19.33-11.71-43.26-9.29-58.41,5.97-14.32,14.21-17.13,35.69-8.83,53.58-13.57,13.21-25.04,22.96-34.89,30.45-8.44-13.31-13.33-29.08-13.33-46.01C14,52.51,52.51,14,100,14s86,38.51,86,86Z"/>
</svg>