<?xml version="1.0" encoding="UTF-8"?>
<svg id="Layer_1" data-name="Layer 1" xmlns="http://www.w3.org/2000/svg" viewBox="0 0 200 200">
  <defs>
    <style>
      .cls-2 {
        fill: #06c;
      }
    </style>
  </defs>
  <g id="Regular-S">
    <path class="cls-2" d="m28.03,114.05c0,32.23,17.31,44.32,66.2,71.21,2.4,1.31,4.57,1.74,5.77,1.74s3.38-.44,5.77-1.74c48.89-26.79,66.2-38.98,66.2-71.21V48.5c0-8.93-4.25-11.65-11-14.59-8.82-3.81-44.86-16.55-53.68-19.6-2.29-.76-4.79-1.31-7.3-1.31s-5.12.76-7.3,1.31c-8.82,2.18-44.86,15.9-53.68,19.6-6.75,2.83-11,5.66-11,14.59v65.55Zm15.46-3.81v-12.52h56.51V28.79c.87,0,1.85.11,2.94.54,13.83,5.55,37.02,13.72,51.29,18.51,1.85.65,2.18,1.63,2.18,3.59v46.28h-56.4v71.43c-1.31,0-2.61-.33-5.55-1.96-39.31-23.52-50.96-30.49-50.96-56.95Z"/>
  </g>
</svg>