<?xml version="1.0" encoding="UTF-8"?>
<svg id="Layer_1" data-name="Layer 1" xmlns="http://www.w3.org/2000/svg" viewBox="0 0 200 200">
  <defs>
    <style>
      .cls-2 {
        fill: #06c;
      }
    </style>
  </defs>
  <path class="cls-2" d="m17.48,140.6v-52.3c21.63,7.98,41.84,11.88,62.76,13.3v5.85c0,5.32,3.01,8.33,8.15,8.33h23.22c5.14,0,8.15-3.01,8.15-8.33v-5.85c20.74-1.42,41.13-5.32,62.76-13.3v52.3c0,15.6-7.98,23.4-23.76,23.4H41.05c-15.78,0-23.58-7.8-23.58-23.4Zm0-65.95v-4.25c0-15.6,7.8-23.4,23.58-23.4h14v-6.03c0-11.7,7.8-18.97,19.68-18.97h50.35c12.05,0,19.68,7.27,19.68,18.97v6.03h14c15.78,0,23.76,7.8,23.76,23.4v4.25c-27.3,11.35-53.89,15.25-82.61,15.25s-55.13-3.9-82.43-15.25Zm52.83-27.66h59.39v-5.14c0-3.37-2.3-5.5-5.85-5.5h-47.87c-3.55,0-5.67,2.13-5.67,5.5v5.14Z"/>
</svg>