<?xml version="1.0" encoding="UTF-8"?>
<svg id="Layer_1" data-name="Layer 1" xmlns="http://www.w3.org/2000/svg" viewBox="0 0 200 200">
  <defs>
    <style>
      .cls-2 {
        fill: #06c;
      }
    </style>
  </defs>
  <g id="Regular-S">
    <path class="cls-2" d="m99.84,14C52.95,14,13.95,53,13.95,100s39.11,86,86,86,86.1-39,86.1-86S146.84,14,99.84,14Zm39.32,100.92c0,12.89-15.45,22.8-39.32,22.8-11.51,0-21.21-2.23-27.92-6.39v2.98c1.7.86,2.88,2.67,2.88,5.01v8.32c0,3.3-2.13,5.43-5.44,5.43h-1.06c-3.31,0-5.44-2.13-5.44-5.43v-8.32c0-2.45,1.17-4.26,3.09-5.01v-7.67c-3.52-3.73-5.43-8.2-5.43-11.72v-13.21l5.43,2.45v22.48c1.6,1.71,3.52,3.31,5.97,4.69v-24.4l14.71,6.82c4.79,2.24,9.27,3.3,13.21,3.19,4.05.11,8.53-.95,13.32-3.19l26-12.04v13.21Zm10.23-24.4l-38.79,17.79c-4.05,1.81-7.35,2.77-10.76,2.67-3.3.1-6.61-.86-10.76-2.67l-16.95-7.88,24.3-11.09c1.17.32,2.45.43,3.62.43,4.37,0,8.74-1.92,8.74-4.8s-4.37-4.58-8.74-4.58-8.74,1.81-8.74,4.58c0,.22,0,.54.11.75l-25.79,11.72-15.24-6.92c-2.77-1.28-4.05-3.41-4.05-5.55,0-2.02,1.28-4.37,4.05-5.64l38.69-17.69c4.15-1.82,7.46-2.77,10.76-2.67,3.41-.1,6.71.85,10.76,2.67l38.79,17.69c2.77,1.27,4.05,3.62,4.05,5.64,0,2.14-1.28,4.27-4.05,5.55Z"/>
  </g>
</svg>