<?xml version="1.0" encoding="UTF-8"?>
<svg id="Layer_1" data-name="Layer 1" xmlns="http://www.w3.org/2000/svg" viewBox="0 0 200 200">
  <defs>
    <style>
      .cls-2 {
        fill: #06c;
      }
    </style>
  </defs>
  <g id="Regular-S">
    <path class="cls-2" d="m15.56,141.84c0,11.31,5.94,17.25,17.25,17.25h4.49c-.08-.96-.16-2.09-.16-3.13,0-14.2,11.55-25.75,25.75-25.75s25.83,11.55,25.83,25.75c0,1.04-.08,2.17-.24,3.13h38.83c-.16-1.04-.24-2.17-.24-3.21,0-6.98,2.49-13.32,6.98-17.89V58.4c0-11.39-5.86-17.25-17.25-17.25h-46.53c2.41,5.21,3.77,11.07,3.77,17.25,0,22.7-18.93,41.72-41.72,41.72-5.94,0-11.63-1.28-16.77-3.53v45.25Zm127.88-66.11v56.16c2.81-1.12,5.86-1.76,9.07-1.76,14.28,0,26.15,11.55,26.15,25.75,0,1.04-.08,2.17-.24,3.21h4.41c11.31,0,17.17-5.94,17.17-17.25v-22.54c0-6.66-.88-9.39-4.57-13.56l-21.42-24.15c-3.93-4.41-8.1-5.86-14.52-5.86h-16.04Zm9.39,98.2c10.03,0,17.97-8.02,17.97-18.05s-8.02-17.97-17.97-17.97-17.89,8.1-17.89,17.97,8.02,18.05,17.89,18.05Zm-89.93,0c9.95,0,17.97-8.02,17.97-17.97s-8.1-17.97-17.97-17.97-17.97,8.1-17.97,17.97,8.1,17.97,17.97,17.97Zm97.79-57.36c-3.93,0-6.26-2.33-6.26-6.26v-22.62h4.41c2.89,0,4.89.4,7.54,3.37l19.25,21.58c.96,1.12,1.69,2.49,2.01,3.93h-26.96Z"/>
    <path class="cls-2" d="m32.33,26.07C14.6,26.07,0,40.67,0,58.4s14.6,32.33,32.33,32.33,32.41-14.68,32.41-32.33-14.68-32.33-32.41-32.33Zm4.57,33.21c0,2.33-1.84,4.1-4.17,4.1h-15.09c-2.4,0-4.24-1.84-4.24-4.1s1.91-4.17,4.24-4.17h10.83v-15c0-2.24,1.93-4.09,4.26-4.09s4.17,1.84,4.17,4.09v19.17Z"/>
  </g>
</svg>