<?xml version="1.0" encoding="UTF-8"?>
<svg id="Layer_1" data-name="Layer 1" xmlns="http://www.w3.org/2000/svg" viewBox="0 0 200 200">
  <defs>
    <style>
      .cls-2 {
        fill: #06c;
      }
    </style>
  </defs>
  <g id="Regular-S">
    <path class="cls-2" d="m99.84,14C52.95,14,13.95,53,13.95,100s39.11,86,86,86,86.1-39,86.1-86S146.84,14,99.84,14Zm39,96.55h-18.54c-2.24,0-2.88.32-4.26,1.81l-31.33,34c-1.07,1.28-2.56,2.02-4.16,2.02h-5.43c-1.92,0-3.09-1.92-2.24-3.83l15.45-34.21-20.89-2.45-8.1,14.81c-.85,1.38-2.13,2.13-4.05,2.13h-2.02c-1.81,0-2.98-1.17-2.98-2.98v-43.48c0-1.81,1.17-2.99,2.98-2.99h2.02c1.92,0,3.2.64,4.05,2.13l8.1,14.82,20.89-2.45-15.45-34.21c-.85-2.03.32-3.84,2.24-3.84h5.43c1.6,0,3.09.75,4.16,2.03l31.33,33.99c1.38,1.49,2.02,1.81,4.26,1.81h18.54c9.59,0,17.37,4.48,17.37,10.45s-7.78,10.44-17.37,10.44Z"/>
  </g>
</svg>