<svg id="Layer_1" data-name="Layer 1" xmlns="http://www.w3.org/2000/svg" viewBox="0 0 780.4 107.7"><defs><style>.cls-1{fill:#cf122e;}.cls-2{fill:#1d1d1b;}.cls-3{fill:#1b181b;}</style></defs><path class="cls-1" d="M294.8,53.5a41.5,41.5,0,0,1,2-12.9,31.76,31.76,0,0,1,5.9-10.5,26.72,26.72,0,0,1,9.5-7,30.33,30.33,0,0,1,12.7-2.6,27.65,27.65,0,0,1,9.6,1.5,25.53,25.53,0,0,1,6.8,3.6,18.09,18.09,0,0,1,4.5,4.7,23.78,23.78,0,0,1,2.7,4.8,35.39,35.39,0,0,1,1.3,3.9c.2,1.1.4,1.7.4,1.8h-3.9a18.31,18.31,0,0,0-2.6-7.1,17.74,17.74,0,0,0-4.9-5.3,21.21,21.21,0,0,0-6.5-3.4,23.7,23.7,0,0,0-7.6-1.1,24.38,24.38,0,0,0-19.2,8.8,29.37,29.37,0,0,0-5.1,9.4,37.64,37.64,0,0,0,0,23,29.37,29.37,0,0,0,5.1,9.4,24.38,24.38,0,0,0,19.2,8.8,19.33,19.33,0,0,0,8.6-1.9,23.51,23.51,0,0,0,7-5,25.3,25.3,0,0,0,6.9-15.7h3.9a32,32,0,0,1-2.8,10.4,30.58,30.58,0,0,1-5.7,8.3,25,25,0,0,1-17.9,7.3A30.66,30.66,0,0,1,312,84.1a27.64,27.64,0,0,1-9.5-7,31.76,31.76,0,0,1-5.9-10.5A51.14,51.14,0,0,1,294.8,53.5Z"/><path class="cls-1" d="M387.8,76h-.2a12.48,12.48,0,0,1-2.3,3.8,14.49,14.49,0,0,1-3.7,3.2,18.27,18.27,0,0,1-4.9,2.2,22.33,22.33,0,0,1-6,.8c-4.8,0-8.6-1-11.2-3.1s-4-5.3-4-9.7a11.83,11.83,0,0,1,1.6-6.5,12.73,12.73,0,0,1,4-4,16,16,0,0,1,5.4-2.1q3-.6,5.7-.9l5.2-.4a45.69,45.69,0,0,0,5.7-.8,6.94,6.94,0,0,0,3.1-1.6,4.61,4.61,0,0,0,1.3-2.6,22.51,22.51,0,0,0,.3-4,7.67,7.67,0,0,0-.7-3.4,7.41,7.41,0,0,0-2.2-2.8,10.16,10.16,0,0,0-3.9-1.9,19.59,19.59,0,0,0-5.8-.7c-4.1,0-7.3,1-9.8,3s-3.9,5-4.1,9.1H358c.2-5,1.8-8.8,4.8-11.3s7.2-3.8,12.7-3.8,9.5,1.1,12,3.2a10.6,10.6,0,0,1,3.8,8.4V78.4a5.66,5.66,0,0,0,.3,1.8,3,3,0,0,0,.9,1.3,3,3,0,0,0,1.8.5,14.87,14.87,0,0,0,2.5-.3v2.8a12.59,12.59,0,0,1-2.7.4,8.92,8.92,0,0,1-3.2-.5,4.36,4.36,0,0,1-1.8-1.4,4.85,4.85,0,0,1-.8-2.1,21.12,21.12,0,0,1-.2-2.6V76Zm0-16.7a6.08,6.08,0,0,1-3.8,2,41.85,41.85,0,0,1-5.6.8l-5.7.5a41.66,41.66,0,0,0-4.9.8,17.21,17.21,0,0,0-4.5,1.6,9.49,9.49,0,0,0-3.2,3.1,9.76,9.76,0,0,0-1.2,5.2c0,3.4,1.1,5.8,3.2,7.5s5,2.4,8.7,2.4,6.9-.7,9.1-2.1a16.89,16.89,0,0,0,5.1-4.8,15.68,15.68,0,0,0,2.3-5.2,27.06,27.06,0,0,0,.5-3.4Z"/><path class="cls-1" d="M405.2,49.7h.3a10.89,10.89,0,0,1,2.3-4.2,16.72,16.72,0,0,1,4-3.4,22,22,0,0,1,5.2-2.2,23.49,23.49,0,0,1,6-.7v3.4a16.57,16.57,0,0,0-6.1.5,14.9,14.9,0,0,0-6.5,3.9c-.8.9-1.5,1.7-2.2,2.6a11.74,11.74,0,0,0-1.5,2.7,23.15,23.15,0,0,0-1,3.4,26.49,26.49,0,0,0-.4,4.4V84.9h-3.4V39.7h3.4l-.1,10Z"/><path class="cls-1" d="M426.6,62.8v.5a27.38,27.38,0,0,0,1.1,7.6,22.37,22.37,0,0,0,3.1,6.4,14.48,14.48,0,0,0,5.2,4.3,15.4,15.4,0,0,0,7.3,1.6q6.75,0,10.8-3.6a18.51,18.51,0,0,0,5.5-9.9H463c-1,5.3-3.2,9.4-6.5,12.2s-7.7,4.2-13.2,4.2a20,20,0,0,1-8.8-1.8,19.12,19.12,0,0,1-6.3-4.9,22.55,22.55,0,0,1-3.8-7.4,34.1,34.1,0,0,1-1.2-9.2,30.35,30.35,0,0,1,1.3-9.1,24.11,24.11,0,0,1,3.8-7.7,18.4,18.4,0,0,1,6.4-5.3,20,20,0,0,1,9.1-2,18.56,18.56,0,0,1,8.4,1.8,18.08,18.08,0,0,1,6.1,4.8,23,23,0,0,1,3.8,7.1,27.15,27.15,0,0,1,1.3,8.6v1.9l-36.8-.1ZM460,59.9a26.3,26.3,0,0,0-1.2-7,17.89,17.89,0,0,0-3.1-5.8,16.07,16.07,0,0,0-5-4,14.8,14.8,0,0,0-6.8-1.5,16.55,16.55,0,0,0-7.2,1.5,15,15,0,0,0-5.2,4.1,18.8,18.8,0,0,0-3.3,5.9,26.44,26.44,0,0,0-1.4,6.9H460Z"/><path class="cls-2" d="M84.4,22h3.4v9.1H84.4Zm0,17.6h3.4V85H84.4Z"/><path class="cls-2" d="M140.2,40a17.27,17.27,0,0,0-1.7-7.1,13.57,13.57,0,0,0-4.2-5,16.73,16.73,0,0,0-6.3-3,28.74,28.74,0,0,0-8-1,29.1,29.1,0,0,0-5.7.6,17.3,17.3,0,0,0-5.7,2.2,12.33,12.33,0,0,0-4.3,4.2,11.84,11.84,0,0,0-1.7,6.5,9.56,9.56,0,0,0,1.9,6.2,12.47,12.47,0,0,0,4.9,3.8,26.63,26.63,0,0,0,6.9,2.3c2.6.6,5.2,1.1,7.9,1.7s5.3,1.2,7.9,1.9a24,24,0,0,1,6.9,3,15.29,15.29,0,0,1,4.9,4.9,14.75,14.75,0,0,1,1.9,7.6,15.26,15.26,0,0,1-2.1,8.3,18.56,18.56,0,0,1-5.3,5.5,22,22,0,0,1-7.2,3,33.53,33.53,0,0,1-7.6.9,43,43,0,0,1-10.4-1.2,23.68,23.68,0,0,1-8.5-3.9A19.23,19.23,0,0,1,99,74.5a23.1,23.1,0,0,1-2-10.3h3.9a17.18,17.18,0,0,0,1.5,8.8,16.52,16.52,0,0,0,4.9,5.9,20.88,20.88,0,0,0,7.4,3.3,36.79,36.79,0,0,0,8.9,1,27.2,27.2,0,0,0,6.1-.7,20.34,20.34,0,0,0,5.9-2.4,14.52,14.52,0,0,0,4.5-4.4,12.2,12.2,0,0,0,1.8-6.9,10.25,10.25,0,0,0-1.9-6.5,14.15,14.15,0,0,0-4.9-4.1,31,31,0,0,0-6.9-2.5c-2.6-.6-5.2-1.2-7.9-1.7a69.91,69.91,0,0,1-7.9-1.9,27,27,0,0,1-6.9-2.9,15.71,15.71,0,0,1-4.9-4.7,13.75,13.75,0,0,1-1.9-7.4,14.43,14.43,0,0,1,1.9-7.7,16.28,16.28,0,0,1,4.9-5.2,21.84,21.84,0,0,1,6.8-2.9,32,32,0,0,1,7.5-.9,38,38,0,0,1,9.2,1.1,21.52,21.52,0,0,1,7.5,3.4,17.12,17.12,0,0,1,5.2,6.1,21.6,21.6,0,0,1,2.2,8.9l-3.7.1Z"/><path class="cls-2" d="M170.4,42.6h-9.9V74.3a12.3,12.3,0,0,0,.6,4.3A4.22,4.22,0,0,0,163,81a6.33,6.33,0,0,0,3.1,1c1.2.1,2.6.1,4.2.1V85a41.69,41.69,0,0,1-5,0,10.29,10.29,0,0,1-4.3-1.3,8.08,8.08,0,0,1-3-3.3,13.31,13.31,0,0,1-.9-6.1V42.6h-8.4V39.7h8.4V25.5h3.4V39.6h9.9Z"/><path class="cls-2" d="M173.3,62.3a29.9,29.9,0,0,1,1.4-9.1,24,24,0,0,1,4-7.6,19.43,19.43,0,0,1,6.5-5.2,19.72,19.72,0,0,1,8.9-1.9,19.43,19.43,0,0,1,8.9,1.9,18.49,18.49,0,0,1,6.5,5.2,22.11,22.11,0,0,1,4,7.6,30.39,30.39,0,0,1,1.4,9.1,31,31,0,0,1-1.4,9.2,24,24,0,0,1-4,7.6,18,18,0,0,1-6.5,5.1,19.72,19.72,0,0,1-8.9,1.9,19.25,19.25,0,0,1-15.4-7,21.24,21.24,0,0,1-4-7.6,27.31,27.31,0,0,1-1.4-9.2m3.3,0a28.82,28.82,0,0,0,1.1,7.8,22.28,22.28,0,0,0,3.4,6.7,16.32,16.32,0,0,0,5.5,4.6,17.39,17.39,0,0,0,15,0,16.32,16.32,0,0,0,5.5-4.6,21.16,21.16,0,0,0,3.4-6.7,25.37,25.37,0,0,0,1.1-7.8,28.82,28.82,0,0,0-1.1-7.8,22.28,22.28,0,0,0-3.4-6.7,16.32,16.32,0,0,0-5.5-4.6,17.39,17.39,0,0,0-15,0,16.32,16.32,0,0,0-5.5,4.6,21.16,21.16,0,0,0-3.4,6.7,28.82,28.82,0,0,0-1.1,7.8"/><path class="cls-2" d="M226.2,49.7h.3a10.89,10.89,0,0,1,2.3-4.2,16.72,16.72,0,0,1,4-3.4,22,22,0,0,1,5.2-2.2,23.49,23.49,0,0,1,6-.7v3.4a16.57,16.57,0,0,0-6.1.5,14.9,14.9,0,0,0-6.5,3.9c-.8.9-1.5,1.7-2.2,2.6a11.74,11.74,0,0,0-1.5,2.7,23.15,23.15,0,0,0-1,3.4,26.49,26.49,0,0,0-.4,4.4V84.9h-3.4V39.6h3.4V49.7Z"/><path class="cls-2" d="M247.6,62.8v.5a27.38,27.38,0,0,0,1.1,7.6,22.37,22.37,0,0,0,3.1,6.4,14.48,14.48,0,0,0,5.2,4.3,15.4,15.4,0,0,0,7.3,1.6q6.75,0,10.8-3.6a18.51,18.51,0,0,0,5.5-9.9H284c-1,5.3-3.2,9.4-6.5,12.2s-7.7,4.2-13.2,4.2a20,20,0,0,1-8.8-1.8,19.12,19.12,0,0,1-6.3-4.9,22.55,22.55,0,0,1-3.8-7.4,34.1,34.1,0,0,1-1.2-9.2,30.35,30.35,0,0,1,1.3-9.1,24.11,24.11,0,0,1,3.8-7.7,18.4,18.4,0,0,1,6.4-5.3,20,20,0,0,1,9.1-2,18.56,18.56,0,0,1,8.4,1.8,18.08,18.08,0,0,1,6.1,4.8,23,23,0,0,1,3.8,7.1,27.15,27.15,0,0,1,1.3,8.6v1.9l-36.8-.1ZM281,59.9a26.3,26.3,0,0,0-1.2-7,17.89,17.89,0,0,0-3.1-5.8,16.07,16.07,0,0,0-5-4,14.8,14.8,0,0,0-6.8-1.5,16.55,16.55,0,0,0-7.2,1.5,15,15,0,0,0-5.2,4.1,18.8,18.8,0,0,0-3.3,5.9,26.44,26.44,0,0,0-1.4,6.9H281Z"/><rect class="cls-1" y="19.3" width="68.2" height="68.2"/><path class="cls-3" d="M599.1,71.9a33.14,33.14,0,0,1-4,8.2c-2.4,3.5-4.9,7-8.8,7.1s-5.1-2.3-9.5-2.3-5.8,2.2-9.4,2.4c-3.8.1-6.7-3.8-9.1-7.3-4.9-7.1-8.7-20.2-3.6-29a14,14,0,0,1,11.9-7.2c3.7-.1,7.2,2.5,9.5,2.5s6.5-3.1,11-2.6a13.61,13.61,0,0,1,10.5,5.7c-.3.2-6.3,3.7-6.2,10.9a12.43,12.43,0,0,0,7.7,11.6m-15-33a12.53,12.53,0,0,0,3-9.2,12.68,12.68,0,0,0-8.5,4.4c-1.9,2.2-3.5,5.6-3.1,8.9a11,11,0,0,0,8.6-4.1"/><path class="cls-3" d="M625.1,55.4h-6.2l-1.5,4.4h-2.6l5.9-16.4h2.7l5.9,16.4h-2.7Zm-5.6-2h4.9L622,46.2h-.1Z"/><path class="cls-3" d="M640.8,59.8h-2.3V57.7h-.1a3.82,3.82,0,0,1-3.7,2.2c-2.6,0-4.2-1.7-4.2-4.4V47.8h2.4V55c0,1.8.9,2.8,2.6,2.8s2.8-1.2,2.8-3.1V47.8h2.4v12Z"/><path class="cls-3" d="M646.7,45.1v2.8H649v1.9h-2.3v6.6a1.33,1.33,0,0,0,1.5,1.5,2,2,0,0,0,.8-.1v1.9a5.31,5.31,0,0,1-1.4.1c-2.4,0-3.4-.9-3.4-3.2V49.8h-1.7V47.9h1.7V45.1Z"/><path class="cls-3" d="M651.4,43.5h2.4V50h.1a4,4,0,0,1,3.8-2.2c2.6,0,4.2,1.7,4.2,4.4v7.6h-2.5V52.7c0-1.8-.9-2.8-2.6-2.8a2.79,2.79,0,0,0-2.9,3.1v6.8h-2.4V43.5Z"/><path class="cls-3" d="M664,53.9c0-3.8,2.2-6.1,5.7-6.1s5.7,2.4,5.7,6.1-2.2,6.1-5.7,6.1-5.7-2.4-5.7-6.1m8.8,0c0-2.6-1.2-4.1-3.2-4.1s-3.2,1.5-3.2,4.1,1.2,4.1,3.2,4.1,3.2-1.5,3.2-4.1"/><path class="cls-3" d="M677.6,47.9h2.3v2h.1a3,3,0,0,1,2.9-2.2,2,2,0,0,1,.8.1v2.3a3.11,3.11,0,0,0-1.1-.1,2.49,2.49,0,0,0-2.6,2.7v7.1h-2.4Z"/><path class="cls-3" d="M685.4,44.8a1.4,1.4,0,1,1,1.4,1.4,1.51,1.51,0,0,1-1.4-1.4m.2,3.1H688V59.8h-2.4Z"/><polygon class="cls-3" points="690.7 58.3 697 49.9 697 49.9 690.7 49.9 690.7 47.9 699.9 47.9 699.9 49.6 693.7 57.8 693.7 57.9 699.9 57.9 699.9 59.8 690.7 59.8 690.7 58.3"/><path class="cls-3" d="M712.1,56.3c-.3,2.2-2.4,3.6-5.1,3.6-3.5,0-5.6-2.3-5.6-6.1s2.2-6.2,5.5-6.2,5.4,2.3,5.4,5.9v.8h-8.4v.1a3.15,3.15,0,0,0,3.2,3.4,2.72,2.72,0,0,0,2.8-1.7h2.2Zm-8.3-3.5h6a2.87,2.87,0,0,0-2.9-3,3.09,3.09,0,0,0-3.1,3"/><path class="cls-3" d="M714,53.9c0-3.7,2-6.1,5-6.1a3.91,3.91,0,0,1,3.7,2.1h0V43.5h2.5V59.9h-2.4v-2h0a4.07,4.07,0,0,1-3.8,2.2c-3-.1-5-2.5-5-6.2m2.5,0c0,2.4,1.2,4,3.2,4s3.1-1.6,3.1-4-1.3-4-3.1-4c-2,0-3.2,1.6-3.2,4"/><path class="cls-3" d="M616.8,82.4c.2,1.6,1.8,2.7,3.9,2.7s3.5-1.1,3.5-2.5-.9-2-3-2.6l-2.1-.5c-3-.7-4.4-2.1-4.4-4.4,0-2.8,2.5-4.8,6-4.8s5.8,1.9,5.9,4.8h-2.5c-.1-1.6-1.5-2.6-3.5-2.6s-3.3,1-3.3,2.4c0,1.2.9,1.8,3,2.4l1.8.4c3.4.8,4.8,2.1,4.8,4.5,0,3.1-2.4,5-6.3,5-3.6,0-6.1-1.9-6.2-4.8Z"/><path class="cls-3" d="M639.2,83.4c-.3,2.2-2.4,3.7-5.1,3.7-3.5,0-5.6-2.3-5.6-6.1s2.2-6.2,5.5-6.2,5.4,2.3,5.4,5.9v.8H631v.1a3.15,3.15,0,0,0,3.2,3.4,2.72,2.72,0,0,0,2.8-1.7h2.2ZM631,79.9h6a2.87,2.87,0,0,0-2.9-3,2.91,2.91,0,0,0-3.1,3"/><path class="cls-3" d="M641.6,75h2.3v2h.1a3,3,0,0,1,2.9-2.2,2,2,0,0,1,.8.1v2.3a3.11,3.11,0,0,0-1.1-.1,2.49,2.49,0,0,0-2.6,2.7v7.1h-2.4Z"/><polygon class="cls-3" points="655.5 86.9 652.9 86.9 648.6 75 651.2 75 654.2 84.5 654.2 84.5 657.2 75 659.8 75 655.5 86.9"/><path class="cls-3" d="M661.4,71.9a1.4,1.4,0,1,1,1.4,1.4,1.43,1.43,0,0,1-1.4-1.4m.2,3.1H664V86.9h-2.4Z"/><path class="cls-3" d="M674.8,79.1a2.59,2.59,0,0,0-2.8-2.2c-1.9,0-3.1,1.6-3.1,4.1s1.3,4.1,3.2,4.1a2.65,2.65,0,0,0,2.8-2.1h2.4c-.3,2.5-2.3,4.2-5.2,4.2-3.4,0-5.6-2.3-5.6-6.1s2.2-6.1,5.6-6.1c3.1,0,5,1.9,5.2,4.3h-2.5Z"/><path class="cls-3" d="M689.5,83.4c-.3,2.2-2.4,3.7-5.1,3.7-3.5,0-5.6-2.3-5.6-6.1s2.2-6.2,5.5-6.2,5.4,2.3,5.4,5.9v.8h-8.4v.1a3.15,3.15,0,0,0,3.2,3.4,2.72,2.72,0,0,0,2.8-1.7h2.2Zm-8.3-3.5h6a2.87,2.87,0,0,0-2.9-3,2.91,2.91,0,0,0-3.1,3"/><path class="cls-3" d="M703.3,70.6a5.14,5.14,0,0,1,5.4,5.4,5.22,5.22,0,0,1-5.5,5.4h-3.5V87h-2.5V70.6Zm-3.6,8.6h2.9c2.2,0,3.5-1.2,3.5-3.3s-1.3-3.2-3.5-3.2h-2.9Z"/><path class="cls-3" d="M710.8,75h2.3v2h.1a3,3,0,0,1,2.9-2.2,1.72,1.72,0,0,1,.8.1v2.3a3.11,3.11,0,0,0-1.1-.1,2.49,2.49,0,0,0-2.6,2.7v7.1h-2.4Z"/><path class="cls-3" d="M717.6,81c0-3.8,2.2-6.1,5.7-6.1S729,77.3,729,81s-2.2,6.1-5.7,6.1-5.7-2.4-5.7-6.1m8.8,0c0-2.6-1.2-4.1-3.2-4.1S720,78.4,720,81s1.2,4.1,3.2,4.1,3.2-1.5,3.2-4.1"/><polygon class="cls-3" points="736.7 86.9 734.1 86.9 729.8 75 732.4 75 735.4 84.5 735.4 84.5 738.4 75 741 75 736.7 86.9"/><path class="cls-3" d="M742.6,71.9a1.4,1.4,0,1,1,1.4,1.4,1.51,1.51,0,0,1-1.4-1.4m.2,3.1h2.4V86.9h-2.4Z"/><path class="cls-3" d="M747.6,81c0-3.7,2-6.1,5-6.1a3.91,3.91,0,0,1,3.7,2.1h0V70.6h2.5V87h-2.4V85h0a4.07,4.07,0,0,1-3.8,2.2c-3-.1-5-2.5-5-6.2m2.5,0c0,2.4,1.2,4,3.2,4s3.1-1.6,3.1-4-1.3-4-3.1-4-3.2,1.5-3.2,4"/><path class="cls-3" d="M771.9,83.4c-.3,2.2-2.4,3.7-5.1,3.7-3.5,0-5.6-2.3-5.6-6.1s2.2-6.2,5.5-6.2,5.4,2.3,5.4,5.9v.8h-8.4v.1a3.15,3.15,0,0,0,3.2,3.4,2.72,2.72,0,0,0,2.8-1.7h2.2Zm-8.3-3.5h6a2.87,2.87,0,0,0-2.9-3,3,3,0,0,0-3.1,3"/><path class="cls-3" d="M774.3,75h2.3v2h.1a3,3,0,0,1,2.9-2.2,1.72,1.72,0,0,1,.8.1v2.3a3.11,3.11,0,0,0-1.1-.1,2.49,2.49,0,0,0-2.6,2.7v7.1h-2.4Z"/><rect x="507.7" width="1.5" height="107.7"/></svg>