<?xml version="1.0" encoding="UTF-8"?><svg id="Layer_1" xmlns="http://www.w3.org/2000/svg" viewBox="0 0 500 500"><defs><style>.cls-3{fill:white;}.cls-2{fill:rgba(244,206,44,.85);}</style></defs><rect class="cls-3" x="40.48" y="55.66" width="419.31" height="387.75"/><path class="cls-2" d="m106.55,443.41h287.4c43.97,0,65.85-21.88,65.85-65.22V121.3c0-43.34-21.88-65.22-65.85-65.22H106.55c-43.97,0-66.06,21.67-66.06,65.22v256.89c0,43.55,22.09,65.22,66.06,65.22Zm-3.16-33.87c-18.73,0-29.03-9.89-29.03-29.46v-198.4c0-19.36,10.31-29.46,29.03-29.46h293.29c18.72,0,29.24,10.1,29.24,29.46v198.4c0,19.57-10.52,29.46-29.24,29.46H103.39Zm105.83-181.78h12.41c7.36,0,9.68-2.1,9.68-9.47v-12.41c0-7.36-2.31-9.68-9.68-9.68h-12.41c-7.36,0-9.89,2.31-9.89,9.68v12.41c0,7.36,2.52,9.47,9.89,9.47Zm69.85,0h12.41c7.36,0,9.89-2.1,9.89-9.47v-12.41c0-7.36-2.52-9.68-9.89-9.68h-12.41c-7.36,0-9.89,2.31-9.89,9.68v12.41c0,7.36,2.52,9.47,9.89,9.47Zm69.85,0h12.41c7.36,0,9.89-2.1,9.89-9.47v-12.41c0-7.36-2.52-9.68-9.89-9.68h-12.41c-7.36,0-9.68,2.31-9.68,9.68v12.41c0,7.36,2.31,9.47,9.68,9.47Zm-209.55,68.8h12.2c7.57,0,9.89-2.1,9.89-9.47v-12.41c0-7.36-2.31-9.47-9.89-9.47h-12.2c-7.57,0-9.89,2.1-9.89,9.47v12.41c0,7.36,2.31,9.47,9.89,9.47Zm69.85,0h12.41c7.36,0,9.68-2.1,9.68-9.47v-12.41c0-7.36-2.31-9.47-9.68-9.47h-12.41c-7.36,0-9.89,2.1-9.89,9.47v12.41c0,7.36,2.52,9.47,9.89,9.47Zm69.85,0h12.41c7.36,0,9.89-2.1,9.89-9.47v-12.41c0-7.36-2.52-9.47-9.89-9.47h-12.41c-7.36,0-9.89,2.1-9.89,9.47v12.41c0,7.36,2.52,9.47,9.89,9.47Zm69.85,0h12.41c7.36,0,9.89-2.1,9.89-9.47v-12.41c0-7.36-2.52-9.47-9.89-9.47h-12.41c-7.36,0-9.68,2.1-9.68,9.47v12.41c0,7.36,2.31,9.47,9.68,9.47Zm-209.55,69.01h12.2c7.57,0,9.89-2.32,9.89-9.68v-12.41c0-7.36-2.31-9.47-9.89-9.47h-12.2c-7.57,0-9.89,2.1-9.89,9.47v12.41c0,7.36,2.31,9.68,9.89,9.68Zm69.85,0h12.41c7.36,0,9.68-2.32,9.68-9.68v-12.41c0-7.36-2.31-9.47-9.68-9.47h-12.41c-7.36,0-9.89,2.1-9.89,9.47v12.41c0,7.36,2.52,9.68,9.89,9.68Zm69.85,0h12.41c7.36,0,9.89-2.32,9.89-9.68v-12.41c0-7.36-2.52-9.47-9.89-9.47h-12.41c-7.36,0-9.89,2.1-9.89,9.47v12.41c0,7.36,2.52,9.68,9.89,9.68Z"/></svg>