<!-- SpeedSize.com --><svg id="Layer_1" data-name="Layer 1" xmlns="http://www.w3.org/2000/svg" viewBox="0 0 100 100"><defs><style>.cls-1{fill:#333}</style></defs><g id="Light-S"><path class="cls-1" d="M21.42 79.56h57.16q4.71 0 7.1-2.4t2.4-7.06V37.33q0-4.68-2.4-7T78.58 28h-9.06a6.66 6.66 0 01-2.74-.42 7 7 0 01-2-1.66L62.29 23a8.69 8.69 0 00-2.59-2 9 9 0 00-3.7-.56H43.65a9 9 0 00-3.71.64 8.32 8.32 0 00-2.55 2l-2.6 2.83a6.18 6.18 0 01-1.91 1.66 6.64 6.64 0 01-2.72.42h-8.74q-4.71 0-7.1 2.35t-2.4 7V70.1q0 4.66 2.4 7.06t7.1 2.4zm28.58-9a16.58 16.58 0 01-8.62-2.3 17.48 17.48 0 01-6.19-6.19 17.39 17.39 0 010-17.32 17.56 17.56 0 016.19-6.19 17.41 17.41 0 0117.26 0 17 17 0 018.44 14.87 16.66 16.66 0 01-2.29 8.64 17.27 17.27 0 01-6.17 6.19A16.58 16.58 0 0150 70.58zm0-4.24a12.49 12.49 0 006.49-1.73A13.25 13.25 0 0061.16 60a12.53 12.53 0 001.73-6.51 12.74 12.74 0 00-1.73-6.54 12.91 12.91 0 00-4.67-4.67 13.14 13.14 0 00-13 0 13.06 13.06 0 00-4.67 4.67 12.56 12.56 0 00-1.75 6.54A12.36 12.36 0 0038.82 60a13.39 13.39 0 004.69 4.65A12.49 12.49 0 0050 66.34zM71.93 39a3 3 0 01.95-2.19 3 3 0 012.26-1 2.94 2.94 0 012.18 1 3 3 0 01.93 2.19 3.06 3.06 0 01-.93 2.25 3 3 0 01-2.18.93 3.13 3.13 0 01-2.26-.92 3 3 0 01-.95-2.26z"/></g><rect class="cls-1" x="21.73" y="25.29" width="7.78" height="1" rx=".44"/></svg>