<?xml version="1.0" encoding="UTF-8"?><svg id="Layer_1" xmlns="http://www.w3.org/2000/svg" viewBox="0 0 472.96 466.96"><path d="m236.47,3.08C110.07,3.08,6.32,107.29,6.32,233.25s103.75,230.63,230.15,230.63,230.17-104.67,230.17-230.63S362.43,3.08,236.47,3.08Zm102.13,332.34c-12.15,12.18-27.85,11.85-39.72,0l-62.48-62.48-62.45,62.48c-11.87,11.85-27.57,12.18-39.41.33-12.18-12.18-11.85-27.87,0-39.74l62.48-62.48-62.48-62.45c-11.85-11.87-12.18-27.57,0-39.74,11.85-11.85,27.54-11.52,39.39.33l62.48,62.48,62.48-62.48c11.87-11.85,27.24-11.85,39.41.33,11.85,11.85,11.85,27.22,0,39.09l-62.48,62.45,62.48,62.48c11.85,11.87,12.18,27.57.31,39.41Z"/></svg>