<!-- SpeedSize.com --><svg data-name="Layer 1" xmlns="http://www.w3.org/2000/svg" viewBox="0 0 100 100"><path d="M88.24 52.33a14.57 14.57 0 00-1.31-3.9 23.82 23.82 0 00-2.41-3.77l-2.78-3.56q-.58-2.94-1.42-5.8c-.55-1.9-1.11-3.62-1.66-5.15s-1-2.71-1.4-3.52a10.56 10.56 0 00-3.77-4.38 13.92 13.92 0 00-5.69-2.08c-.75-.08-2-.16-3.71-.23s-3.81-.12-6.24-.16-5-.07-7.85-.07-5.43 0-7.85.07-4.51.1-6.24.16-2.95.15-3.68.23a12.72 12.72 0 00-5.71 2.06 10.85 10.85 0 00-3.75 4.4 33.2 33.2 0 00-1.41 3.52c-.55 1.53-1.1 3.25-1.67 5.15s-1 3.84-1.43 5.8l-2.75 3.56a22 22 0 00-2.42 3.77 15.31 15.31 0 00-1.31 3.9 25.68 25.68 0 00-.41 4.83V76a4.13 4.13 0 001.24 3 4.23 4.23 0 003.1 1.23h3.83A4.25 4.25 0 0022.62 79a4.14 4.14 0 001.26-3v-5.47h.37q3.67.22 8.08.39c2.94.11 5.94.19 9 .26s5.95.1 8.69.1 5.64 0 8.69-.1 6-.15 9-.26 5.63-.24 8.08-.39h.4V76a4.23 4.23 0 004.31 4.27h3.86a4.19 4.19 0 003.07-1.23 4.13 4.13 0 001.24-3V57.16a26.67 26.67 0 00-.43-4.83zM30.21 61a5.06 5.06 0 01-3.75 1.51 5.24 5.24 0 110-10.48 5.28 5.28 0 013.75 9zm31.16-.82a3.64 3.64 0 01-2.72 1.06H41.38a3.79 3.79 0 110-7.58h17.27a3.64 3.64 0 012.72 1.06 4.1 4.1 0 010 5.46zM60.2 39.37c-2.86-.06-6.26-.1-10.2-.1s-7.34 0-10.2.1-5.38.15-7.53.26l-6 .33a1.65 1.65 0 01-1.31-.3c-.26-.23-.31-.66-.15-1.27a34.29 34.29 0 011-3.79c.41-1.32.83-2.56 1.27-3.71a25.24 25.24 0 011.17-2.66 5.09 5.09 0 011.48-1.69 4.74 4.74 0 012.12-.72 62 62 0 016.2-.41q4.35-.15 11.92-.15t11.94.14a52.38 52.38 0 016.18.42 4.93 4.93 0 012.12.73 5.54 5.54 0 011.48 1.68 17.73 17.73 0 011.18 2.66c.44 1.15.85 2.39 1.25 3.71s.75 2.6 1 3.79c.15.61.1 1-.15 1.27a1.69 1.69 0 01-1.32.3l-6-.33c-2.07-.11-4.58-.19-7.45-.26zm13.34 23.12A5 5 0 0169.82 61a5.39 5.39 0 113.72 1.51z" fill="#333"/></svg>