<?xml version="1.0" encoding="utf-8"?>
<!-- Generator: Adobe Illustrator 23.0.1, SVG Export Plug-In . SVG Version: 6.00 Build 0)  -->
<svg version="1.1" id="Layer_1" xmlns="http://www.w3.org/2000/svg" xmlns:xlink="http://www.w3.org/1999/xlink" x="0px" y="0px"
	 viewBox="0 0 32 28" style="enable-background:new 0 0 32 28;" xml:space="preserve">
<style type="text/css">
	.st0{fill:#202020;}
</style>
<g>
	<g>
		<path class="st0" d="M28.4,21.9H12.8c-0.8,0-1.5-0.5-1.8-1.3L5.6,1.9C5.5,1.7,5.3,1.5,5,1.5H0.3V0.3H5c0.8,0,1.5,0.5,1.7,1.3
			l5.4,18.6c0.1,0.3,0.3,0.5,0.6,0.5h15.6V21.9z"/>
	</g>
	<g>
		<path class="st0" d="M27.4,18H10.7v-1.2h16.7c0.3,0,0.6-0.2,0.7-0.5l2.4-8.9c0-0.1,0-0.2-0.1-0.3c0,0-0.1-0.1-0.3-0.1H7.5V5.8
			h22.7c0.5,0,0.9,0.2,1.2,0.6c0.3,0.4,0.4,0.9,0.3,1.3l-2.4,8.9C29,17.5,28.2,18,27.4,18z"/>
	</g>
	<g>
		<path class="st0" d="M15,27.7c-1.5,0-2.7-1.2-2.7-2.7s1.2-2.7,2.7-2.7c1.5,0,2.7,1.2,2.7,2.7S16.4,27.7,15,27.7z M15,23.6
			c-0.8,0-1.5,0.7-1.5,1.5s0.7,1.5,1.5,1.5c0.8,0,1.5-0.7,1.5-1.5S15.8,23.6,15,23.6z"/>
	</g>
	<g>
		<path class="st0" d="M25.2,27.7c-1.5,0-2.7-1.2-2.7-2.7s1.2-2.7,2.7-2.7s2.7,1.2,2.7,2.7S26.7,27.7,25.2,27.7z M25.2,23.6
			c-0.8,0-1.5,0.7-1.5,1.5s0.7,1.5,1.5,1.5s1.5-0.7,1.5-1.5S26,23.6,25.2,23.6z"/>
	</g>
</g>
</svg>
