<!-- SpeedSize.com --><svg id="Layer_1" data-name="Layer 1" xmlns="http://www.w3.org/2000/svg" viewBox="0 0 100 100"><defs><style>.cls-1{fill:#333}</style></defs><path class="cls-1" d="M86.61 24.8H13.4a2 2 0 00-2 2v42.74A5.67 5.67 0 0017 75.2h66a5.66 5.66 0 005.66-5.66V26.83a2 2 0 00-2.05-2.03zm-63 1.66a1.33 1.33 0 11-1.33 1.33 1.34 1.34 0 011.33-1.33zm-4 0a1.33 1.33 0 11-1.33 1.33 1.33 1.33 0 011.34-1.33zm-4 0a1.33 1.33 0 11-1.33 1.33 1.33 1.33 0 011.35-1.33zm72 43.08A4.66 4.66 0 0183 74.2H17a4.67 4.67 0 01-4.67-4.66V30.69h75.3z"/><path class="cls-1" d="M46.51 44.75h6.98v23.83h-6.98zm15.66-7.6h6.98v31.43h-6.98zM30.85 55.11h6.98v13.47h-6.98z"/></svg>