<svg version="1.1" id="Layer_1" xmlns="http://www.w3.org/2000/svg" xmlns:xlink="http://www.w3.org/1999/xlink" x="0px" y="0px" viewBox="0 0 21 18" style="enable-background:new 0 0 21 18;" xml:space="preserve">
<style type="text/css">
	.st0{fill:#858585;}
</style>
<g>
	<path class="st0" d="M3.1,17.5c-0.3,0-0.6-0.1-0.7-0.2c-0.2-0.3-0.1-0.7,0.5-1.1C3.5,15.7,4,15,4.3,14c-2.5-1.4-4-3.7-4-6   c0-4.2,4.6-7.6,10.2-7.6c5.6,0,10.2,3.4,10.2,7.6c0,4.2-4.6,7.6-10.2,7.6c-0.7,0-1.3-0.1-2-0.2C7.1,16.4,4.4,17.5,3.1,17.5z    M10.5,1.3c-5.1,0-9.3,3-9.3,6.7c0,2.1,1.5,4.2,3.9,5.4l0.3,0.2l-0.1,0.3c-0.4,1.1-0.9,2-1.6,2.7c1.1-0.2,3-0.9,4.4-2l0.1-0.1   l0.2,0c0.7,0.1,1.4,0.2,2.1,0.2c5.1,0,9.3-3,9.3-6.7C19.8,4.3,15.6,1.3,10.5,1.3z"/>
</g>
</svg>