<?xml version="1.0" encoding="UTF-8"?>
<svg id="Layer_1" data-name="Layer 1" xmlns="http://www.w3.org/2000/svg" viewBox="0 0 53 54">
  <defs>
    <style>
      .transparent {
        fill: transparent;
      }

      .cls-2 {
        fill: #1d1d1f;
      }
    </style>
  </defs>
  <path class="cls-2" d="m25,19.48h-1c-.02-2.4-1.42-4.46-3.44-5.46-1-.68-1.59-1.62-1.68-2.64l-.44-3.79c-.14-1.04-.31-1.19-1.91-1.53,0,0-2.4-.31-4.55-.31s-4.55.31-4.55.31c-1.6.34-1.77.49-1.91,1.53l-.44,3.79c-.09,1.02-.66,1.97-1.65,2.64C1.4,15.03,0,17.12,0,19.54v15.92C0,37.85,1.36,39.91,3.35,40.93c1.05.7,1.61,1.75,1.71,2.81l.44,3.79c.14,1.04.31,1.19,1.91,1.53,0,0,2.4.31,4.55.31s4.55-.31,4.55-.31c1.6-.34,1.77-.49,1.91-1.53l.44-3.79c.1-1.04.7-2.08,1.73-2.78,2.02-1.01,3.42-3.09,3.42-5.51v-10.75h1v-5.23Zm-2,15.98c0,2.84-2.31,5.15-5.15,5.15H6.15c-2.84,0-5.15-2.31-5.15-5.15v-15.92c0-2.84,2.31-5.15,5.15-5.15h11.69c2.84,0,5.15,2.31,5.15,5.15v15.92Z"/>
  <path class="transparent" d="m0,.56h25v54H0V.56Z"/>
  <path class="cls-2" d="m39.77,47.21v.43c0,.4-.25.93-.55,1.18l-.34.28c-.62,0-1.09-.01-1.51-.03.05-.37.26-.8.53-1.02l1.31-1.1c.3-.25.55-.14.55.26Zm-1.82.14l1.27-1.12c.3-.26.53-.8.52-1.2v-.43c-.03-.4-.28-.51-.58-.24l-1.27,1.12c-.3.26-.53.8-.52,1.2v.43c.03.4.28.51.58.24Zm1.81-5.36h-.78l-1.07.9c-.3.25-.55.79-.55,1.18v.43c0,.4.25.51.55.26l1.31-1.1c.3-.25.55-.79.55-1.18v-.43s0-.03-.01-.06Zm-1.81.2l.23-.2h-.78c.03.35.27.45.55.2Zm-1.02-.2h-.74l.2.17c.28.23.5.14.54-.17Zm-1.86,1.63l1.27,1.12c.3.26.55.15.56-.24v-.43c.03-.4-.21-.93-.5-1.2l-1.01-.89h-.83s0,0,0,0v.43c-.03.4.21.93.5,1.2Zm.01.72c-.3-.25-.55-.14-.55.26v.43c0,.4.25.93.55,1.18l1.31,1.1c.3.25.55.14.55-.26v-.43c0-.4-.25-.93-.55-1.18l-1.31-1.1Zm.05,2.57c-.3-.26-.55-.15-.56.24v.43c-.03.4.21.93.5,1.2l.17.15c.61.06,1.09.1,1.67.13-.05-.37-.24-.79-.5-1.02l-1.27-1.12Zm-1.56.03l-.4.34v.11c.09.56.27.92.63,1.16.19-.27.32-.63.32-.92v-.43c0-.4-.25-.51-.55-.26Zm.53-1.92v-.43c-.03-.4-.28-.51-.58-.24l-.64.56.21,1.73.49-.43c.3-.26.53-.8.52-1.2Zm.01-3.05c-.23-.01-.46-.03-.68-.07l-.92.77c.12.3.19.61.22.92l.08.69.76-.64c.3-.25.55-.79.55-1.18v-.43s-.01-.04-.01-.07Zm-2.37-.57s-.01.08-.01.11v.2c.19.14.36.28.47.42.02.03.03.06.05.08.02-.01.03-.02.05-.03l.47-.41c-.36-.09-.7-.22-1.03-.37Zm-1.37-.85c.23.31.58.58.92.82,0-.07-.02-.15-.04-.23-.31-.17-.6-.37-.88-.59Zm18.3.84c.35-.25.69-.52.93-.83-.28.22-.58.42-.89.6-.02.08-.03.15-.04.23Zm-1.45.37l.46.38s.05.02.07.04c.01-.02.02-.04.04-.06.11-.14.27-.27.44-.41v-.26s0-.04,0-.05c-.32.14-.66.26-1,.35Zm-1.36.2s0,.01,0,.02v.43c-.03.4.21.93.5,1.2l.81.72.09-.74c.03-.3.1-.61.22-.91l-.89-.79c-.24.04-.48.06-.73.07Zm-.04,2.62v.43c0,.4.25.93.55,1.18l.53.44.2-1.7-.73-.61c-.3-.25-.55-.14-.55.26Zm.1,2.52v.43c-.02.28.1.63.27.91.33-.23.55-.55.62-1.06l.02-.2-.35-.31c-.3-.26-.55-.15-.56.24Zm-1.05-.17l-1.31,1.1c-.27.22-.48.66-.53,1.03.67-.02,1.23-.06,1.7-.15l.15-.12c.3-.25.55-.79.55-1.18v-.43c0-.4-.25-.51-.55-.26Zm-1.26.4l1.27-1.12c.3-.26.53-.8.52-1.2v-.43c-.03-.4-.28-.51-.58-.24l-1.27,1.12c-.3.26-.53.8-.52,1.2v.43c.03.4.28.51.58.24Zm1.81-5.36h-.78l-1.07.9c-.3.25-.55.79-.55,1.18v.43c0,.4.25.51.55.26l1.31-1.1c.3-.25.55-.79.55-1.18v-.43s0-.03-.01-.06Zm-1.81.2l.23-.2h-.78c.03.35.27.45.55.2Zm-1.02-.2h-.74l.2.17c.28.23.5.14.54-.17Zm-1.86,1.63l1.27,1.12c.3.26.55.15.56-.24v-.43c.03-.4-.21-.93-.5-1.2l-1.01-.89h-.83s0,0,0,0v.43c-.03.4.21.93.5,1.2Zm.01.72c-.3-.25-.55-.14-.55.26v.43c0,.4.25.93.55,1.18l1.31,1.1c.3.25.55.14.55-.26v-.43c0-.4-.25-.93-.55-1.18l-1.31-1.1Zm.05,2.57c-.3-.26-.55-.15-.56.24v.43c-.03.4.21.93.5,1.2l.37.32c.54,0,1.03,0,1.47,0-.03-.38-.24-.82-.5-1.06l-1.27-1.12Zm-1.89-40.9c-.62,0-1.09.01-1.51.03.05.37.26.8.53,1.02l1.31,1.1c.3.25.55.14.55-.26v-.43c0-.4-.25-.93-.55-1.18l-.34-.28Zm.29,4.74c.3.26.55.15.56-.24v-.43c.03-.4-.21-.93-.5-1.2l-1.27-1.12c-.3-.26-.55-.15-.56.24v.43c-.03.4.21.93.5,1.2l1.27,1.12Zm-1.26-.4c-.3-.25-.55-.14-.55.26v.43c0,.4.25.93.55,1.18l1.09.91h.77s.01-.04.01-.07v-.43c0-.4-.25-.93-.55-1.18l-1.31-1.1Zm.05,2.57c-.29-.25-.53-.15-.56.21h.8l-.24-.21Zm-1.56.03l-.21.18h.75c-.04-.32-.26-.41-.54-.18Zm-.05-2.59l-1.27,1.12c-.3.26-.53.8-.52,1.2v.43s.02.01.02.02h.81l1.02-.9c.3-.26.53-.8.52-1.2v-.43c-.03-.4-.28-.51-.58-.24Zm.05-2.57l-1.31,1.1c-.3.25-.55.79-.55,1.18v.43c0,.4.25.51.55.26l1.31-1.1c.3-.25.55-.79.55-1.18v-.43c0-.4-.25-.51-.55-.26Zm-1.26.4l1.27-1.12c.26-.22.45-.65.5-1.02-.58.03-1.05.07-1.67.13l-.17.15c-.3.26-.53.8-.52,1.2v.43c.03.4.28.51.58.24Zm-1.95-.47v.11s.39.34.39.34c.3.25.55.14.55-.26v-.43c0-.29-.13-.64-.32-.92-.36.24-.55.6-.62,1.16Zm.9,2.79v-.43c.03-.4-.21-.93-.5-1.2l-.49-.43-.21,1.73.64.56c.3.26.55.15.56-.24Zm-1.27.31l-.08.69c-.03.31-.1.62-.22.92l.93.78c.22-.03.44-.05.67-.06,0-.03.01-.05.01-.08v-.43c0-.4-.25-.93-.55-1.18l-.76-.64Zm-.02,2.53l-.48-.42s-.03-.02-.05-.03c-.02.03-.03.06-.05.08-.11.14-.28.28-.46.42v.2s0,.08,0,.12c.33-.15.68-.27,1.04-.37Zm-2.45,1.24h0c.28-.23.59-.43.9-.61.02-.08.04-.17.05-.24-.36.26-.72.53-.95.86Zm19.3,0c-.23-.33-.61-.61-.97-.87,0,.08.02.16.04.24.33.18.64.39.92.63Zm-1.85-1.6s-.02-.04-.04-.06c-.02.02-.05.02-.07.04l-.47.39c.35.09.69.21,1.01.35,0-.02,0-.04,0-.06v-.26c-.18-.14-.34-.27-.45-.41Zm-1.95-.29v.43s.02.02.02.03c.24,0,.48.03.71.07l.9-.8c-.12-.29-.19-.61-.22-.91l-.09-.74-.81.72c-.3.26-.53.8-.52,1.2Zm.53-1.92l.73-.61-.2-1.7-.53.44c-.3.25-.55.79-.55,1.18v.43c0,.4.25.51.55.26Zm.11-2.53l.35-.31-.02-.2c-.07-.51-.29-.84-.62-1.06-.17.27-.29.62-.28.91v.43c.03.4.28.51.58.24Zm-1.76-2.06c-.47-.08-1.03-.13-1.7-.15.05.37.26.81.53,1.03l1.31,1.1c.3.25.55.14.55-.26v-.43c0-.4-.25-.93-.55-1.18l-.15-.12Zm.1,4.58c.3.26.55.15.56-.24v-.43c.03-.4-.21-.93-.5-1.2l-1.27-1.12c-.3-.26-.55-.15-.56.24v.43c-.03.4.21.93.5,1.2l1.27,1.12Zm-1.26-.4c-.3-.25-.55-.14-.55.26v.43c0,.4.25.93.55,1.18l1.09.91h.77s.01-.04.01-.07v-.43c0-.4-.25-.93-.55-1.18l-1.31-1.1Zm.05,2.57c-.29-.25-.53-.15-.56.21h.8l-.24-.21Zm-1.56.03l-.21.18h.75c-.04-.32-.26-.41-.54-.18Zm-.05-2.59l-1.27,1.12c-.3.26-.53.8-.52,1.2v.43s.02.01.02.02h.81l1.02-.9c.3-.26.53-.8.52-1.2v-.43c-.03-.4-.28-.51-.58-.24Zm.05-2.57l-1.31,1.1c-.3.25-.55.79-.55,1.18v.43c0,.4.25.51.55.26l1.31-1.1c.3-.25.55-.79.55-1.18v-.43c0-.4-.25-.51-.55-.26Zm-1.26.4l1.27-1.12c.26-.23.47-.68.5-1.06-.44,0-.93,0-1.47,0l-.37.32c-.3.26-.53.8-.52,1.2v.43c.03.4.28.51.58.24Zm12.22,16.43h-1v10.96c0,2.02-.94,3.82-2.4,4.99-.28.22-.58.42-.89.6-.16.09-.32.17-.49.24-.32.14-.66.26-1,.35-.21.05-.42.1-.64.13-.24.04-.48.06-.73.07-.09,0-.17.01-.26.01h-11.2c-.1,0-.19-.01-.28-.01-.23-.01-.46-.03-.68-.07-.22-.03-.44-.08-.65-.13-.36-.09-.7-.22-1.03-.37-.17-.08-.33-.16-.49-.25-.31-.17-.6-.37-.88-.59-1.45-1.17-2.38-2.96-2.38-4.97v-16.06c0-2,.91-3.78,2.35-4.95.28-.23.59-.44.9-.62.16-.09.33-.18.5-.25.33-.15.68-.27,1.04-.37.21-.06.43-.1.65-.13.22-.03.44-.05.67-.06.1,0,.19-.01.29-.01h11.2c.09,0,.17,0,.26.01.24,0,.48.03.71.07.22.03.43.08.64.13.35.09.69.21,1.01.35.17.08.33.16.49.24.33.18.64.39.92.63,1.44,1.17,2.36,2.96,2.36,4.96v.24h1v4.86Zm-2,0h0v-4.86h0v-.24c0-1.72-.81-3.25-2.07-4.24-.33-.26-.69-.48-1.08-.66-.5-.23-1.03-.39-1.6-.46-.22-.03-.44-.04-.66-.04h-11.2c-.24,0-.47.02-.69.05-.56.07-1.09.23-1.58.46-.38.18-.73.39-1.06.65-1.26.99-2.07,2.52-2.07,4.24v16.06c0,1.71.8,3.24,2.05,4.23.33.26.69.48,1.07.66.49.23,1.02.39,1.58.46.23.03.46.05.7.05h11.2c.23,0,.45-.02.67-.05.56-.07,1.1-.23,1.59-.46.39-.18.75-.4,1.09-.67,1.25-.99,2.05-2.52,2.05-4.23v-10.96Z"/>
</svg>