<!-- SpeedSize.com --><svg xmlns="http://www.w3.org/2000/svg" viewBox="0 0 31 54"><path d="M15.5-.1H0v54h31v-54H15.5z" fill="none"/><path d="M29.5 44h-11c-.3 0-.5.2-.5.4v.6h-2.5c-.3 0-.5.2-.5.4v.9H6.8c-2.3-.1-4.2-2.1-4.1-4.4.1-2.2 1.9-4 4.1-4.1h17.4c3.2-.1 5.7-2.7 5.6-5.9-.1-3.1-2.5-5.5-5.6-5.6h-5.7v-.8c0-.3-.2-.5-.4-.5h-2.6v-.5c0-.3-.2-.5-.4-.5H7c-.3 0-.5.2-.5.4v.6h-3c-.3 0-.5.2-.5.4v3.1c0 .3.2.5.4.5h3.1v.5c0 .3.2.5.4.5H15c.3 0 .5-.2.5-.4V29H18c.3 0 .5-.2.5-.4v-.9h5.7c2.3.1 4.2 2.1 4.1 4.4-.1 2.2-1.9 4-4.1 4.1H6.8c-3.2.1-5.7 2.7-5.6 5.9.1 3.1 2.5 5.5 5.6 5.6H15v.8c0 .3.2.5.4.5H18v.5c0 .3.2.5.4.5h11.1c.3 0 .5-.2.5-.4v-5.1c0-.3-.2-.5-.5-.5zM4.7 28.4h-.9v-.2h.9v.2zm0-.4h-.9v-.2h.9v.2zm0-.3h-.9v-.2h.9v.2zm0-.4h-.9v-.2h.9v.2zm0-.4h-.9v-.2h.9v.2zm0-.3h-.9v-.2h.9v.2zm0-.4h-.9V26h.9v.2zm0-.4h-.9v-.2h.9v.2z" fill="#333"/></svg>