<!-- SpeedSize.com --><svg data-name="Layer 1" xmlns="http://www.w3.org/2000/svg" viewBox="0 0 100 100"><path d="M85.33 15v-1.42a2.21 2.21 0 00-2.21-2.2h-7.31a2.21 2.21 0 00-2.21 2.2V15a4.29 4.29 0 00-3.79 4.25V32a4.29 4.29 0 004.29 4.3h3.84v37.61a13.23 13.23 0 01-26.45 0V26.08a16.22 16.22 0 00-32.44 0v36.57h-3.91a4.27 4.27 0 00-4.28 4.28v13.74A4.28 4.28 0 0015.14 85h2.5v3.28a.4.4 0 00.4.4h.32a.39.39 0 00.4-.4V85h3.5v3.28a.4.4 0 00.4.4H23a.4.4 0 00.4-.4V85h2.5a4.28 4.28 0 004.28-4.28V66.93a4.28 4.28 0 00-4.28-4.28h-3.85V26.08a13.22 13.22 0 0126.44 0v47.83a16.23 16.23 0 0032.45 0V36.3h3.89a4.29 4.29 0 004.29-4.3V19.27A4.29 4.29 0 0085.33 15zm-10.62-1.42a1.09 1.09 0 011.1-1.09h7.31a1.09 1.09 0 011.1 1.09V15h-9.51z" fill="#333"/></svg>