<!-- SpeedSize.com --><svg id="Layer_1" data-name="Layer 1" xmlns="http://www.w3.org/2000/svg" viewBox="0 0 100 100"><defs><style>.cls-2{fill:#333}</style></defs><g id="Light"><g id="Accessories"><path d="M77.44 18.81H81V81.2h-3.56v7.13h4.81A2.31 2.31 0 0084.57 86V14.37a2.62 2.62 0 00-2.34-2.69h-4.79z" fill-rule="evenodd" fill="#333"/><path id="iPad_Accessories" data-name="iPad Accessories" class="cls-2" d="M73.32 8.11h-.09c-3.19 1-6.32 2.23-9.39 3.56a4 4 0 00-2.44 3.44V85a4 4 0 002.42 3.34s8.33 3.4 9.4 3.56a2.4 2.4 0 002.44-2.37v-79a2.38 2.38 0 00-2.34-2.42z"/><path class="cls-2" d="M44.07 83.25A5.08 5.08 0 0139 88.33h-6.91a2.79 2.79 0 01-2.78-2.78V31H39a5.09 5.09 0 015.06 5.08z"/><path class="cls-2" d="M61.25 88.33H43.61a6.88 6.88 0 002.24-5.08V36.11A6.85 6.85 0 0039 29.25h-9.7v-14.8a2.81 2.81 0 012.82-2.78h29.13a2.93 2.93 0 00-1.64 2.78v71.1a2.68 2.68 0 001.64 2.78z"/></g></g><path class="cls-2" d="M39 31H20.51a5 5 0 00-5.08 5.08v47.18a5.08 5.08 0 005.08 5.07H39a5.08 5.08 0 005.08-5.07V36.12A5.09 5.09 0 0039 31zm-21 5.9a3.23 3.23 0 013.26-3.26h3.94a3.22 3.22 0 013.25 3.26v3.9a3.22 3.22 0 01-3.25 3.26h-3.91A3.23 3.23 0 0118 40.8z"/></svg>