<!-- SpeedSize.com --><svg data-name="Layer 1" xmlns="http://www.w3.org/2000/svg" viewBox="0 0 100 100"><path d="M20.63 59.1a3.73 3.73 0 001.78 1 4.81 4.81 0 002.26 0 5.52 5.52 0 002.24-1.2c.17-.16.43-.4.76-.73L29 56.78c.55-.55 1.25-1.26 2.08-2.12l3.07-3.12q5.06-5.15 9.36-9.4t7.65-7.24a37.21 37.21 0 015.56-4.29c1.48-.88 2.52-1.07 3.12-.59s.68 1.14.41 2.18a15.73 15.73 0 01-1.62 3.69c-.81 1.42-1.75 2.93-2.82 4.51s-2.14 3.13-3.21 4.6q-3 4.26-5.55 7.85c-1.69 2.4-3.15 4.58-4.36 6.56a34.42 34.42 0 00-2.78 5.39 9.57 9.57 0 00-.77 4.33 5.32 5.32 0 001.64 3.37 5.05 5.05 0 004.68 1.5 17.83 17.83 0 006.69-3.08 99.14 99.14 0 009.18-7.21c2-1.83 3.89-3.45 5.53-4.85a27.39 27.39 0 014.18-3c1.14-.63 2-.68 2.52-.13a1.71 1.71 0 01.41 1.6 9.48 9.48 0 01-1 2.57c-.53 1-1.21 2.27-2 3.71-.71 1.21-1.4 2.41-2.08 3.61a24 24 0 00-1.65 3.47 7.62 7.62 0 00-.54 3.14 4.12 4.12 0 001.3 2.62c1.11 1.09 2.67 1.29 4.68.62s4.4-2.31 7.14-4.92a2.24 2.24 0 00.65-1.15 1.25 1.25 0 00-.37-1.11 1.24 1.24 0 00-1-.4A1.66 1.66 0 0078 70a29.94 29.94 0 01-3.55 3 11.66 11.66 0 01-2.67 1.52c-.72.25-1.23.22-1.54-.09s-.41-.84-.22-1.58A14.75 14.75 0 0171.21 70q.93-1.8 2.47-4.43t2.42-4.47a18.08 18.08 0 001.35-3.55 6.25 6.25 0 00.1-2.8A5.13 5.13 0 0073.11 51a7.4 7.4 0 00-3.77 1.09 34 34 0 00-4.78 3.34c-1.8 1.46-3.86 3.22-6.18 5.26q-3.21 2.84-5.49 4.58a35 35 0 01-3.81 2.63 7.16 7.16 0 01-2.45 1 1.59 1.59 0 01-1.39-.35 1.76 1.76 0 01-.48-1.3 5.55 5.55 0 01.69-2.13 35.18 35.18 0 012.1-3.53q1.45-2.19 3.72-5.44t5.59-7.85q3.16-4.41 5.48-8a45.21 45.21 0 003.53-6.53 11.58 11.58 0 001.07-5.11A5.53 5.53 0 0065 24.8a8.16 8.16 0 00-5.27-2.25q-2.94-.12-7.08 2.22a66.24 66.24 0 00-10.07 7.4q-5.94 5.07-14.28 13.27l-3.18 3.14c-.88.84-1.6 1.54-2.15 2.1L21.67 52a9.43 9.43 0 00-.75.79 5.15 5.15 0 00-1.27 2.27 4.83 4.83 0 000 2.27 3.76 3.76 0 00.98 1.77z" fill="#333"/></svg>