<!-- SpeedSize.com --><svg data-name="Layer 1" xmlns="http://www.w3.org/2000/svg" viewBox="0 0 100 100"><path d="M86.69 22.74A7.79 7.79 0 0081 20.8H19a7.82 7.82 0 00-5.74 1.94 7.78 7.78 0 00-1.94 5.74v36a7.76 7.76 0 001.94 5.7A7.82 7.82 0 0019 72.13h29.32v2.63H34.43a2.18 2.18 0 00-1.58.64 2.23 2.23 0 001.58 3.8h31.14a2.16 2.16 0 001.58-.66 2.2 2.2 0 000-3.14 2.18 2.18 0 00-1.58-.64h-13.9v-2.63H81a7.79 7.79 0 005.73-1.94 7.72 7.72 0 001.94-5.7v-36c-.04-2.55-.67-4.49-1.98-5.75zM84.2 64.41c0 2.18-1.12 3.28-3.33 3.28H19.12c-2.21 0-3.32-1.1-3.32-3.28V28.55q0-3.32 3.32-3.31h61.75c2.21 0 3.33 1.1 3.33 3.31z" fill="#333"/></svg>