<!-- SpeedSize.com --><svg data-name="Layer 1" xmlns="http://www.w3.org/2000/svg" viewBox="0 0 100 100"><path d="M86.82 68.53H56.39a1.34 1.34 0 00-1.29-1h-1.19v-6.5a.79.79 0 00-.79-.79h-6.24a.79.79 0 00-.79.79v6.5H44.9a1.34 1.34 0 00-1.29 1H13.18a1.81 1.81 0 00-1.81 1.81v3a1.81 1.81 0 001.81 1.8h73.64a1.81 1.81 0 001.81-1.8v-3a1.81 1.81 0 00-1.81-1.81zm-34.31-7.22a.39.39 0 01.38-.4.4.4 0 01.39.4v3a.39.39 0 01-.39.38.38.38 0 01-.38-.38zm-1.15 0a.39.39 0 01.39-.4.4.4 0 01.38.4v3a.39.39 0 01-.38.38.38.38 0 01-.39-.38zm-1.15 0a.39.39 0 01.39-.4.4.4 0 01.39.4v3a.39.39 0 01-.39.38.38.38 0 01-.39-.38zm-1.18 0a.4.4 0 11.79 0v3a.4.4 0 01-.79 0zm-1.17 0a.4.4 0 01.39-.4.39.39 0 01.39.4v3a.38.38 0 01-.39.38.39.39 0 01-.39-.38zm-1.14 0a.4.4 0 01.39-.4.39.39 0 01.38.4v3a.38.38 0 01-.38.38.39.39 0 01-.39-.38z" fill="#333"/><path d="M47.49 61.31v3a.38.38 0 01-.38.38.39.39 0 01-.39-.38v-3a.4.4 0 01.39-.4.39.39 0 01.38.4zm1.15 0v3a.38.38 0 01-.39.38.39.39 0 01-.39-.38v-3a.4.4 0 01.39-.4.39.39 0 01.39.4zm1.18 0v3a.4.4 0 01-.79 0v-3a.4.4 0 11.79 0zm1.18 0v3a.39.39 0 01-.39.38.38.38 0 01-.39-.38v-3a.39.39 0 01.39-.4.4.4 0 01.39.4zm1.13 0v3a.39.39 0 01-.38.38.38.38 0 01-.39-.38v-3a.39.39 0 01.39-.4.4.4 0 01.38.4zm1.15 0v3a.39.39 0 01-.39.38.38.38 0 01-.38-.38v-3a.39.39 0 01.38-.4.4.4 0 01.39.4z" fill="#046"/><path d="M47.49 61.31v3a.38.38 0 01-.38.38.39.39 0 01-.39-.38v-3a.4.4 0 01.39-.4.39.39 0 01.38.4zm1.15 0v3a.38.38 0 01-.39.38.39.39 0 01-.39-.38v-3a.4.4 0 01.39-.4.39.39 0 01.39.4zm1.18 0v3a.4.4 0 01-.79 0v-3a.4.4 0 11.79 0zm1.18 0v3a.39.39 0 01-.39.38.38.38 0 01-.39-.38v-3a.39.39 0 01.39-.4.4.4 0 01.39.4zm1.13 0v3a.39.39 0 01-.38.38.38.38 0 01-.39-.38v-3a.39.39 0 01.39-.4.4.4 0 01.38.4zm1.15 0v3a.39.39 0 01-.39.38.38.38 0 01-.38-.38v-3a.39.39 0 01.38-.4.4.4 0 01.39.4z" fill="#ccc"/></svg>