<!-- SpeedSize.com --><svg id="Layer_1" data-name="Layer 1" xmlns="http://www.w3.org/2000/svg" viewBox="0 0 100 100"><defs><style>.cls-1{fill:#333}</style></defs><path class="cls-1" d="M55.24 11.37h-32.3a5.45 5.45 0 00-5.44 5.44v48.6a5.45 5.45 0 005.44 5.44h32.3a5.45 5.45 0 005.44-5.43V16.81a5.46 5.46 0 00-5.44-5.44zm-31.82 9.14a2.79 2.79 0 112.79-2.78 2.78 2.78 0 01-2.79 2.78zM79 70.85h-5.5a3.48 3.48 0 01-3.5-3.48v-7.44a3.48 3.48 0 013.48-3.48H79a3.48 3.48 0 013.48 3.48v7.45A3.49 3.49 0 0179 70.85z"/><path class="cls-1" d="M77.58 61.36H75a2.51 2.51 0 01-2.5-2.51V54.4a2.5 2.5 0 012.5-2.5h2.62a2.5 2.5 0 012.5 2.5v4.45a2.52 2.52 0 01-2.54 2.51zM75 52.93a1.47 1.47 0 00-1.47 1.47v4.45A1.47 1.47 0 0075 60.32h2.62a1.49 1.49 0 001.47-1.47V54.4a1.47 1.47 0 00-1.47-1.47zm-17.44 35.7A20.54 20.54 0 0142.51 82a19.39 19.39 0 01-5.19-14.93l3.09.27a16.31 16.31 0 004.38 12.55 17.41 17.41 0 0012.77 5.64h.06a17.4 17.4 0 0012.76-5.68 16.27 16.27 0 004.34-12.51l3.09-.27a19.37 19.37 0 01-5.13 14.88 20.59 20.59 0 01-15 6.69z"/></svg>