<?xml version="1.0" encoding="utf-8"?>
<!-- Generator: Adobe Illustrator 22.0.1, SVG Export Plug-In . SVG Version: 6.00 Build 0)  -->
<svg version="1.1" id="Layer_1" xmlns="http://www.w3.org/2000/svg" xmlns:xlink="http://www.w3.org/1999/xlink" x="0px" y="0px"
	 viewBox="0 0 25 25" style="enable-background:new 0 0 25 25;" xml:space="preserve">
<style type="text/css">
	.st2{fill:#010101;}
	.st3{fill:#FFFFFF;}
</style>
<g>
	<path class="st2" d="M24,7.5H1c-0.5,0-1-0.4-1-1v0c0-0.5,0.4-1,1-1H24c0.5,0,1,0.4,1,1v0C25,7.1,24.6,7.5,24,7.5z"/>
	<path class="st2" d="M24,13.5H1c-0.5,0-1-0.4-1-1v0c0-0.5,0.4-1,1-1H24c0.5,0,1,0.4,1,1v0C25,13,24.6,13.5,24,13.5z"/>
	<path class="st2" d="M24,19.4H1c-0.5,0-1-0.4-1-1v0c0-0.5,0.4-1,1-1H24c0.5,0,1,0.4,1,1v0C25,19,24.6,19.4,24,19.4z"/>
</g>
<g>
	<circle class="st3" cx="18.6" cy="6.6" r="2.9"/>
	<path d="M18.6,9.9c-1.9,0-3.4-1.5-3.4-3.4s1.5-3.4,3.4-3.4S22,4.7,22,6.6S20.5,9.9,18.6,9.9z M18.6,4.2c-1.3,0-2.4,1.1-2.4,2.4
		s1.1,2.4,2.4,2.4S21,7.9,21,6.6S19.9,4.2,18.6,4.2z"/>
</g>
<g>
	<circle class="st3" cx="5.8" cy="12.5" r="2.9"/>
	<path d="M5.8,15.9c-1.9,0-3.4-1.5-3.4-3.4c0-1.9,1.5-3.4,3.4-3.4s3.4,1.5,3.4,3.4C9.1,14.4,7.6,15.9,5.8,15.9z M5.8,10.1
		c-1.3,0-2.4,1.1-2.4,2.4s1.1,2.4,2.4,2.4s2.4-1.1,2.4-2.4S7.1,10.1,5.8,10.1z"/>
</g>
<g>
	<circle class="st3" cx="18.6" cy="18.4" r="2.9"/>
	<path d="M18.6,21.8c-1.9,0-3.4-1.5-3.4-3.4s1.5-3.4,3.4-3.4s3.4,1.5,3.4,3.4S20.5,21.8,18.6,21.8z M18.6,16c-1.3,0-2.4,1.1-2.4,2.4
		s1.1,2.4,2.4,2.4s2.4-1.1,2.4-2.4S19.9,16,18.6,16z"/>
</g>
</svg>
