<!-- SpeedSize.com --><svg data-name="Layer 1" xmlns="http://www.w3.org/2000/svg" viewBox="0 0 100 100"><path d="M28.31 44.57a1.91 1.91 0 01.52-1.41 2 2 0 011.48-.52h5.22v-5.18A2 2 0 0136 36a1.79 1.79 0 011.39-.53 1.76 1.76 0 011.36.53 2 2 0 01.5 1.43v5.18h5a2.2 2.2 0 011.55.52 1.82 1.82 0 01.55 1.41 1.92 1.92 0 01-.51 1.46 2.11 2.11 0 01-1.55.53h-5v5.19a2 2 0 01-.5 1.45 1.82 1.82 0 01-1.36.51A1.86 1.86 0 0136 53.2a2 2 0 01-.5-1.45v-5.19h-5.19a1.94 1.94 0 01-1.48-.56 2 2 0 01-.52-1.43zm26.36 3.85a3.67 3.67 0 011.09-2.7 3.75 3.75 0 016.41 2.7 3.55 3.55 0 01-1.09 2.65 3.87 3.87 0 01-5.32 0 3.59 3.59 0 01-1.09-2.65zm8-8a3.66 3.66 0 011.08-2.7 3.84 3.84 0 015.34 0 3.69 3.69 0 011.07 2.7 3.75 3.75 0 11-7.49 0zm-41.3 33.74a10.2 10.2 0 004.64-1 11.53 11.53 0 003.68-3.08l4.95-6a3.76 3.76 0 011.1-.93 2.67 2.67 0 011.26-.3h26a2.73 2.73 0 011.22.31 4.2 4.2 0 011.15.93l4.95 6A11.2 11.2 0 0074 73.15a10.08 10.08 0 004.6 1 10.74 10.74 0 005.28-1.25 8.92 8.92 0 003.51-3.54A11.11 11.11 0 0088.63 64a22.19 22.19 0 00-.45-4.28c-.29-1.52-.69-3.16-1.2-4.9s-1.22-3.84-2-6-1.64-4.38-2.56-6.6-1.83-4.32-2.75-6.29A40.48 40.48 0 0077.53 32 8.38 8.38 0 0075 29.41a13.61 13.61 0 00-4.33-1.61 73.77 73.77 0 00-9.08-1.43q-5.22-.53-11.58-.53t-11.58.53a73.77 73.77 0 00-9.08 1.43A13.61 13.61 0 0025 29.41 8.21 8.21 0 0022.49 32c-.66 1.05-1.37 2.36-2.15 3.94q-1.38 3-2.73 6.29t-2.55 6.6c-.79 2.17-1.46 4.18-2 6a50.14 50.14 0 00-1.23 4.9 22.19 22.19 0 00-.46 4.27 11.11 11.11 0 001.25 5.38 8.92 8.92 0 003.51 3.54 10.66 10.66 0 005.24 1.24z" fill="#333"/></svg>