<svg id="Layer_1" data-name="Layer 1" xmlns="http://www.w3.org/2000/svg" viewBox="0 0 296.36 331.61"><defs><style>.cls-3{fill:#046;}.cls-4{fill:#cc394e;}</style></defs><g id="Semibold-M"><path class="cls-3" d="M135.15,15a42.61,42.61,0,0,1,7.07.65,64.78,64.78,0,0,1,7.46,1.68c3.37,1.12,8.06,2.71,13.6,4.6,6.33,2.17,13.1,4.52,20.11,7l22.43,8c7.25,2.57,14.07,5,20.27,7.31,5.89,2.16,10.43,3.93,13.48,5.24l.09,0,.08,0c7.85,3.27,11.36,6.32,12.93,8.3.61.79,2.63,4.07,2.63,13.38V186.34a91.85,91.85,0,0,0-13.84-1A88.71,88.71,0,0,0,206,192.54a93.24,93.24,0,0,0-48.67,48.74,88.86,88.86,0,0,0-7.23,35.52,90.18,90.18,0,0,0,3,23.14c-4.28,2.24-8.69,4.52-13.19,6.81l0,0,0,0a18,18,0,0,1-3.32,1.34,8,8,0,0,1-1.26.28,12.12,12.12,0,0,1-1.24-.28,19.53,19.53,0,0,1-3.32-1.32c-22.36-12.08-41.54-23.06-57-32.64C58.81,265,46.83,256,38,247.39c-8.09-7.91-14-16.43-17.56-25.32C16.84,213,15,202.11,15,189.66V71.2c0-9.3,2.05-12.62,2.67-13.42,1.57-2,5.06-5,12.78-8.2,3.21-1.28,7.89-3.07,13.89-5.34,6.49-2.43,13.3-4.94,20.24-7.43,7.89-2.84,15.18-5.42,22.29-7.9,6.62-2.31,13.23-4.59,20.21-7,6.69-2.28,11.06-3.75,13.62-4.6a68.85,68.85,0,0,1,7.52-1.71,41.1,41.1,0,0,1,6.93-.63m0-15a55.86,55.86,0,0,0-9.47.85A82.73,82.73,0,0,0,116.23,3q-4.86,1.62-14,4.72t-20.33,7q-11.2,3.9-22.42,7.94T39.07,30.2q-9.22,3.48-14.24,5.47Q11.8,41,5.9,48.49T0,71.2V189.66q0,21.68,6.56,38t21,30.45Q42,272.21,65.71,286.93t58,33.19a34.21,34.21,0,0,0,6.21,2.46,17,17,0,0,0,10.61,0,32.61,32.61,0,0,0,6.15-2.46q12.23-6.22,23.08-12.06l.28-.15a1.91,1.91,0,0,0,.88-1.63h0a1.72,1.72,0,0,0-.15-.72.13.13,0,0,0,0-.08,75.75,75.75,0,0,1,.36-58.23,78.27,78.27,0,0,1,40.87-40.94,73.45,73.45,0,0,1,29.54-6,74.34,74.34,0,0,1,25.47,4.36l.26.1a2,2,0,0,0,.55.08,1.91,1.91,0,0,0,1.87-1.52,1.75,1.75,0,0,0,0-.4h0a128.57,128.57,0,0,0,.65-13.26V71.2q0-15.24-5.85-22.66T245.51,35.67q-5-2.16-14.24-5.55t-20.45-7.37L188.4,14.8q-11.18-4-20.27-7.06T154.17,3A78.61,78.61,0,0,0,144.69.85,57.11,57.11,0,0,0,135.15,0Z"/></g><g id="Medium-M"><path class="cls-4" d="M292.07,255.61a56.1,56.1,0,0,0-29.38-29.35,54.5,54.5,0,0,0-42.39,0A56.07,56.07,0,0,0,191,255.61,54.2,54.2,0,0,0,191,298a56.09,56.09,0,0,0,29.35,29.35,54.4,54.4,0,0,0,42.35,0A56.15,56.15,0,0,0,292.07,298a54.43,54.43,0,0,0,0-42.36Zm-25.72,4a10.69,10.69,0,0,1-1,1.83L240.52,300.2a6.58,6.58,0,0,1-2.14,2,5.42,5.42,0,0,1-2.74.72,5.75,5.75,0,0,1-2.76-.67,8.07,8.07,0,0,1-2.38-2.09l-13-15.82a7.71,7.71,0,0,1-1.06-1.84,5.11,5.11,0,0,1-.38-1.93,4.85,4.85,0,0,1,1.42-3.48,4.56,4.56,0,0,1,3.42-1.46,4.74,4.74,0,0,1,2.28.54,6.51,6.51,0,0,1,2.07,1.86L235.43,291l22-35.13a5,5,0,0,1,4.31-2.76,5.33,5.33,0,0,1,3.5,1.27,4.16,4.16,0,0,1,1.54,3.35A5.09,5.09,0,0,1,266.35,259.62Z"/></g></svg>