<?xml version="1.0" encoding="UTF-8"?>
<svg id="Layer_1" data-name="Layer 1" xmlns="http://www.w3.org/2000/svg" viewBox="0 0 44.29 54">
  <defs>
    <style>
      .cls-1 {
        fill: #1d1d1f;
      }
    </style>
  </defs>
  <path class="cls-1" d="m40.86,44.95v-11.07c0-2.29-1.86-4.15-4.15-4.15h0c-2.29,0-4.15,1.86-4.15,4.15v11.07c0,2.29,1.86,4.15,4.15,4.15h0c2.29,0,4.15-1.86,4.15-4.15Zm-33.28,4.15h0c2.29,0,4.15-1.86,4.15-4.15v-11.07c0-2.29-1.86-4.15-4.15-4.15h0c-2.29,0-4.15,1.86-4.15,4.15v11.07c0,2.29,1.86,4.14,4.15,4.15h0ZM22.15,10c10.88,0,20.07,10.19,20.07,21.8v13.17h2.08v-13.17c0-12.72-10.17-23.88-22.15-23.88S0,19.08,0,31.8v13.17h2.08v-13.17c0-11.61,9.19-21.8,20.07-21.8Z"/>
</svg>