<!-- SpeedSize.com --><svg data-name="Layer 1" xmlns="http://www.w3.org/2000/svg" viewBox="0 0 100 100"><path d="M86.29 51.55a64.89 64.89 0 01-2.23 16.57 63.21 63.21 0 01-6.18 15.33 2.31 2.31 0 01-1.59 1.29 3 3 0 01-1.63-.11 6 6 0 01-2.23 2.09 6.86 6.86 0 01-5.26.41 6.69 6.69 0 01-4.25-3.22 6.56 6.56 0 01-.35-5.28l5.24-17.56A6.42 6.42 0 0171 56.89a6.83 6.83 0 015.31-.37 6.45 6.45 0 014.07 3 56.61 56.61 0 00.57-8A38.34 38.34 0 0077 33.9a28.78 28.78 0 00-10.8-11.78A30.63 30.63 0 0050 17.91a30.65 30.65 0 00-16.2 4.21A28.58 28.58 0 0023 33.9a38.47 38.47 0 00-3.86 17.65 57.3 57.3 0 00.56 7.91 6.6 6.6 0 014.08-2.94 6.77 6.77 0 015.29.37 6.6 6.6 0 013.17 4.18l5.24 17.56a6.47 6.47 0 01-4.6 8.5 6.92 6.92 0 01-5.28-.41 6.17 6.17 0 01-2.24-2.1 2.84 2.84 0 01-1.62.12 2.3 2.3 0 01-1.57-1.29 63.21 63.21 0 01-6.18-15.33 64.89 64.89 0 01-2.23-16.57 44.2 44.2 0 014.51-20.49A33.11 33.11 0 0130.88 17.4 36.61 36.61 0 0150 12.53a36.57 36.57 0 0119.07 4.87 33.31 33.31 0 0112.69 13.66 44.08 44.08 0 014.53 20.49z" fill="#333"/></svg>