<svg id="Layer_1" data-name="Layer 1" xmlns="http://www.w3.org/2000/svg" viewBox="0 0 100 100"><defs><style>.cls-1{fill:#333;}</style></defs><path class="cls-1" d="M88.18,39.32,50,14.14,11.82,39.32c-.87.57-.4,1.76.71,1.76h8.26V85.86H79.23V41.08h8.24C88.57,41.08,89.06,39.89,88.18,39.32ZM74.59,81.93H25.43V35.28L50,19.12,74.59,35.29Z"/><path class="cls-1" d="M50,25,29.26,38.64V78h41.5V38.65ZM66.38,73.55H33.61V41.68L50,30.91,66.38,41.69Z"/><path class="cls-1" d="M50,36.76,38.38,44.4V69.68H61.63V44.4Zm7.56,28.47H42.43V47.15l7.57-5,7.56,5Z"/></svg>