<?xml version="1.0" encoding="utf-8"?>
<!-- Generator: Adobe Illustrator 27.8.1, SVG Export Plug-In . SVG Version: 6.00 Build 0)  -->
<svg version="1.1" id="Layer_1" xmlns="http://www.w3.org/2000/svg" xmlns:xlink="http://www.w3.org/1999/xlink" x="0px" y="0px"
	 viewBox="0 0 352.1 500" style="enable-background:new 0 0 352.1 500;" xml:space="preserve" fill="#046">
<style type="text/css">
	.st2{fill:#CF122F;}
	.st3{fill:#FBFBFD;}
</style>
<g>
	<path class="st2" d="M28.7,126.2h294.8c13.6,0,24.7,11.1,24.7,24.7v294.8c0,13.6-11.1,24.7-24.7,24.7H28.7
		C15.1,470.3,4,459.3,4,445.6V150.9C4,137.2,15.1,126.2,28.7,126.2z"/>
	<g id="Regular-S">
		<path class="st3" d="M176.1,404.3c1.5,0,4.1-0.4,7-1.9c60.8-30.7,80.7-47.6,80.7-86.9v-80.1c0-10.8-5.1-14.2-13.4-17.7
			c-10.8-4.6-54.7-20.3-65.4-24c-2.8-1-6-1.5-8.9-1.5s-6.2,0.7-9.1,1.5c-10.8,3.3-54.5,19.5-65.4,24c-8.3,3.4-13.4,6.9-13.4,17.7
			v80.1c0,39.2,21.1,54,80.8,86.9C171.9,404,174.5,404.3,176.1,404.3L176.1,404.3z"/>
	</g>
</g>
</svg>
