<?xml version="1.0" encoding="UTF-8"?>
<svg id="Layer_1" data-name="Layer 1" xmlns="http://www.w3.org/2000/svg" viewBox="0 0 651.06 79.94">
  <defs>
    <style>
      .cls-1 {
        fill: #fbfbfd;
        stroke-width: 0px;
      }
    </style>
  </defs>
  <g>
    <g>
      <path class="cls-1" d="m77.75,11.24c0-3.49,2.83-6.28,6.33-6.28s6.33,2.79,6.33,6.28-2.83,6.28-6.33,6.28-6.33-2.83-6.33-6.28Zm.86,14.07h10.94v53.26h-10.94V25.31Z"/>
      <path class="cls-1" d="m129.45,5.51c14.18,0,24.05,9.77,24.05,24s-10.07,24.1-24.4,24.1h-15.7v24.96h-11.34V5.51h27.39Zm-16.05,38.58h13.01c9.87,0,15.49-5.32,15.49-14.53s-5.62-14.48-15.44-14.48h-13.06v29.01Z"/>
      <path class="cls-1" d="m161.27,5.51h10.83v28.71h.25c2.94-6.23,8.76-9.82,16.86-9.82,11.7,0,18.68,7.8,18.68,19.85v34.33h-10.99v-32.2c0-7.85-3.95-12.56-11.64-12.56-8.1,0-13.06,5.57-13.06,13.97v30.78h-10.94V5.51Z"/>
      <path class="cls-1" d="m215.54,51.94c0-17.11,10.08-27.59,25.26-27.59s25.26,10.48,25.26,27.59-10.02,27.64-25.26,27.64-25.26-10.48-25.26-27.64Zm39.39,0c0-11.8-5.57-18.58-14.12-18.58s-14.13,6.78-14.13,18.58,5.57,18.63,14.13,18.63,14.12-6.78,14.12-18.63Z"/>
      <path class="cls-1" d="m274.22,25.31h10.43v8.91h.25c2.89-6.08,8.56-9.82,16.76-9.82,11.75,0,18.48,7.49,18.48,19.69v34.48h-10.99v-32.35c0-8-3.75-12.4-11.34-12.4s-12.66,5.47-12.66,13.72v31.04h-10.94V25.31Z"/>
      <path class="cls-1" d="m375.83,62.93c-1.52,9.72-10.73,16.66-22.93,16.66-15.64,0-25.11-10.58-25.11-27.39s9.62-27.85,24.66-27.85,24,10.43,24,26.58v3.75h-37.62v.66c0,9.26,5.57,15.39,14.33,15.39,6.23,0,10.83-3.14,12.3-7.8h10.38Zm-36.96-15.9h26.63c-.25-8.15-5.42-13.87-13.06-13.87s-13.01,5.82-13.57,13.87Z"/>
      <path class="cls-1" d="m433.33,58.27h10.83c.81,7.24,6.99,12.2,15.14,12.2,9.26,0,15.64-6.43,15.64-15.54s-6.43-15.44-15.54-15.44c-6.53,0-11.75,2.78-14.83,8.15h-9.92l3.59-42.12h43.54v9.57h-34.38l-2.23,23.14h.25c3.29-4.91,9.37-7.7,16.56-7.7,13.97,0,24.05,10.13,24.05,24.1,0,14.94-11.04,25.31-26.83,25.31-14.58,0-25.21-8.91-25.87-21.67Z"/>
      <path class="cls-1" d="m538.5,5.51c14.18,0,24.05,9.77,24.05,24s-10.07,24.1-24.4,24.1h-15.7v24.96h-11.34V5.51h27.39Zm-16.05,38.58h13.01c9.87,0,15.49-5.32,15.49-14.53s-5.62-14.48-15.44-14.48h-13.06v29.01Z"/>
      <path class="cls-1" d="m571.16,25.31h10.43v9.06h.25c1.77-6.23,6.53-9.92,12.81-9.92,1.57,0,2.94.25,3.75.41v10.18c-.86-.35-2.78-.61-4.91-.61-7.04,0-11.39,4.71-11.39,12.25v31.9h-10.94V25.31Z"/>
      <path class="cls-1" d="m600.53,51.94c0-17.11,10.08-27.59,25.26-27.59s25.26,10.48,25.26,27.59-10.02,27.64-25.26,27.64-25.26-10.48-25.26-27.64Zm39.39,0c0-11.8-5.57-18.58-14.12-18.58s-14.13,6.78-14.13,18.58,5.57,18.63,14.13,18.63,14.12-6.78,14.12-18.63Z"/>
    </g>
    <g>
      <path class="cls-1" d="m47.9,19.13c-6.52-.48-12.05,3.64-15.13,3.64s-7.96-3.54-13.07-3.44c-6.72.1-12.91,3.91-16.38,9.93-6.98,12.11-1.78,30.06,5.02,39.89,3.33,4.8,7.29,10.22,12.5,10.02,5.01-.2,6.91-3.24,12.97-3.24s7.77,3.24,13.07,3.15c5.4-.1,8.82-4.9,12.12-9.73,3.82-5.58,5.39-10.97,5.48-11.26-.12-.05-10.52-4.04-10.62-16.02-.09-10.02,8.18-14.83,8.55-15.07-4.7-6.92-11.95-7.68-14.5-7.87Z"/>
      <path class="cls-1" d="m43.87,12.64c2.77-3.35,4.63-8.01,4.12-12.64-3.98.16-8.8,2.65-11.66,6-2.56,2.96-4.81,7.71-4.2,12.25,4.44.34,8.97-2.26,11.74-5.6Z"/>
    </g>
  </g>
  <polygon class="cls-1" points="410.33 5.51 394.34 16.88 394.34 27.68 410.18 16.75 410.43 16.75 410.43 78.57 421.52 78.57 421.52 5.51 410.33 5.51"/>
</svg>