<svg id="Layer_1" data-name="Layer 1" xmlns="http://www.w3.org/2000/svg" viewBox="0 0 150 150"><defs><style>.cls-1{fill:#333;fill-rule:evenodd;}</style></defs><g id="Light"><g id="Compare"><path class="cls-1" d="M105.63,22.44H30.82a4.15,4.15,0,0,0-3.72,4.14v26h5.47V33.39h71.17v95.8H73.63v7.5a6.06,6.06,0,0,1-1.09,3.45h33.09a3.55,3.55,0,0,0,3.58-3.53v-110A4,4,0,0,0,105.63,22.44Zm-37.47,7.5a1.81,1.81,0,1,1,1.8-1.8h0A1.8,1.8,0,0,1,68.16,29.94Z"/><path class="cls-1" d="M51.73,19.71V17a2.74,2.74,0,0,1,2.74-2.74h76.64A2.74,2.74,0,0,1,133.85,17v115a2.74,2.74,0,0,1-2.74,2.74H112v2.16a3.56,3.56,0,0,1-2,3.31h21.13a8.2,8.2,0,0,0,8.21-8.21V17a8.21,8.21,0,0,0-8.21-8.21H54.47A8.22,8.22,0,0,0,46.26,17v2.74Z"/><path id="iPad_Mini_4" data-name="iPad Mini 4" class="cls-1" d="M67.45,55.29H14.15a3.55,3.55,0,0,0-3.47,3.45v78.12a3.44,3.44,0,0,0,3.47,3.28h53.3a3.58,3.58,0,0,0,3.44-3.45V58.74A3.55,3.55,0,0,0,67.45,55.29Zm-26.8,3.42a1.18,1.18,0,1,1-1.18,1.18,1.18,1.18,0,0,1,1.18-1.18Zm.14,80.06A2.74,2.74,0,1,1,43.52,136,2.73,2.73,0,0,1,40.79,138.77Zm27.37-6.84H13.41V63.5H68.16Z"/></g></g></svg>