<svg id="Layer_1" xmlns="http://www.w3.org/2000/svg" viewBox="0 0 258 79"><defs><style>.cls-1{fill:#231f20;}</style></defs><g><path class="cls-1" d="M77.26,11.2c0-3.47,2.82-6.23,6.29-6.23s6.24,2.77,6.24,6.23-2.77,6.24-6.24,6.24-6.29-2.82-6.29-6.24Zm.85,13.99h10.86v52.9h-10.86V25.19Z"/><path class="cls-1" d="M128.71,5.53c14.08,0,23.89,9.71,23.89,23.84s-10.01,23.94-24.24,23.94h-15.59v24.79h-11.26V5.53h27.21Zm-15.94,38.32h12.92c9.81,0,15.39-5.28,15.39-14.43s-5.58-14.38-15.34-14.38h-12.97v28.81Z"/><path class="cls-1" d="M155.54,63.06c0-9.25,7.09-14.94,19.66-15.64l14.48-.85v-4.07c0-5.88-3.97-9.4-10.61-9.4-6.29,0-10.21,3.02-11.16,7.74h-10.26c.6-9.55,8.75-16.59,21.82-16.59s21.02,6.79,21.02,17.4v36.46h-10.41v-8.7h-.25c-3.07,5.88-9.75,9.6-16.69,9.6-10.36,0-17.6-6.44-17.6-15.94Zm34.14-4.78v-4.17l-13.02,.8c-6.49,.45-10.16,3.32-10.16,7.84s3.82,7.64,9.65,7.64c7.59,0,13.53-5.23,13.53-12.12Z"/><path class="cls-1" d="M208.13,51.64c0-16.69,8.85-27.31,22.13-27.31,7.59,0,13.63,3.82,16.59,9.65h.2V5.53h10.91V78.1h-10.56v-9h-.2c-3.12,6.03-9.15,9.91-16.85,9.91-13.38,0-22.23-10.66-22.23-27.36Zm11.11,0c0,11.16,5.38,18.15,13.98,18.15s13.93-7.09,13.93-18.15-5.58-18.15-13.93-18.15-13.98,7.04-13.98,18.15Z"/></g><g><path class="cls-1" d="M43.61,12.61c2.71-3.4,4.56-7.95,4.07-12.61-3.97,.2-8.82,2.62-11.63,6.02-2.52,2.91-4.75,7.66-4.17,12.12,4.46,.39,8.92-2.23,11.73-5.53"/><path class="cls-1" d="M47.63,19.01c-6.48-.39-11.99,3.68-15.08,3.68s-7.83-3.48-12.96-3.39c-6.67,.1-12.86,3.87-16.24,9.87-6.96,12-1.84,29.79,4.93,39.56,3.29,4.83,7.25,10.16,12.47,9.97,4.93-.19,6.87-3.19,12.86-3.19s7.73,3.19,12.95,3.1c5.41-.1,8.8-4.84,12.09-9.68,3.77-5.51,5.31-10.83,5.41-11.12-.1-.1-10.44-4.06-10.54-15.96-.1-9.96,8.12-14.7,8.51-14.99-4.64-6.86-11.89-7.64-14.41-7.83"/></g></svg>