<!-- SpeedSize.com --><svg xmlns="http://www.w3.org/2000/svg" viewBox="0 0 31 54"><g id="Light"><g id="Accessories" fill="#1d1d1f"><path d="M27 12h2v35h-2v4h2.7a1.3 1.3 0 001.3-1.32V9.51A1.47 1.47 0 0029.69 8H27z" fill-rule="evenodd"/><path id="iPad_Accessories" data-name="iPad Accessories" d="M26 51.65V7.35A1.33 1.33 0 0024.64 6a54.49 54.49 0 00-5.27 2A2.24 2.24 0 0018 9.93v39.2A2.23 2.23 0 0019.36 51s4.67 1.91 5.27 2A1.35 1.35 0 0026 51.65zM0 9.56v39.88A1.57 1.57 0 001.58 51h7.34A1.51 1.51 0 018 49.44V9.56A1.64 1.64 0 018.92 8H1.58A1.58 1.58 0 000 9.56zm9 0v39.88A1.57 1.57 0 0010.58 51h7.34a1.51 1.51 0 01-.92-1.56V9.56A1.64 1.64 0 0117.92 8h-7.34A1.58 1.58 0 009 9.56z"/></g></g></svg>