<svg id="Layer_1" xmlns="http://www.w3.org/2000/svg" viewBox="0 0 424 79"><defs><style>.cls-3{fill:#fbfbfd;}</style></defs><g><path class="cls-3" d="M77.17,11.2c0-3.47,2.81-6.23,6.28-6.23s6.23,2.76,6.23,6.23-2.76,6.23-6.23,6.23-6.28-2.81-6.28-6.23Zm.85,13.96h10.85v52.83h-10.85V25.16Z"/><path class="cls-3" d="M128.55,5.52c14.06,0,23.85,9.69,23.85,23.81s-9.99,23.91-24.21,23.91h-15.57v24.76h-11.25V5.52h27.17Zm-15.92,38.27h12.91c9.79,0,15.37-5.27,15.37-14.41s-5.57-14.36-15.32-14.36h-12.96v28.78Z"/><path class="cls-3" d="M155.34,62.98c0-9.24,7.08-14.92,19.64-15.62l14.46-.85v-4.07c0-5.88-3.97-9.39-10.6-9.39-6.28,0-10.2,3.01-11.15,7.73h-10.25c.6-9.54,8.74-16.57,21.8-16.57s20.99,6.78,20.99,17.38v36.41h-10.4v-8.69h-.25c-3.06,5.88-9.74,9.59-16.67,9.59-10.35,0-17.58-6.43-17.58-15.92Zm34.1-4.77v-4.17l-13.01,.8c-6.48,.45-10.14,3.31-10.14,7.83s3.82,7.63,9.64,7.63c7.58,0,13.51-5.22,13.51-12.1Z"/><path class="cls-3" d="M207.87,51.58c0-16.67,8.84-27.27,22.1-27.27,7.58,0,13.61,3.82,16.57,9.64h.2V5.52h10.9V78h-10.55v-8.99h-.2c-3.11,6.03-9.14,9.89-16.82,9.89-13.36,0-22.2-10.65-22.2-27.32Zm11.1,0c0,11.15,5.37,18.13,13.96,18.13s13.91-7.08,13.91-18.13-5.57-18.13-13.91-18.13-13.96,7.03-13.96,18.13Z"/><path class="cls-3" d="M312.31,5.52c14.06,0,23.85,9.69,23.85,23.81s-9.99,23.91-24.21,23.91h-15.57v24.76h-11.25V5.52h27.17Zm-15.92,38.27h12.91c9.79,0,15.37-5.27,15.37-14.41s-5.57-14.36-15.32-14.36h-12.96v28.78Z"/><path class="cls-3" d="M344.71,25.16h10.35v8.99h.25c1.76-6.18,6.48-9.84,12.71-9.84,1.56,0,2.91,.25,3.72,.4v10.09c-.85-.35-2.76-.6-4.87-.6-6.98,0-11.3,4.67-11.3,12.15v31.64h-10.85V25.16Z"/><path class="cls-3" d="M373.84,51.58c0-16.97,9.99-27.37,25.06-27.37s25.06,10.4,25.06,27.37-9.94,27.42-25.06,27.42-25.06-10.4-25.06-27.42Zm39.07,0c0-11.7-5.52-18.43-14.01-18.43s-14.01,6.73-14.01,18.43,5.52,18.48,14.01,18.48,14.01-6.73,14.01-18.48Z"/></g><g><path class="cls-3" d="M43.56,12.6c2.71-3.39,4.55-7.94,4.07-12.6-3.97,.2-8.81,2.62-11.62,6.01-2.52,2.91-4.75,7.65-4.16,12.11,4.45,.39,8.91-2.23,11.71-5.52"/><path class="cls-3" d="M47.58,18.99c-6.47-.39-11.97,3.67-15.06,3.67s-7.82-3.48-12.94-3.38c-6.66,.1-12.84,3.86-16.22,9.85-6.95,11.98-1.83,29.76,4.93,39.51,3.28,4.83,7.24,10.14,12.45,9.95,4.93-.19,6.86-3.19,12.84-3.19s7.72,3.19,12.94,3.09c5.41-.1,8.79-4.83,12.07-9.66,3.77-5.5,5.31-10.82,5.4-11.11-.1-.1-10.43-4.06-10.52-15.94-.1-9.95,8.11-14.68,8.5-14.98-4.63-6.85-11.88-7.63-14.39-7.82"/></g></svg>