<?xml version="1.0" encoding="utf-8"?>
<!-- Generator: Adobe Illustrator 27.0.0, SVG Export Plug-In . SVG Version: 6.00 Build 0)  -->
<svg version="1.1" id="Layer_1" xmlns="http://www.w3.org/2000/svg" xmlns:xlink="http://www.w3.org/1999/xlink" x="0px" y="0px"
	 viewBox="0 0 49 54" style="enable-background:new 0 0 49 54;" xml:space="preserve">
<style type="text/css">
	.st0{fill-rule:evenodd;clip-rule:evenodd;fill:#1D1D1F;}
	.st1{fill:#1D1D1F;}
</style>
<g>
	<path class="st1" d="M31.2,2.9H4.4c-1.9,0-3.4,1.5-3.4,3.3v41.3c0,1.8,1.5,3.3,3.4,3.3h5.5c-0.3-0.4-0.4-0.8-0.4-1.3v-0.9H4.3
		c-0.6,0-1-0.5-1-1.1V6.1c0-0.6,0.5-1,1.1-1h26.9c0.6,0,1,0.5,1,1.1v0.7h2.2V6.2C34.5,4.4,33,2.9,31.2,2.9z"/>
	<path class="st1" d="M39.2,8H11.8c-0.8,0.1-1.4,0.7-1.4,1.5v40.2c0,0.7,0.6,1.3,1.4,1.3h13.1c-0.6-0.6-0.9-1.4-0.9-2.3V47H12.5V12
		h26v5h2V9.5C40.5,8.7,39.9,8,39.2,8z M25.5,10.7c-0.4,0-0.7-0.3-0.7-0.7c0-0.4,0.3-0.7,0.7-0.7s0.7,0.3,0.7,0.7
		C26.1,10.4,25.8,10.7,25.5,10.7z"/>
	<path class="st0" d="M27.3,18C26,18,25,19,25,20.3v28.4c0,1.3,1,2.3,2.3,2.3h18.4c1.3,0,2.3-1,2.3-2.3V20.3c0-1.3-1-2.3-2.3-2.3
		L27.3,18z M46,48.2c0,0.4-0.3,0.7-0.7,0.7H27.7c-0.4,0-0.7-0.3-0.7-0.7V20.7c0-0.4,0.3-0.7,0.7-0.7h17.5c0.4,0,0.7,0.3,0.7,0.7
		V48.2z"/>
</g>
</svg>
