<!-- SpeedSize.com --><svg xmlns="http://www.w3.org/2000/svg" viewBox="0 0 41 54"><defs><style>.cls-1{fill:#1d1d1f;fill-rule:evenodd}</style></defs><g id="Light"><g id="iPad_Pro" data-name="iPad Pro"><path class="cls-1" d="M34 7V6a3 3 0 00-3-3H3a3 3 0 00-3 3v42a3 3 0 003 3h8.27A2.6 2.6 0 0110 49H3a1 1 0 01-1-1V6a1 1 0 011-1h28a1 1 0 011 1v1z"/><path class="cls-1" d="M14 8a3 3 0 00-3 3v37a3 3 0 003 3h24a3 3 0 003-3V11a3 3 0 00-3-3m1 40a1 1 0 01-1 1H14a1 1 0 01-1-1V11a1 1 0 011-1h24a1 1 0 011 1z"/></g></g></svg>