<!-- SpeedSize.com --><svg version="1.1" id="Layer_1" xmlns="http://www.w3.org/2000/svg" x="0" y="0" viewBox="0 0 35 54" xml:space="preserve"><style>.st1{fill:#141414}</style><path fill="none" d="M0 0h35v54H0z"/><path class="st1" d="M30.2 20H17.8c-1 0-1.8.9-1.8 1.9v23.2c0 1 .8 1.9 1.8 1.9h12.4c1 0 1.8-.9 1.8-1.9V21.9c0-1-.8-1.9-1.8-1.9z"/><path class="st1" d="M12 46.1V9.9C11.9 7.2 14.1 5 16.7 5h7.5c-.4-1.7-2-3-3.8-3H3.9C1.7 2 0 3.7 0 5.9v40.2C0 48.3 1.7 50 3.9 50h10c-1.2-.9-1.9-2.3-1.9-3.9zM10 9.5c0 1.4-1.1 2.5-2.5 2.5h-3C3.1 12 2 10.9 2 9.5v-3C2 5.1 3.1 4 4.5 4h3C8.9 4 10 5.1 10 6.5v3z"/><path class="st1" d="M31.1 6H16.9C14.7 6 13 7.7 13 9.9v36.2c0 2.1 1.7 3.9 3.9 3.9h14.2c2.1 0 3.9-1.7 3.9-3.9V9.9C35 7.8 33.3 6 31.1 6zM15 10.5C15 9.1 16.1 8 17.5 8h3c1.4 0 2.5 1.1 2.5 2.5v3c0 1.4-1.1 2.5-2.5 2.5h-3c-1.4 0-2.5-1.1-2.5-2.5v-3zm18 34.6c0 1.6-1.2 2.9-2.8 2.9H17.8c-1.6 0-2.8-1.3-2.8-2.9V21.9c0-1.6 1.2-2.9 2.8-2.9h12.4c1.6 0 2.8 1.3 2.8 2.9v23.2z"/></svg>