<svg id="Layer_1" data-name="Layer 1" xmlns="http://www.w3.org/2000/svg" viewBox="0 0 150 150"><defs><style>.cls-1{fill:#333;}</style></defs><path class="cls-1" d="M116.3,130.58a2.92,2.92,0,1,0,2.91,2.92,2.92,2.92,0,0,0-2.91-2.92Zm0,7.41a4.52,4.52,0,1,1,4.52-4.52A4.52,4.52,0,0,1,116.3,138Zm5.81-94.21H110.49a.65.65,0,0,1,0-1.29h11.62a.65.65,0,0,1,0,1.29Zm11-7.1H107.26V49.59h31V127h-31v5.16a9.66,9.66,0,0,1-3.56,7.75h29.38a7.75,7.75,0,0,0,7.74-7.75V44.42A7.75,7.75,0,0,0,133.08,36.68Z"/><path class="cls-1" d="M66,132.24a5.37,5.37,0,0,1-5.52,5.12H17.28a5.37,5.37,0,0,1-5.52-5.12V23.72a5.38,5.38,0,0,1,5.52-5.13H24a1.32,1.32,0,0,1,1.35,1.28v1.28a2.64,2.64,0,0,0,2.7,2.57H49.66a2.64,2.64,0,0,0,2.7-2.57V19.87a1.32,1.32,0,0,1,1.35-1.28h6.74A5.38,5.38,0,0,1,66,23.72ZM36.23,19.18H41.5a.64.64,0,1,1,0,1.28H36.23a.64.64,0,0,1,0-1.28Zm8.12-.2a.83.83,0,0,1,.82.87.85.85,0,0,1-1.69,0A.86.86,0,0,1,44.35,19ZM60.45,16H17.28a7.9,7.9,0,0,0-8.1,7.69V132.24a7.9,7.9,0,0,0,8.1,7.69H60.45a7.9,7.9,0,0,0,8.1-7.69V23.72A7.9,7.9,0,0,0,60.45,16Z"/><path class="cls-1" d="M67.54,139.91H97.12a7.43,7.43,0,0,0,7.56-7.21V33.43a7.32,7.32,0,0,0-7.56-7.07h-26V34.1H86.38a2.48,2.48,0,0,0,2.52-2.4V30.11a1.22,1.22,0,0,1,1.26-1.17h7a4.87,4.87,0,0,1,5,4.69v98.86a5,5,0,0,1-5,4.86H69.68A10.49,10.49,0,0,1,67.54,139.91ZM74.7,29.6h5.1a.65.65,0,0,1,0,1.29H74.7a.65.65,0,1,1,0-1.29Zm7.85-.21a.85.85,0,1,1,0,1.7.85.85,0,0,1-.86-.84h0a.85.85,0,0,1,.84-.85Z"/></svg>