<!-- SpeedSize.com --><svg xmlns="http://www.w3.org/2000/svg" viewBox="0 0 22 54"><path d="M18.8 7H3.2C1.4 7 0 8.4 0 10.2v37.6C0 49.6 1.4 51 3.2 51h15.6c1.8 0 3.2-1.4 3.2-3.2V10.2C22 8.4 20.6 7 18.8 7zm-5.7 1.1c.2 0 .3.1.3.3s-.1.3-.3.3-.3-.1-.3-.3c0-.1.1-.3.3-.3zm-3.1.1h2c.1 0 .2.1.2.2s-.1.3-.2.3h-2c-.1 0-.2-.1-.2-.2s.1-.3.2-.3zm11 39.6c0 1.2-1 2.2-2.2 2.2H3.2C2 50 1 49 1 47.8V10.2C1 9 2 8 3.2 8h2.3c.3 0 .5.2.5.5V9c0 .6.4 1 1 1h8c.6 0 1-.4 1-1v-.5c0-.3.2-.5.5-.5h2.3C20 8 21 9 21 10.2v37.6z" fill="#141414"/></svg>