<?xml version="1.0" encoding="UTF-8"?>
<svg id="Layer_1" data-name="Layer 1" xmlns="http://www.w3.org/2000/svg" viewBox="0 0 50 50">
  <defs>
    <style>
      .cls-1 {
        fill: #1d1d1f;
      }
    </style>
  </defs>
  <path class="cls-1" d="m41.35,3c3.11,0,5.65,2.53,5.65,5.65v48.7c0,3.11-2.53,5.65-5.65,5.65H8.65c-3.11,0-5.65-2.53-5.65-5.65V8.65c0-3.11,2.53-5.65,5.65-5.65h32.7m0-3H8.65C3.87,0,0,3.87,0,8.65v48.7c0,4.78,3.87,8.65,8.65,8.65h32.7c4.78,0,8.65-3.87,8.65-8.65V8.65c0-4.78-3.87-8.65-8.65-8.65h0Z"/>
  <path class="cls-1" d="m31,6h-12c-1.38,0-2.5,1.12-2.5,2.5s1.12,2.5,2.5,2.5h12c1.38,0,2.5-1.12,2.5-2.5s-1.12-2.5-2.5-2.5h0Z"/>
</svg>