<!-- SpeedSize.com --><svg xmlns="http://www.w3.org/2000/svg" viewBox="0 0 36 54"><path fill="none" d="M0 0h36v54H0z"/><path d="M9.2 11.3h2c.1 0 .3.1.2.3 0 .1-.1.2-.2.2h-2c-.1 0-.3-.1-.2-.3 0-.1.1-.2.2-.2zm3.1-.1c.2 0 .3.1.3.3 0 .2-.1.3-.3.3-.2 0-.3-.1-.3-.3 0-.1 0-.2.1-.2.1-.1.1-.1.2-.1zM3.2 49c-1.1.1-2.1-.8-2.2-1.9V12.8c.1-1.1 1.1-1.9 2.2-1.9H5c.3 0 .5.2.5.4v.7c0 .5.5.9 1 .9H13v-3H3.2C1.6 9.8.2 11 0 12.6V47c.1 1.8 1.5 3 3.2 3h11.2c-.4-.2-.7-.6-.9-1H3.2zM35 47.1c0 1.1-.9 1.9-2 1.9H16.9c-1 0-1.9-.8-1.9-1.9V8.8c0-1 .9-1.8 1.9-1.8h2.7c.3 0 .5.2.5.5v.6c0 .5.5.9 1 .9h7.8c.5 0 1-.4 1-.9v-.6c0-.3.2-.5.5-.5h2.7c1 0 1.9.8 2 1.8L35 47.1zM24.4 7.3h2c.1 0 .2.1.2.2s-.1.2-.2.2h-2c-.1 0-.2-.1-.2-.2s0-.2.2-.2zm3-.1c.2 0 .3.1.3.3 0 .2-.1.3-.3.3s-.3-.1-.3-.3c0-.2.1-.3.3-.3zM33.1 6H16.9C15.3 5.9 14 7.2 14 8.7v38.5c0 1.6 1.4 2.8 2.9 2.8H33c1.6 0 2.9-1.2 2.9-2.8V8.7c0-1.5-1.3-2.8-2.8-2.7z" fill="#141414"/></svg>