<svg id="Layer_1" data-name="Layer 1" xmlns="http://www.w3.org/2000/svg" viewBox="0 0 150 150"><defs><style>.cls-5{fill:#666;}.cls-4{fill:#cc394e;}</style></defs><g id="Regular-M"><path class="cls-5" d="M132.57,143.55l7.09-7.09a2.38,2.38,0,0,0,.76-2,6.8,6.8,0,0,0-.88-2.58l-11-20.17a5.91,5.91,0,0,0-5.15-3.4l-6.42-.3L85.56,76.61,72.83,89.75,104.1,121l.3,6.42a5.13,5.13,0,0,0,.91,2.81,6.14,6.14,0,0,0,2.48,2.22l20.3,11.08a7.23,7.23,0,0,0,2.45.79A2.4,2.4,0,0,0,132.57,143.55Z"/><path class="cls-4" d="M49.21,86.84,86.16,56.61,43.21,13.35Q36.85,7,30.18,7t-12.9,6.21L9.22,21.23Q3,27.47,3,34.1t6.36,13ZM45.63,60.91,21.58,37a2.23,2.23,0,0,1-.7-1.72,2.79,2.79,0,0,1,.7-1.79,2.37,2.37,0,0,1,1.76-.64,2.28,2.28,0,0,1,1.63.64L49.08,57.58a2.18,2.18,0,0,1,.7,1.67,2.48,2.48,0,0,1-.7,1.66,2.4,2.4,0,0,1-3.45,0Zm7.94-7.81-24-24.18a2.3,2.3,0,0,1-.7-1.63,2.21,2.21,0,0,1,.7-1.7,2.37,2.37,0,0,1,1.66-.69,2.28,2.28,0,0,1,1.73.69L57,49.58a2.29,2.29,0,0,1,.67,1.7A2.59,2.59,0,0,1,57,53.1a2.47,2.47,0,0,1-1.67.66A2,2,0,0,1,53.57,53.1Z"/><path class="cls-5" d="M12.49,138.28a26.84,26.84,0,0,0,11.42,7,22,22,0,0,0,12.3.06,25.5,25.5,0,0,0,11.3-6.94,42.22,42.22,0,0,0,5.69-7q2.37-3.67,4.67-8t5.42-9.73q3.12-5.39,7.91-12.14t12-15.27q7.27-8.52,17.94-19.18l-5.27-5.33q-11.7,11.7-19.3,20.48t-12.3,15.3Q59.63,104,56.78,109t-4.94,8.78c-1.39,2.59-2.87,5-4.42,7.36a48.87,48.87,0,0,1-6.09,7.24A15.62,15.62,0,0,1,30,137.46q-6.27,0-11.54-5.18t-5.21-11.57a15.57,15.57,0,0,1,5-11.27,51.22,51.22,0,0,1,7.3-6.09c2.32-1.55,4.78-3,7.39-4.42s5.53-3,8.78-4.94,7.06-4.41,11.42-7.54,9.47-7.23,15.3-12.3S81.15,62.65,89,54.86l-5.27-5.28Q73,60.25,64.5,67.52t-15.26,12q-6.77,4.75-12.15,7.88t-9.73,5.45q-4.32,2.34-8,4.67a40.69,40.69,0,0,0-7,5.66,26.07,26.07,0,0,0-6.94,11.33,22,22,0,0,0,.06,12.3A26.91,26.91,0,0,0,12.49,138.28Zm17.27-9.63a7.55,7.55,0,0,0,7.51-7.51,7.14,7.14,0,0,0-2.21-5.27,7.27,7.27,0,0,0-5.3-2.19,7.46,7.46,0,0,0-7.45,7.46,7.26,7.26,0,0,0,2.18,5.3A7.14,7.14,0,0,0,29.76,128.65Zm58.1-65.8a35.59,35.59,0,0,0,11.66,7.88,36.48,36.48,0,0,0,13.24,2.82,34.4,34.4,0,0,0,13.15-2.28,33,33,0,0,0,19.23-20,35.23,35.23,0,0,0,1.64-14.81A35.78,35.78,0,0,0,142,21.78l-5.87,5.93a27.86,27.86,0,0,1,2.84,10.76,26.67,26.67,0,0,1-1.54,10.66,24.39,24.39,0,0,1-5.79,9.06,24.65,24.65,0,0,1-12,6.66,27.46,27.46,0,0,1-13.76-.36,28.86,28.86,0,0,1-19.66-19.6,27.3,27.3,0,0,1-.33-13.78,24.23,24.23,0,0,1,6.76-11.94A24.56,24.56,0,0,1,107,12.05a26.18,26.18,0,0,1,16,2.7l5.94-5.94A35.39,35.39,0,0,0,114.33,4,35,35,0,0,0,99.58,5.63,31.66,31.66,0,0,0,87,13.54a31.82,31.82,0,0,0-7.48,11.33A34.31,34.31,0,0,0,77.2,38,36.11,36.11,0,0,0,80,51.19,35.74,35.74,0,0,0,87.86,62.85Zm18.36-27.2,9,8.91A10.49,10.49,0,0,0,122.51,48a9.68,9.68,0,0,0,7.15-3.15l12.73-12.79-5.34-5.27L125.48,38.25q-2.72,2.79-5.45,0l-7.39-7.45c-1.94-2-2-3.83-.3-5.57L124,13.66l-5.51-5.33L105.91,21a9.61,9.61,0,0,0-3.27,7.27A10.84,10.84,0,0,0,106.22,35.65Z"/></g></svg>