<?xml version="1.0" encoding="UTF-8"?>
<svg id="Layer_1" data-name="Layer 1" xmlns="http://www.w3.org/2000/svg" viewBox="0 0 235.88 235.69">
  <defs>
    <style>
      .cls-6 {
        fill: #666;
      }

      .cls-7 {
        fill: #cc394e;
      }
    </style>
  </defs>
  <g id="s8vLK5.tif">
    <g>
      <path class="cls-6" d="m205.03,83.4c-.15-.72-.31-1.44-.49-2.15-2.13-8.69-4.93-16.74-8.43-24.13C179.18,23.26,144.04,0,103.45,0,46.32,0,0,46.07,0,102.91s46.32,102.92,103.45,102.92c3.42,0,6.8-.17,10.14-.49,6.15-.68,12.41-1.88,18.77-3.6,2.11-.57,3.03-1.25,2.45-3.75-1.36-5.97-1.36-6.32-7.21-4.06-4.06,1.57-5.61.49-6.34-3.51-3.29-18.14-6.53-36.28-10.23-54.34-.58-2.81-.14-4.27,1.69-5.92,4.04-3.64,8.01-7.37,12.07-10.99,1.65-1.47,3.05-2.1,5.57-.57,9.92,6.04,20.27,11.39,30.15,17.49,3.58,2.2,6.06,1.91,9.08-.79-11.62-6.63-23.06-13.33-34.67-19.7-3.38-1.86-5.16-3.79-4.85-7.93.41-5.44.13-10.94.03-16.41-.03-2.1.46-3.48,2.36-4.88,4.48-3.3,8.59-7.1,12.87-10.68,10.32-8.63,20.69-17.21,30.96-25.9,2.91-2.47,4.67-1.83,6.57,1.27,14.46,23.53,18.62,48.64,11.82,75.49-1.11,4.37-.06,5.39,4.33,5.63,4.02.22,4.14-2.86,4.69-5.15,1.94-8.16,3.11-16.44,3.19-24.68.07-6.35-.5-12.69-1.86-18.96ZM133.68,12.58c6.03,2.14,11.61,5.2,17.3,8.04,1.1.55,1.98,1.16,2.12,2.84-.23.45-.56,1.18-.96,1.88-7.09,12.35-14.31,24.63-21.2,37.09-1.88,3.4-3.61,3.08-6.07,1.14-1.53-1.21-3.1-2.4-4.61-3.66-1.27-1.07-1.91-1.98-1.32-4.11,3.76-13.65,7.21-27.39,10.7-41.11.6-2.39,1.54-3.01,4.04-2.11Zm-10.86,65.37c-2.87,5.53-6.39,10.73-9.35,16.22-1.24,2.29-2.99,3.73-5.96,5.55,3.09-11.65,6.04-22.3,8.69-33.04.67-2.72,1.28-2.98,3.46-1.36,8.15,6.07,8.23,2.86,3.16,12.63ZM67.63,14.12c11.44-4.38,23.37-6.12,38.03-6.58,4.17-.4,10.55,1.58,17.07,2.14,2.34.2,2.86,1.31,2.34,3.25-5.19,19.37-10.48,38.71-15.53,58.11-.62,2.38-1.85,3.03-3.87,3.7-13.83,4.6-13.72,4.59-19.82-8.39-6.98-14.86-14.14-29.64-21.26-44.43-2.36-4.89-2.12-5.83,3.04-7.8Zm30.57,100.92c.18-.15.58-.02,1.11-.02-1.31,8.71-2.74,17.37-3.86,26.07-.35,2.66-.71,3.74-3.52,2.15-4.7-2.65-9.58-4.98-14.29-7.61-1.1-.61-2.92-1.65-.86-3.32,7.13-5.77,14.27-11.53,21.42-17.27Zm-2.77-9.77c-7.46-.09-14.91-.06-22.36-.01-2.64.01-3.82-.79-2.45-3.5,4.44-8.76,8.87-17.52,13.78-27.23,4.69,9.77,8.81,18.51,13.09,27.18,1.25,2.53.99,3.59-2.06,3.56Zm-.02-19.63c-.72-1.51-1.05-2.73,1.2-3.26,2.85-.68,5.72-1.4,8.46-2.42,2.28-.84,2.39.43,2.03,1.84-1.41,5.64-2.98,11.24-4.89,18.36-2.66-5.67-4.72-10.1-6.8-14.52ZM7.8,98.93c1.73-20.5,7.78-39.44,20.99-55.49,7.33-8.91,15.72-16.83,25.77-22.81,2.89-1.73,3.89-.54,5.09,2.01,6.84,14.56,13.82,29.05,20.83,43.53.79,1.65.69,2.97-.1,4.53-5,9.98-10.03,19.95-14.83,30.02-1.37,2.88-3.26,3.64-6.23,3.57-7.79-.16-15.58-.05-23.36-.05-7.79.01-15.58-.19-23.36.08-4.23.15-5.11-1.74-4.8-5.39Zm31.09,72.77c-15.68-13.97-24.8-31.67-29-51.94-2.16-10.44-1.7-10.53,8.8-10.53,13.41,0,26.86-.63,40.23.19,11.82.72,23.64.59,36.75.86-13.7,11.33-26.47,21.62-38.88,32.34-3.31,2.86-4.25,7.68-6.15,11.66-2.61,5.46-5.08,11.01-7.47,16.58-1.11,2.58-2.2,2.69-4.28.84Zm49.56,20.6c-.34,2.7-1.06,3.76-4.09,3.11-13.15-2.81-25.14-8.18-36.23-15.69-2-1.36-2.71-2.62-1.39-5.25,3.59-7.17,6.89-14.52,9.98-21.93,2.63-6.31,8.21-9.71,12.92-13.98,1.18-1.07,2.47-.17,3.65.45,6.37,3.38,12.75,6.75,19.14,10.09,1.09.57,2.03,1.14,1.53,2.52-.88,7.11-1.71,14.23-2.68,21.34-.88,6.45-2.02,12.87-2.83,19.34Zm23.19-26.57c1.8,9.26,3.67,18.5,5.47,27.76.39,2.03-.6,3.36-2.64,3.24-5.86-.34-11.53,1.94-17.61.31-3.11-.84-3.78-1.78-3.44-4.38,1.05-8.09,2.1-16.19,3.25-24.27,1.51-10.66,3.11-21.3,4.67-31.95.53-3.6,1.06-7.19,1.59-10.79.33.1.66.2.99.3,2.57,13.26,5.13,26.52,7.72,39.78Zm13.51-55.23c0,1.19-.31,2.01-1.34,2.9-4.23,3.63-7.95,7.81-12.41,11.22-2.12,1.63-2.93,1.1-3.04-1.19-.16-3.61-1.22-7.02-1.96-10.51-.66-3.11-.43-5.4,2.98-7.59,5.29-3.38,9.8-7.98,15.77-13.02,0,7.06-.01,12.63,0,18.19Zm50.14-65.83c-11.96,9.68-23.98,19.29-35.82,29.1-4.74,3.92-9.18,8.19-14.9,11.07,6.44-11.51,12.88-23.02,19.32-34.52,4.09-7.3,8.17-14.61,12.3-21.89.81-1.43,1.42-3.76,3.8-1.75,5.5,4.64,11.6,8.64,15.66,14.88,1,1.53.82,2.15-.36,3.11Z"/>
      <path class="cls-7" d="m189.58,235.6c-7.9.33-15.22-1.75-22.2-5.27-1.91-.96-2.89-1.85-.76-3.86,4.47-4.19,8.8-8.54,13.02-12.99,1.76-1.86,3.66-2.07,5.84-1.5,18.34,4.86,39.63-12.3,33.15-35.21-1.14-4.01-2.64-4.48-5.55-1.63-3.55,3.48-7.19,6.89-10.5,10.59-2.19,2.45-4.61,3.66-7.8,3.09-2.35-.43-5.86,1.58-6.69-2.27-.9-4.14-3.09-8.53,1.06-12.43,4.11-3.85,7.97-7.96,11.99-11.91,1.66-1.63,1.76-2.64-.79-3.26-19.07-4.64-33.49,6.08-36.2,25.21-.33,2.33.08,5.07,1.05,7.21,1.77,3.9-.09,6.09-2.65,8.49-3.75,3.51-7.33,7.2-10.91,10.88-1.57,1.61-2.3,2.15-3.8-.43-8.39-14.5-7.15-35.75,2.88-49.44,9.87-13.47,23.18-19.89,39.69-19.78,23.69.17,44.62,20.16,45.42,42.99.41,11.47-1.32,21.95-8.05,31.47-7.85,11.11-24.69,21.19-38.2,20.05Z"/>
    </g>
  </g>
</svg>