<?xml version="1.0" encoding="UTF-8"?>
<svg id="Layer_1" data-name="Layer 1" xmlns="http://www.w3.org/2000/svg" viewBox="0 0 79.49 78.68">
  <defs>
    <style>
      .cls-3 {
        fill: #046;
      }

      .cls-4 {
        fill: #cf2030;
      }
    </style>
  </defs>
  <g id="Regular-S">
    <path class="cls-4" d="m19.87,43.62h19.48c1.71,0,3.03-1.32,3.03-2.98V15.5c0-1.71-1.32-3.03-3.03-3.03s-2.98,1.32-2.98,3.03v22.12h-16.5c-1.71,0-2.98,1.32-2.98,3.03s1.27,2.98,2.98,2.98Z"/>
    <path class="cls-3" d="m39.4,78.68c21.53,0,39.45-17.87,39.45-39.4S60.89-.13,39.36-.13,0,17.74,0,39.28s17.92,39.4,39.4,39.4Zm0-7.42c-17.72,0-31.88-14.21-31.88-31.98S21.63,7.29,39.36,7.29s32.03,14.21,32.03,31.98-14.21,31.98-31.98,31.98Z"/>
  </g>
</svg>