<?xml version="1.0" encoding="UTF-8"?>
<svg id="Layer_1" data-name="Layer 1" xmlns="http://www.w3.org/2000/svg" viewBox="0 0 50 50">
  <defs>
    <style>
      .cls-1 {
        fill: #1d1d1f;
      }
    </style>
  </defs>
  <g id="Regular-S">
    <path class="cls-1" d="m12.77,47.13c.54,0,.92-.14,1.17-.41.24-.28.43-.67.56-1.17l1.66-6.28h17.68l1.66,6.28c.13.5.33.89.6,1.17.27.28.64.41,1.13.41.59,0,1.03-.15,1.32-.46.29-.31.44-.72.44-1.22,0-.25-.03-.49-.1-.7l-3.11-11.65h.83c.75,0,1.38-.21,1.87-.63.49-.42.74-.95.74-1.61,0-.72-.23-1.28-.68-1.69-.45-.41-1.05-.62-1.81-.62H14.33c-.62,0-1.11-.17-1.48-.5-.37-.33-.55-.8-.55-1.38v-5.27h2.71v1.21c0,1.14.28,1.98.85,2.54.57.55,1.43.83,2.59.83h13.41c1.17,0,2.04-.28,2.6-.83.56-.55.84-1.4.84-2.54v-1.21h6.78c.62,0,1.11-.15,1.47-.46.36-.31.54-.73.54-1.27s-.18-.96-.53-1.28-.81-.48-1.38-.48H7.7c-.54,0-.97.16-1.29.48-.33.32-.49.74-.49,1.28s.17.96.51,1.27c.34.31.81.46,1.39.46h.98v7.68c0,1.24.37,2.22,1.12,2.94.74.72,1.74,1.08,2.98,1.08h1.33l-3.11,11.65c-.02.12-.03.23-.05.35-.02.12-.03.24-.03.38,0,.47.13.86.4,1.18.27.32.71.48,1.33.48Zm4.34-11.37l.68-2.66h14.41l.7,2.66h-15.79Zm1.31-20.56h13.46c2.29,0,3.44-1.11,3.44-3.34v-5.62c0-2.24-1.15-3.36-3.44-3.36h-13.46c-2.29,0-3.44,1.12-3.44,3.36v5.62c0,2.23,1.15,3.34,3.44,3.34Z"/>
  </g>
</svg>