<svg id="Layer_1" data-name="Layer 1" xmlns="http://www.w3.org/2000/svg" viewBox="0 0 463.4 68.2"><defs><style>.cls-1{fill:#cf122e;}.cls-2{fill:#1d1d1b;}</style></defs><path class="cls-1" d="M294.8,34.2a41.5,41.5,0,0,1,2-12.9,31.76,31.76,0,0,1,5.9-10.5,26.72,26.72,0,0,1,9.5-7,30.33,30.33,0,0,1,12.7-2.6,27.65,27.65,0,0,1,9.6,1.5,25.53,25.53,0,0,1,6.8,3.6,18.09,18.09,0,0,1,4.5,4.7,23.78,23.78,0,0,1,2.7,4.8,35.39,35.39,0,0,1,1.3,3.9c.2,1.1.4,1.7.4,1.8h-3.9a18.31,18.31,0,0,0-2.6-7.1,17.74,17.74,0,0,0-4.9-5.3,21.21,21.21,0,0,0-6.5-3.4,23.7,23.7,0,0,0-7.6-1.1,24.38,24.38,0,0,0-19.2,8.8,29.37,29.37,0,0,0-5.1,9.4,36,36,0,0,0-1.8,11.5,36,36,0,0,0,1.8,11.5,29.37,29.37,0,0,0,5.1,9.4A24.38,24.38,0,0,0,324.7,64a19.33,19.33,0,0,0,8.6-1.9,23.51,23.51,0,0,0,7-5,25.3,25.3,0,0,0,6.9-15.7h3.9a32,32,0,0,1-2.8,10.4,30.58,30.58,0,0,1-5.7,8.3,25,25,0,0,1-17.9,7.3A30.66,30.66,0,0,1,312,64.8a27.64,27.64,0,0,1-9.5-7,31.76,31.76,0,0,1-5.9-10.5A51.14,51.14,0,0,1,294.8,34.2Z"/><path class="cls-1" d="M387.8,56.7h-.2a12.48,12.48,0,0,1-2.3,3.8,14.49,14.49,0,0,1-3.7,3.2,18.27,18.27,0,0,1-4.9,2.2,22.33,22.33,0,0,1-6,.8c-4.8,0-8.6-1-11.2-3.1s-4-5.3-4-9.7a11.83,11.83,0,0,1,1.6-6.5,12.73,12.73,0,0,1,4-4,16,16,0,0,1,5.4-2.1q3-.6,5.7-.9l5.2-.4a45.69,45.69,0,0,0,5.7-.8,6.94,6.94,0,0,0,3.1-1.6,4.61,4.61,0,0,0,1.3-2.6,22.51,22.51,0,0,0,.3-4,7.67,7.67,0,0,0-.7-3.4,7.41,7.41,0,0,0-2.2-2.8,10.16,10.16,0,0,0-3.9-1.9,19.59,19.59,0,0,0-5.8-.7c-4.1,0-7.3,1-9.8,3s-3.9,5-4.1,9.1H358c.2-5,1.8-8.8,4.8-11.3s7.2-3.8,12.7-3.8,9.5,1.1,12,3.2a10.6,10.6,0,0,1,3.8,8.4V59.1a5.66,5.66,0,0,0,.3,1.8,3,3,0,0,0,.9,1.3,3,3,0,0,0,1.8.5,14.87,14.87,0,0,0,2.5-.3v2.8a12.59,12.59,0,0,1-2.7.4,8.92,8.92,0,0,1-3.2-.5,4.36,4.36,0,0,1-1.8-1.4,4.85,4.85,0,0,1-.8-2.1,21.12,21.12,0,0,1-.2-2.6V56.7Zm0-16.7a6.08,6.08,0,0,1-3.8,2,41.85,41.85,0,0,1-5.6.8l-5.7.5a41.66,41.66,0,0,0-4.9.8,17.21,17.21,0,0,0-4.5,1.6,9.49,9.49,0,0,0-3.2,3.1,9.76,9.76,0,0,0-1.2,5.2c0,3.4,1.1,5.8,3.2,7.5s5,2.4,8.7,2.4,6.9-.7,9.1-2.1A16.89,16.89,0,0,0,385,57a15.68,15.68,0,0,0,2.3-5.2,27.06,27.06,0,0,0,.5-3.4Z"/><path class="cls-1" d="M405.2,30.4h.3a10.89,10.89,0,0,1,2.3-4.2,16.72,16.72,0,0,1,4-3.4,22,22,0,0,1,5.2-2.2,23.49,23.49,0,0,1,6-.7v3.4a16.57,16.57,0,0,0-6.1.5,14.9,14.9,0,0,0-6.5,3.9c-.8.9-1.5,1.7-2.2,2.6a11.74,11.74,0,0,0-1.5,2.7,23.15,23.15,0,0,0-1,3.4,26.49,26.49,0,0,0-.4,4.4V65.6h-3.4V20.4h3.4l-.1,10Z"/><path class="cls-1" d="M426.6,43.5V44a27.38,27.38,0,0,0,1.1,7.6,22.37,22.37,0,0,0,3.1,6.4,14.48,14.48,0,0,0,5.2,4.3,15.4,15.4,0,0,0,7.3,1.6q6.75,0,10.8-3.6a18.51,18.51,0,0,0,5.5-9.9H463c-1,5.3-3.2,9.4-6.5,12.2s-7.7,4.2-13.2,4.2a20,20,0,0,1-8.8-1.8,19.12,19.12,0,0,1-6.3-4.9,22.55,22.55,0,0,1-3.8-7.4,34.1,34.1,0,0,1-1.2-9.2,30.35,30.35,0,0,1,1.3-9.1,24.11,24.11,0,0,1,3.8-7.7,18.4,18.4,0,0,1,6.4-5.3,20,20,0,0,1,9.1-2,18.56,18.56,0,0,1,8.4,1.8,18.08,18.08,0,0,1,6.1,4.8,23,23,0,0,1,3.8,7.1,27.15,27.15,0,0,1,1.3,8.6v1.9l-36.8-.1ZM460,40.6a26.3,26.3,0,0,0-1.2-7,17.89,17.89,0,0,0-3.1-5.8,16.07,16.07,0,0,0-5-4,14.8,14.8,0,0,0-6.8-1.5,16.55,16.55,0,0,0-7.2,1.5,15,15,0,0,0-5.2,4.1,18.8,18.8,0,0,0-3.3,5.9,26.44,26.44,0,0,0-1.4,6.9H460Z"/><path class="cls-2" d="M84.4,2.7h3.4v9.1H84.4Zm0,17.6h3.4V65.7H84.4Z"/><path class="cls-2" d="M140.2,20.7a17.27,17.27,0,0,0-1.7-7.1,13.57,13.57,0,0,0-4.2-5,16.73,16.73,0,0,0-6.3-3,28.74,28.74,0,0,0-8-1,29.1,29.1,0,0,0-5.7.6,17.3,17.3,0,0,0-5.7,2.2,12.33,12.33,0,0,0-4.3,4.2,11.84,11.84,0,0,0-1.7,6.5,9.56,9.56,0,0,0,1.9,6.2,12.47,12.47,0,0,0,4.9,3.8,26.63,26.63,0,0,0,6.9,2.3c2.6.6,5.2,1.1,7.9,1.7s5.3,1.2,7.9,1.9a24,24,0,0,1,6.9,3,15.29,15.29,0,0,1,4.9,4.9,14.75,14.75,0,0,1,1.9,7.6,15.26,15.26,0,0,1-2.1,8.3,18.56,18.56,0,0,1-5.3,5.5,22,22,0,0,1-7.2,3,33.53,33.53,0,0,1-7.6.9A43,43,0,0,1,113.2,66a23.68,23.68,0,0,1-8.5-3.9A19.23,19.23,0,0,1,99,55.2a23.1,23.1,0,0,1-2-10.3h3.9a17.18,17.18,0,0,0,1.5,8.8,16.52,16.52,0,0,0,4.9,5.9,20.88,20.88,0,0,0,7.4,3.3,36.79,36.79,0,0,0,8.9,1,27.2,27.2,0,0,0,6.1-.7,20.34,20.34,0,0,0,5.9-2.4,14.52,14.52,0,0,0,4.5-4.4,12.2,12.2,0,0,0,1.8-6.9A10.25,10.25,0,0,0,140,43a14.15,14.15,0,0,0-4.9-4.1,31,31,0,0,0-6.9-2.5c-2.6-.6-5.2-1.2-7.9-1.7a69.91,69.91,0,0,1-7.9-1.9,27,27,0,0,1-6.9-2.9,15.71,15.71,0,0,1-4.9-4.7,13.75,13.75,0,0,1-1.9-7.4,14.43,14.43,0,0,1,1.9-7.7,16.28,16.28,0,0,1,4.9-5.2A21.84,21.84,0,0,1,112.3,2a32,32,0,0,1,7.5-.9A38,38,0,0,1,129,2.2a21.52,21.52,0,0,1,7.5,3.4,17.12,17.12,0,0,1,5.2,6.1,21.6,21.6,0,0,1,2.2,8.9l-3.7.1Z"/><path class="cls-2" d="M170.4,23.3h-9.9V55a12.3,12.3,0,0,0,.6,4.3,4.22,4.22,0,0,0,1.9,2.4,6.33,6.33,0,0,0,3.1,1c1.2.1,2.6.1,4.2.1v2.9a41.69,41.69,0,0,1-5,0,10.29,10.29,0,0,1-4.3-1.3,8.08,8.08,0,0,1-3-3.3,13.31,13.31,0,0,1-.9-6.1V23.3h-8.4V20.4h8.4V6.2h3.4V20.3h9.9Z"/><path class="cls-2" d="M173.3,43a29.9,29.9,0,0,1,1.4-9.1,24,24,0,0,1,4-7.6,19.43,19.43,0,0,1,6.5-5.2,19.72,19.72,0,0,1,8.9-1.9,19.43,19.43,0,0,1,8.9,1.9,18.49,18.49,0,0,1,6.5,5.2,22.11,22.11,0,0,1,4,7.6,30.39,30.39,0,0,1,1.4,9.1,31,31,0,0,1-1.4,9.2,24,24,0,0,1-4,7.6,18,18,0,0,1-6.5,5.1,19.72,19.72,0,0,1-8.9,1.9,19.25,19.25,0,0,1-15.4-7,21.24,21.24,0,0,1-4-7.6,27.31,27.31,0,0,1-1.4-9.2m3.3,0a28.82,28.82,0,0,0,1.1,7.8,22.28,22.28,0,0,0,3.4,6.7,16.32,16.32,0,0,0,5.5,4.6,17.39,17.39,0,0,0,15,0,16.32,16.32,0,0,0,5.5-4.6,21.16,21.16,0,0,0,3.4-6.7,25.37,25.37,0,0,0,1.1-7.8,28.82,28.82,0,0,0-1.1-7.8,22.28,22.28,0,0,0-3.4-6.7,16.32,16.32,0,0,0-5.5-4.6,17.39,17.39,0,0,0-15,0,16.32,16.32,0,0,0-5.5,4.6,21.16,21.16,0,0,0-3.4,6.7,28.82,28.82,0,0,0-1.1,7.8"/><path class="cls-2" d="M226.2,30.4h.3a10.89,10.89,0,0,1,2.3-4.2,16.72,16.72,0,0,1,4-3.4,22,22,0,0,1,5.2-2.2,23.49,23.49,0,0,1,6-.7v3.4a16.57,16.57,0,0,0-6.1.5,14.9,14.9,0,0,0-6.5,3.9c-.8.9-1.5,1.7-2.2,2.6a11.74,11.74,0,0,0-1.5,2.7,23.15,23.15,0,0,0-1,3.4,26.49,26.49,0,0,0-.4,4.4V65.6h-3.4V20.3h3.4V30.4Z"/><path class="cls-2" d="M247.6,43.5V44a27.38,27.38,0,0,0,1.1,7.6,22.37,22.37,0,0,0,3.1,6.4,14.48,14.48,0,0,0,5.2,4.3,15.4,15.4,0,0,0,7.3,1.6q6.75,0,10.8-3.6a18.51,18.51,0,0,0,5.5-9.9H284c-1,5.3-3.2,9.4-6.5,12.2s-7.7,4.2-13.2,4.2a20,20,0,0,1-8.8-1.8,19.12,19.12,0,0,1-6.3-4.9,22.55,22.55,0,0,1-3.8-7.4,34.1,34.1,0,0,1-1.2-9.2,30.35,30.35,0,0,1,1.3-9.1,24.11,24.11,0,0,1,3.8-7.7,18.4,18.4,0,0,1,6.4-5.3,20,20,0,0,1,9.1-2,18.56,18.56,0,0,1,8.4,1.8,18.08,18.08,0,0,1,6.1,4.8,23,23,0,0,1,3.8,7.1,27.15,27.15,0,0,1,1.3,8.6v1.9l-36.8-.1ZM281,40.6a26.3,26.3,0,0,0-1.2-7,17.89,17.89,0,0,0-3.1-5.8,16.07,16.07,0,0,0-5-4,14.8,14.8,0,0,0-6.8-1.5,16.55,16.55,0,0,0-7.2,1.5,15,15,0,0,0-5.2,4.1,18.8,18.8,0,0,0-3.3,5.9,26.44,26.44,0,0,0-1.4,6.9H281Z"/><rect class="cls-1" width="68.2" height="68.2"/></svg>