<!-- SpeedSize.com --><svg id="Layer_1" data-name="Layer 1" xmlns="http://www.w3.org/2000/svg" viewBox="0 0 100 100"><defs><style>.cls-5{fill:#cc394e}</style></defs><path d="M29.56 26.43v-3.14h1.16v3.14zm0 18.62V29.39h1.16v15.66zm19.27-15.54a5.74 5.74 0 00-.6-2.44 5.08 5.08 0 00-1.45-1.74 6.14 6.14 0 00-2.18-1 10.4 10.4 0 00-2.75-.35 10.1 10.1 0 00-2 .21 6.32 6.32 0 00-2 .75 4.49 4.49 0 00-1.48 1.43 4.12 4.12 0 00-.58 2.24 3.43 3.43 0 00.64 2.14A4.73 4.73 0 0038.19 32a10.54 10.54 0 002.38.81c.89.2 1.8.4 2.71.58s1.84.4 2.73.65a9.45 9.45 0 012.37 1 5.15 5.15 0 011.7 1.71 5 5 0 01.64 2.63 5.25 5.25 0 01-.72 2.93 6.15 6.15 0 01-1.84 1.89 7.68 7.68 0 01-2.47 1 11.47 11.47 0 01-2.6.32 15.32 15.32 0 01-3.6-.41 8.2 8.2 0 01-2.93-1.34 6.51 6.51 0 01-2-2.4 7.73 7.73 0 01-.69-3.56h1.34a6 6 0 00.52 3 5.57 5.57 0 001.69 2A6.91 6.91 0 0040 44.06a13.33 13.33 0 003.08.35 9.85 9.85 0 002.08-.24 6.5 6.5 0 002.05-.83 5.1 5.1 0 001.55-1.52 4.19 4.19 0 00.62-2.38 3.67 3.67 0 00-.64-2.24A4.67 4.67 0 0047 35.8a11 11 0 00-2.33-.8c-.89-.22-1.8-.41-2.73-.6s-1.82-.39-2.71-.64a9 9 0 01-2.38-1 5.08 5.08 0 01-1.68-1.61 4.68 4.68 0 01-.64-2.55 5.13 5.13 0 012.36-4.46 7.75 7.75 0 012.37-1 11 11 0 012.59-.32 12.89 12.89 0 013.18.38 7.61 7.61 0 012.59 1.19 6.06 6.06 0 011.79 2.09 7.47 7.47 0 01.76 3.08zm10.42.88h-3.41v10.94a4.35 4.35 0 00.21 1.5 1.7 1.7 0 00.65.83 2.26 2.26 0 001.07.35 8.46 8.46 0 001.45 0v1a11 11 0 01-1.72 0 3.53 3.53 0 01-1.5-.43 2.67 2.67 0 01-1-1.15 4.22 4.22 0 01-.32-2.1V30.39h-2.9v-1h2.9v-4.88h1.16v4.88h3.41zm.97 6.83a10.2 10.2 0 01.48-3.16 7.81 7.81 0 011.38-2.6 6.63 6.63 0 012.26-1.79 7.62 7.62 0 016.16 0 6.69 6.69 0 012.25 1.79 8 8 0 011.39 2.6 10.5 10.5 0 01.47 3.16 10.62 10.62 0 01-.47 3.17A7.82 7.82 0 0172.75 43a6.63 6.63 0 01-2.25 1.77 7.52 7.52 0 01-6.16 0A6.57 6.57 0 0162.08 43a7.63 7.63 0 01-1.38-2.6 10.31 10.31 0 01-.48-3.18zm1.16 0a8.94 8.94 0 00.4 2.69 7.17 7.17 0 001.16 2.31 5.77 5.77 0 007.06 1.6 5.73 5.73 0 001.89-1.6 7.36 7.36 0 001.15-2.31 9.28 9.28 0 000-5.39 7.41 7.41 0 00-1.15-2.3 5.73 5.73 0 00-1.89-1.6 6 6 0 00-5.18 0 5.53 5.53 0 00-1.89 1.6 7.22 7.22 0 00-1.16 2.3 9 9 0 00-.39 2.7zm17.1-4.36h.09a3.67 3.67 0 01.78-1.43 5.18 5.18 0 011.37-1.16 6.9 6.9 0 011.8-.75 7.36 7.36 0 012.06-.23v1.16a5.57 5.57 0 00-2.09.18A5.11 5.11 0 0080.25 32a9.29 9.29 0 00-.75.88 4.31 4.31 0 00-.53.94 5.62 5.62 0 00-.34 1.18 10.41 10.41 0 00-.15 1.53v8.56h-1.16v-15.7h1.16zm7.37 4.51v.18a9.37 9.37 0 00.37 2.62 6.76 6.76 0 001.09 2.2 5.11 5.11 0 001.8 1.49 6.18 6.18 0 006.25-.68 6.43 6.43 0 001.89-3.43h1.16A6.93 6.93 0 0196.17 44a6.78 6.78 0 01-4.55 1.47 6.91 6.91 0 01-3-.63 6.15 6.15 0 01-2.16-1.71 7.28 7.28 0 01-1.3-2.56 11.53 11.53 0 01-.42-3.18 10.9 10.9 0 01.44-3.15 7.92 7.92 0 011.33-2.66 6.4 6.4 0 012.2-1.82A6.72 6.72 0 0191.8 29a6.56 6.56 0 012.91.61 6.19 6.19 0 012.12 1.66 7.22 7.22 0 011.29 2.44 9.52 9.52 0 01.44 3v.67zm11.53-1a10 10 0 00-.38-2.43 6.1 6.1 0 00-1.09-2 5.49 5.49 0 00-1.74-1.39 5.16 5.16 0 00-2.39-.55 5.41 5.41 0 00-2.47.53 5.33 5.33 0 00-1.8 1.4 6.39 6.39 0 00-1.14 2 9.59 9.59 0 00-.48 2.37z" fill="#333"/><path class="cls-5" d="M1.44 22.77h22.64v22.64H1.44zM47.78 65a.93.93 0 00-.65-.24 2.53 2.53 0 00-1.36.52 7 7 0 00-1.42 1.36 8.12 8.12 0 00-1.13 1.81 4.58 4.58 0 00-.45 1.91 1.18 1.18 0 00.19.72.67.67 0 00.54.25 1.86 1.86 0 00.81-.25 7.14 7.14 0 001-.69 10.17 10.17 0 001-1 7.26 7.26 0 00.87-1.19 6.88 6.88 0 00.62-1.2 3.83 3.83 0 00.2-1.28.94.94 0 00-.22-.72zm0 0a.93.93 0 00-.65-.24 2.53 2.53 0 00-1.36.52 7 7 0 00-1.42 1.36 8.12 8.12 0 00-1.13 1.81 4.58 4.58 0 00-.45 1.91 1.18 1.18 0 00.19.72.67.67 0 00.54.25 1.86 1.86 0 00.81-.25 7.14 7.14 0 001-.69 10.17 10.17 0 001-1 7.26 7.26 0 00.87-1.19 6.88 6.88 0 00.62-1.2 3.83 3.83 0 00.2-1.28.94.94 0 00-.22-.72zm0 0a.93.93 0 00-.65-.24 2.53 2.53 0 00-1.36.52 7 7 0 00-1.42 1.36 8.12 8.12 0 00-1.13 1.81 4.58 4.58 0 00-.45 1.91 1.18 1.18 0 00.19.72.67.67 0 00.54.25 1.86 1.86 0 00.81-.25 7.14 7.14 0 001-.69 10.17 10.17 0 001-1 7.26 7.26 0 00.87-1.19 6.88 6.88 0 00.62-1.2 3.83 3.83 0 00.2-1.28.94.94 0 00-.22-.72zm15.45-.1a.52.52 0 00-.38-.14 1.7 1.7 0 00-.92.33 7.21 7.21 0 00-1 .83 10 10 0 00-.86 1.08 6.31 6.31 0 00-.59 1 8.21 8.21 0 001.11-.31 7.38 7.38 0 001.28-.58 4.4 4.4 0 001.07-.8 1.43 1.43 0 00.45-1 .54.54 0 00-.16-.4zm0 0a.52.52 0 00-.38-.14 1.7 1.7 0 00-.92.33 7.21 7.21 0 00-1 .83 10 10 0 00-.86 1.08 6.31 6.31 0 00-.59 1 8.21 8.21 0 001.11-.31 7.38 7.38 0 001.28-.58 4.4 4.4 0 001.07-.8 1.43 1.43 0 00.45-1 .54.54 0 00-.16-.4zm-15.45.1a.93.93 0 00-.65-.24 2.53 2.53 0 00-1.36.52 7 7 0 00-1.42 1.36 8.12 8.12 0 00-1.13 1.81 4.58 4.58 0 00-.45 1.91 1.18 1.18 0 00.19.72.67.67 0 00.54.25 1.86 1.86 0 00.81-.25 7.14 7.14 0 001-.69 10.17 10.17 0 001-1 7.26 7.26 0 00.87-1.19 6.88 6.88 0 00.62-1.2 3.83 3.83 0 00.2-1.28.94.94 0 00-.22-.72zm0 0a.93.93 0 00-.65-.24 2.53 2.53 0 00-1.36.52 7 7 0 00-1.42 1.36 8.12 8.12 0 00-1.13 1.81 4.58 4.58 0 00-.45 1.91 1.18 1.18 0 00.19.72.67.67 0 00.54.25 1.86 1.86 0 00.81-.25 7.14 7.14 0 001-.69 10.17 10.17 0 001-1 7.26 7.26 0 00.87-1.19 6.88 6.88 0 00.62-1.2 3.83 3.83 0 00.2-1.28.94.94 0 00-.22-.72zm15.45-.1a.52.52 0 00-.38-.14 1.7 1.7 0 00-.92.33 7.21 7.21 0 00-1 .83 10 10 0 00-.86 1.08 6.31 6.31 0 00-.59 1 8.21 8.21 0 001.11-.31 7.38 7.38 0 001.28-.58 4.4 4.4 0 001.07-.8 1.43 1.43 0 00.45-1 .54.54 0 00-.16-.4zm0 0a.52.52 0 00-.38-.14 1.7 1.7 0 00-.92.33 7.21 7.21 0 00-1 .83 10 10 0 00-.86 1.08 6.31 6.31 0 00-.59 1 8.21 8.21 0 001.11-.31 7.38 7.38 0 001.28-.58 4.4 4.4 0 001.07-.8 1.43 1.43 0 00.45-1 .54.54 0 00-.16-.4zm-16.1-.14a2.53 2.53 0 00-1.36.52 7 7 0 00-1.42 1.36 8.12 8.12 0 00-1.13 1.81 4.58 4.58 0 00-.45 1.91 1.18 1.18 0 00.19.72.67.67 0 00.54.25 1.86 1.86 0 00.81-.25 7.14 7.14 0 001-.69 10.17 10.17 0 001-1 7.26 7.26 0 00.87-1.19 6.88 6.88 0 00.62-1.2 3.83 3.83 0 00.2-1.28.86.86 0 00-.91-1zm16.1.14a.52.52 0 00-.38-.14 1.7 1.7 0 00-.92.33 7.21 7.21 0 00-1 .83 10 10 0 00-.86 1.08 6.31 6.31 0 00-.59 1 8.21 8.21 0 001.11-.31 7.38 7.38 0 001.28-.58 4.4 4.4 0 001.07-.8 1.43 1.43 0 00.45-1 .54.54 0 00-.16-.4zm-16.1-.14a2.53 2.53 0 00-1.36.52 7 7 0 00-1.42 1.36 8.12 8.12 0 00-1.13 1.81 4.58 4.58 0 00-.45 1.91 1.18 1.18 0 00.19.72.67.67 0 00.54.25 1.86 1.86 0 00.81-.25 7.14 7.14 0 001-.69 10.17 10.17 0 001-1 7.26 7.26 0 00.87-1.19 6.88 6.88 0 00.62-1.2 3.83 3.83 0 00.2-1.28.86.86 0 00-.91-1zm.65.24a.93.93 0 00-.65-.24 2.53 2.53 0 00-1.36.52 7 7 0 00-1.42 1.36 8.12 8.12 0 00-1.13 1.81 4.58 4.58 0 00-.45 1.91 1.18 1.18 0 00.19.72.67.67 0 00.54.25 1.86 1.86 0 00.81-.25 7.14 7.14 0 001-.69 10.17 10.17 0 001-1 7.26 7.26 0 00.87-1.19 6.88 6.88 0 00.62-1.2 3.83 3.83 0 00.2-1.28.94.94 0 00-.22-.72zm15.45-.1a.52.52 0 00-.38-.14 1.7 1.7 0 00-.92.33 7.21 7.21 0 00-1 .83 10 10 0 00-.86 1.08 6.31 6.31 0 00-.59 1 8.21 8.21 0 001.11-.31 7.38 7.38 0 001.28-.58 4.4 4.4 0 001.07-.8 1.43 1.43 0 00.45-1 .54.54 0 00-.16-.4zm0 0a.52.52 0 00-.38-.14 1.7 1.7 0 00-.92.33 7.21 7.21 0 00-1 .83 10 10 0 00-.86 1.08 6.31 6.31 0 00-.59 1 8.21 8.21 0 001.11-.31 7.38 7.38 0 001.28-.58 4.4 4.4 0 001.07-.8 1.43 1.43 0 00.45-1 .54.54 0 00-.16-.4zm-15.45.1a.93.93 0 00-.65-.24 2.53 2.53 0 00-1.36.52 7 7 0 00-1.42 1.36 8.12 8.12 0 00-1.13 1.81 4.58 4.58 0 00-.45 1.91 1.18 1.18 0 00.19.72.67.67 0 00.54.25 1.86 1.86 0 00.81-.25 7.14 7.14 0 001-.69 10.17 10.17 0 001-1 7.26 7.26 0 00.87-1.19 6.88 6.88 0 00.62-1.2 3.83 3.83 0 00.2-1.28.94.94 0 00-.22-.72zm0 0a.93.93 0 00-.65-.24 2.53 2.53 0 00-1.36.52 7 7 0 00-1.42 1.36 8.12 8.12 0 00-1.13 1.81 4.58 4.58 0 00-.45 1.91 1.18 1.18 0 00.19.72.67.67 0 00.54.25 1.86 1.86 0 00.81-.25 7.14 7.14 0 001-.69 10.17 10.17 0 001-1 7.26 7.26 0 00.87-1.19 6.88 6.88 0 00.62-1.2 3.83 3.83 0 00.2-1.28.94.94 0 00-.22-.72zm0 0a.93.93 0 00-.65-.24 2.53 2.53 0 00-1.36.52 7 7 0 00-1.42 1.36 8.12 8.12 0 00-1.13 1.81 4.58 4.58 0 00-.45 1.91 1.18 1.18 0 00.19.72.67.67 0 00.54.25 1.86 1.86 0 00.81-.25 7.14 7.14 0 001-.69 10.17 10.17 0 001-1 7.26 7.26 0 00.87-1.19 6.88 6.88 0 00.62-1.2 3.83 3.83 0 00.2-1.28.94.94 0 00-.22-.72z"/><path class="cls-5" d="M76.14 59.14h-3.39a.32.32 0 00-.14 0V57.5a3.1 3.1 0 00-3.1-3.08H26.37a3.08 3.08 0 00-3.08 3.08v16.65a3.09 3.09 0 003.08 3.08h43.14a3.1 3.1 0 003.1-3.08v-1.67a.58.58 0 00.14 0h3.39a.58.58 0 00.58-.57v-12.2a.57.57 0 00-.58-.57zM32.39 69.72a3.19 3.19 0 00.44 1 2.2 2.2 0 002 1 4 4 0 001.89-.45 5.62 5.62 0 001.58-1.19 5.89 5.89 0 001.09-1.63c.27-.6 1-.47.77.1A5.84 5.84 0 0139 70.22a6.13 6.13 0 01-1.82 1.26 5.75 5.75 0 01-2.48.51 3.77 3.77 0 01-1.7-.37 3.4 3.4 0 01-1.17-.91 3.45 3.45 0 01-.64-1.19 4.07 4.07 0 01-.19-1.18 6.73 6.73 0 01.55-2.61A11.9 11.9 0 0133 63.17a15.11 15.11 0 012-2.33A16.78 16.78 0 0137.45 59a13 13 0 012.49-1.27 6.6 6.6 0 012.28-.46 2.88 2.88 0 011.91.53 1.89 1.89 0 01.62 1.53 2.68 2.68 0 01-.33 1.33 3.52 3.52 0 01-.89 1 4.41 4.41 0 01-1.27.68c-.47.18-.71-.07-.33-.26a3.54 3.54 0 001-.74 3.91 3.91 0 00.76-1.11A3.07 3.07 0 0044 58.9a1.25 1.25 0 00-.46-1.14 2.42 2.42 0 00-1.26-.3 5.76 5.76 0 00-2 .44 12 12 0 00-2.22 1.22 14.39 14.39 0 00-2.16 1.82 14.11 14.11 0 00-1.86 2.29 11.11 11.11 0 00-1.32 2.59 8 8 0 00-.48 2.75 5 5 0 00.15 1.15zm33.52-2.2a10.59 10.59 0 01-1 1.21 12.28 12.28 0 01-1.23 1.15 10.54 10.54 0 01-1.36 1 8.11 8.11 0 01-1.43.69 4.3 4.3 0 01-1.42.25 1.79 1.79 0 01-1.31-.44 1.55 1.55 0 01-.47-1.24 3.75 3.75 0 01.54-1.87 6.18 6.18 0 01.67-1 3 3 0 01-.64.33 1.77 1.77 0 01-.72.13 1.43 1.43 0 01-1-.39 1.5 1.5 0 01-.39-1.11 1.73 1.73 0 01.22-.87 15.66 15.66 0 00-1.97 1.44q-1 .93-2.1 2.19a6.34 6.34 0 00-.84 1.17 12.62 12.62 0 00-.77 1.51h-1.31c.5-.81 1-1.61 1.51-2.41a7.92 7.92 0 01-.56.61 11.14 11.14 0 01-1.62 1.4 2.73 2.73 0 01-1.52.55 1.14 1.14 0 01-.87-.29 1 1 0 01-.27-.7 1.78 1.78 0 01.1-.56c.06-.18.12-.36.19-.55-.18.18-.4.41-.66.66s-.56.48-.85.69a6.55 6.55 0 01-.94.55 2.29 2.29 0 01-.94.22 1.17 1.17 0 01-1.06-.46 1.93 1.93 0 01-.3-1.06 4.13 4.13 0 01.52-1.83 9.08 9.08 0 011.35-1.89 8.14 8.14 0 011.76-1.47 3.6 3.6 0 011.78-.61 1.86 1.86 0 01.7.12 1.35 1.35 0 01.51.3 1.66 1.66 0 01.32.43 3.39 3.39 0 01.17.51l.66-1.19h1.33l-1.44 2c-.46.66-.88 1.28-1.23 1.84a15.08 15.08 0 00-.86 1.48 2.38 2.38 0 00-.32 1c0 .36.17.53.54.53a2.22 2.22 0 001.09-.42A9.09 9.09 0 0049.93 70a20.45 20.45 0 001.52-1.62 2 2 0 01.12-.19c.73-1.15 1.47-2.32 2.25-3.51h1.23l-2.57 3.74c.19-.24.43-.5.72-.8s.61-.62.95-.94l1.08-.94A13 13 0 0156.4 65a1 1 0 01.22-.33.68.68 0 01.48-.12 2.24 2.24 0 01.39 0h.36a5.44 5.44 0 00-.66.85 1.82 1.82 0 00-.33 1.09 1.07 1.07 0 00.23.72.76.76 0 00.58.27 1.62 1.62 0 00.6-.13 2.77 2.77 0 00.56-.3c.17-.13.34-.25.51-.39l.17-.18a7.54 7.54 0 011.82-1.38 4 4 0 011.91-.55 1.29 1.29 0 01.78.22.71.71 0 01.3.61 1.26 1.26 0 01-.54 1 5.89 5.89 0 01-1.28.83 11.32 11.32 0 01-1.63.66 11.15 11.15 0 01-1.55.44 4.53 4.53 0 00-.37.92 3.9 3.9 0 00-.14 1 3.71 3.71 0 000 .48 1.61 1.61 0 00.17.43.72.72 0 00.3.3.89.89 0 00.47.13 3.92 3.92 0 001.58-.43 11.68 11.68 0 001.84-1.17 15.36 15.36 0 001.78-1.67 12.33 12.33 0 001.46-1.92l.16.1a11.73 11.73 0 01-.66 1.04z"/></svg>