<svg id="Layer_1" data-name="Layer 1" xmlns="http://www.w3.org/2000/svg" viewBox="0 0 150 150"><defs><style>.cls-1{fill:#333;}</style></defs><g id="Light"><path class="cls-1" d="M141.67,34.18c-6-6.35-13-12.62-23.12-13-15.64-.56-29,11.2-29,25A26.75,26.75,0,0,0,117.72,71.4h.14a29,29,0,0,0,23.25-13.83c2.33-3.46,2.16-4.32,2.16-12.4.17-6,.86-8-1.86-10.89Zm-22.6,12.1a3.85,3.85,0,0,1-3.89,3.8h-8.64a3.84,3.84,0,0,1-3.89-3.8h0V45.8a3.84,3.84,0,0,1,3.88-3.8h8.39a3.86,3.86,0,0,1,3.89,3.8h0Zm17.63,7.43a2.57,2.57,0,1,1-5.14,0V39a2.57,2.57,0,1,1,5.14,0h0ZM96.25,71v61.62h0v.87a6.79,6.79,0,0,0,6.53,6.65h6.91a6.56,6.56,0,0,0,6-5.66V76.23A29.88,29.88,0,0,1,96.25,71Z"/></g><path class="cls-1" d="M41.12,101.25v33.14a6.22,6.22,0,0,0,5.4,5.75H52.7a6.48,6.48,0,0,0,5.7-6.61V96.93a45.48,45.48,0,0,1-17.28,3.32Zm16.12-60.5a35.22,35.22,0,0,0-19.45,5.53A47.8,47.8,0,0,0,23.31,58.64,26.16,26.16,0,0,1,32.47,63a25.57,25.57,0,0,1,7.39,7.69,28.86,28.86,0,0,1,5.32,13,20.77,20.77,0,0,1,0,7.78,15.54,15.54,0,0,1-.82,3.06,50.73,50.73,0,0,0,14.56-3.41l1.21-.69a58.63,58.63,0,0,0,10.29-8.08l.43-.52A24.08,24.08,0,0,0,77.76,67a27.73,27.73,0,0,0-5-17.28c-6.74-8.13-12.44-9-15.51-9Zm9.81,18.32-9.34,6.74a3.76,3.76,0,0,1-5.26-.8v0h0v-.26a3.84,3.84,0,0,1,.82-5.31l9.16-6.79a3.77,3.77,0,0,1,5.26.8v0h0v.26A3.84,3.84,0,0,1,67.05,59.07ZM41.55,85a29,29,0,0,0-5.84-13,24.11,24.11,0,0,0-6-6.53,14.4,14.4,0,0,0-6.7-2.77,9.86,9.86,0,0,0-5.57.7,19,19,0,0,0-9.42,9.72,20.36,20.36,0,0,0-1.52,6.48,16.83,16.83,0,0,0,.57,5.19,17.91,17.91,0,0,0,.82,2.33,25.58,25.58,0,0,0,2.94,5.06A23.91,23.91,0,0,0,16,97.75a17.74,17.74,0,0,0,12.14,3.5A16.45,16.45,0,0,0,35,99.43a10,10,0,0,0,4.89-4.32,14.73,14.73,0,0,0,1.51-10ZM21.37,94.51a11.58,11.58,0,0,1-7.44-5.45,11.6,11.6,0,0,1-2.33-8.64c.61-2,2.9-2,4.32,0L23,90.19C24.09,92.22,23.27,94.68,21.37,94.51Z"/></svg>