<!-- SpeedSize.com --><svg data-name="Layer 1" xmlns="http://www.w3.org/2000/svg" viewBox="0 0 100 100"><path d="M86.94 31.45H13.06a1.45 1.45 0 00-1.46 1.45v30.64a5 5 0 001.28 3.35 6.57 6.57 0 00.54.52 5 5 0 003.18 1.13h66.79a4.92 4.92 0 003.37-1.32l.17-.15.14-.15a5 5 0 001.33-3.39V32.9a1.45 1.45 0 00-1.46-1.45zM17.59 44.26h6.85a.42.42 0 01.43.43v3.76a.42.42 0 01-.43.44h-6.85a.43.43 0 01-.43-.44v-3.76a.42.42 0 01.43-.43zm-.43-2.75v-3.76a.42.42 0 01.43-.43h3.76a.42.42 0 01.44.43v3.76a.43.43 0 01-.44.43h-3.76a.42.42 0 01-.43-.43zm65.21 14.31h-10a.42.42 0 01-.44-.43v-3.76a.43.43 0 01.44-.43h10a.42.42 0 01.43.43v3.76a.42.42 0 01-.43.43zm.34 2.76v3.75a.43.43 0 01-.44.44h-9.92a.43.43 0 01-.44-.44v-3.75a.43.43 0 01.44-.44h9.92a.43.43 0 01.44.44zm-7.34-16.64H71.6a.42.42 0 01-.43-.43v-3.76a.42.42 0 01.43-.43h3.77a.42.42 0 01.43.43v3.76a.42.42 0 01-.43.43zM73 44.26a.42.42 0 01.43.43v3.76a.42.42 0 01-.43.44h-3.74a.43.43 0 01-.44-.44v-3.76a.43.43 0 01.44-.43zM30.61 58.14h38.55a.43.43 0 01.44.44v3.75a.43.43 0 01-.44.44H30.61a.43.43 0 01-.44-.44v-3.75a.43.43 0 01.44-.44zm-.34-2.75v-3.76a.42.42 0 01.43-.43h3.76a.42.42 0 01.44.43v3.76a.43.43 0 01-.44.43H30.7a.42.42 0 01-.43-.43zm6.94 0v-3.76a.42.42 0 01.43-.43h3.76a.42.42 0 01.43.43v3.76a.42.42 0 01-.43.43h-3.76a.42.42 0 01-.43-.43zm6.94 0v-3.76a.42.42 0 01.43-.43h3.77a.42.42 0 01.43.43v3.76a.42.42 0 01-.43.43h-3.77a.42.42 0 01-.43-.43zm7 0v-3.76a.41.41 0 01.42-.43h3.76a.42.42 0 01.43.43v3.76a.42.42 0 01-.43.43h-3.81a.42.42 0 01-.42-.43zm6.93 0v-3.76a.42.42 0 01.43-.43h3.77a.42.42 0 01.43.43v3.76a.42.42 0 01-.43.43h-3.82a.42.42 0 01-.46-.43zm6.94 0v-3.76a.42.42 0 01.43-.43h3.76a.42.42 0 01.43.43v3.76a.42.42 0 01-.43.43H65.4a.42.42 0 01-.4-.43zm4.08-13.88a.43.43 0 01-.44.43h-3.8a.42.42 0 01-.44-.43v-3.76a.43.43 0 01.44-.43h3.75a.42.42 0 01.44.43zm-3 2.75a.42.42 0 01.44.43v3.76a.43.43 0 01-.44.44h-3.78a.43.43 0 01-.43-.44v-3.76a.42.42 0 01.43-.43zm-3.8-2.75a.43.43 0 01-.44.43h-3.75a.42.42 0 01-.43-.43v-3.76a.42.42 0 01.43-.43h3.75a.42.42 0 01.44.43zm-3.16 2.75a.42.42 0 01.43.43v3.76a.42.42 0 01-.43.44h-3.76a.43.43 0 01-.44-.44v-3.76a.43.43 0 01.44-.43zm-3.59-2.75a.42.42 0 01-.43.43h-3.76a.42.42 0 01-.44-.43v-3.76a.43.43 0 01.44-.43h3.76a.42.42 0 01.43.43zm-3.35 2.75a.42.42 0 01.44.43v3.76a.43.43 0 01-.44.44h-3.76a.43.43 0 01-.43-.44v-3.76a.42.42 0 01.43-.43zm-3.4-2.75a.43.43 0 01-.44.43H44.6a.42.42 0 01-.43-.43v-3.76a.42.42 0 01.43-.43h3.76a.42.42 0 01.44.43zm-3.54 2.75a.42.42 0 01.43.43v3.76a.42.42 0 01-.43.44H41.5a.43.43 0 01-.44-.44v-3.76a.43.43 0 01.44-.43zm-3.19-2.75a.42.42 0 01-.43.43h-3.76a.42.42 0 01-.43-.43v-3.76a.42.42 0 01.43-.43h3.76a.42.42 0 01.43.43zm-3.75 2.75a.42.42 0 01.44.43v3.76a.43.43 0 01-.44.44h-3.76a.43.43 0 01-.43-.44v-3.76a.42.42 0 01.43-.43zm-3-2.75a.42.42 0 01-.43.43H31.1a.42.42 0 01-.43-.43v-3.76a.42.42 0 01.43-.43h3.76a.42.42 0 01.43.43zm-3.91 2.75a.42.42 0 01.43.43v3.76a.42.42 0 01-.43.44h-3.79a.43.43 0 01-.44-.44v-3.76a.43.43 0 01.44-.43zm-2.84-2.75a.42.42 0 01-.43.43h-3.79a.42.42 0 01-.44-.43v-3.76a.43.43 0 01.44-.43h3.76a.42.42 0 01.43.43zM17.59 51.2h9.93a.42.42 0 01.43.43v3.76a.42.42 0 01-.43.43h-9.93a.42.42 0 01-.43-.43v-3.76a.42.42 0 01.43-.43zm0 6.94h9.93a.43.43 0 01.43.44v3.75a.42.42 0 01-.43.44h-9.93a.43.43 0 01-.43-.44v-3.75a.42.42 0 01.43-.44zm65.21-9.69a.42.42 0 01-.43.44H76.2a.43.43 0 01-.43-.44v-3.76a.42.42 0 01.43-.43h6.17a.42.42 0 01.43.43zm-4.88-6.94v-3.76a.43.43 0 01.44-.43h3.76a.42.42 0 01.43.43v3.76a.42.42 0 01-.43.43h-3.76a.42.42 0 01-.44-.43z" fill="#333"/></svg>