<?xml version="1.0" encoding="UTF-8"?><svg id="Layer_1" xmlns="http://www.w3.org/2000/svg" viewBox="0 0 500 500"><defs><style>.cls-7{fill:#004567;}</style></defs><path class="cls-7" d="m447.95,146.77C414.85,40.94,301.55-16.57,194.08,11.57,108.96,33.84,37.95,119.99,41.6,214.66c-.37,17.64,1.07,36.71,7.47,55.91,18.54,55.66,53.94,97.05,102.96,127.98,35.36,22.32,70.76,44.71,85.36,87.41,2.13,6.19,7.01,10.09,14.19,9.52,8.16-.66,11.73-6.85,14.03-13.25,10.71-29.82,32.2-50.04,57.88-66.78,12.02-7.84,23.96-15.75,35.85-23.75,78.27-52.38,120.19-143.86,88.6-244.93Zm-98.53,221.34c-33.6,23.22-70.1,42.87-93.98,77.73-4.31,6.32-7.06,3.98-10.46-.86-23.01-32.73-56.94-52.3-89.18-74.04-55.87-37.78-87.09-89.88-90.29-157.68-1.97-92.17,77.28-187.63,189.35-184.3,89.01,2.63,154.93,60.63,174.09,138.36,19.12,77.73-10.46,153.05-79.54,200.79Z"/><rect class="cls-7" x="148.64" y="108.64" width="202.72" height="202.72"/></svg>