<?xml version="1.0" encoding="utf-8"?>
<!-- Generator: Adobe Illustrator 16.0.0, SVG Export Plug-In . SVG Version: 6.00 Build 0)  -->
<!DOCTYPE svg PUBLIC "-//W3C//DTD SVG 1.1//EN" "http://www.w3.org/Graphics/SVG/1.1/DTD/svg11.dtd">
<svg version="1.1" id="Layer_1" xmlns="http://www.w3.org/2000/svg" xmlns:xlink="http://www.w3.org/1999/xlink" x="0px" y="0px"
	 width="485.101px" height="113.9px" viewBox="63.45 339.05 485.101 113.9" enable-background="new 63.45 339.05 485.101 113.9"
	 xml:space="preserve">
<g>
	<g>
		<g>
			<g>
				<path fill="#221F1F" d="M204.3,357.8v-15.7h5.8v15.7H204.3z M204.3,450.9v-78.3h5.8v78.3H204.3L204.3,450.9z"/>
				<path fill="#221F1F" d="M300.5,373.2c-0.2-4.7-1.2-8.7-3-12.2c-1.8-3.4-4.2-6.3-7.2-8.7c-3-2.3-6.7-4.1-10.9-5.3
					c-4.2-1.2-8.8-1.7-13.8-1.7c-3,0-6.3,0.4-9.8,1.1c-3.5,0.7-6.8,2-9.7,3.7c-3,1.8-5.5,4.2-7.4,7.2c-1.9,3-2.9,6.7-2.9,11.2
					c0,4.4,1.1,7.9,3.2,10.7c2.1,2.7,4.9,4.9,8.4,6.6c3.4,1.7,7.4,3,11.9,4s9,2,13.6,2.9c4.7,0.9,9.2,2,13.6,3.3s8.4,3,11.9,5.2
					s6.3,5,8.4,8.5c2.101,3.5,3.2,7.899,3.2,13.2c0,5.699-1.2,10.5-3.7,14.3c-2.4,3.899-5.5,7-9.2,9.399
					c-3.7,2.4-7.8,4.2-12.3,5.301c-4.5,1.1-8.9,1.6-13,1.6c-6.4,0-12.4-0.7-18-2.1c-5.6-1.4-10.5-3.601-14.6-6.7
					c-4.2-3.101-7.4-7.101-9.8-12c-2.4-4.9-3.5-10.8-3.4-17.8h6.7c-0.3,6,0.6,11,2.6,15.199c2,4.101,4.8,7.5,8.4,10.101
					c3.6,2.6,7.8,4.5,12.7,5.7c4.9,1.199,10,1.8,15.4,1.8c3.2,0,6.7-0.4,10.4-1.2c3.7-0.8,7.1-2.2,10.2-4.1
					c3.1-1.9,5.7-4.5,7.8-7.601c2.1-3.1,3.1-7.1,3.1-11.899c0-4.601-1.1-8.301-3.2-11.2c-2.1-2.9-4.9-5.2-8.4-7s-7.5-3.2-11.9-4.3
					c-4.4-1.101-9-2.101-13.6-3c-4.6-0.9-9.1-2-13.6-3.2c-4.5-1.2-8.4-2.9-11.9-4.9c-3.5-2.1-6.2-4.8-8.4-8.1
					c-2.1-3.3-3.2-7.5-3.2-12.7s1.1-9.6,3.3-13.3c2.2-3.7,5-6.7,8.5-9c3.5-2.3,7.4-4,11.8-5c4.4-1.1,8.7-1.6,12.9-1.6
					c5.7,0,11,0.6,15.9,1.9s9.2,3.2,12.9,5.9c3.7,2.7,6.7,6.2,8.9,10.4c2.2,4.3,3.5,9.4,3.8,15.4H300.5L300.5,373.2z"/>
				<path fill="#221F1F" d="M352.6,377.6h-17.1v54.7c0,3.101,0.4,5.601,1.1,7.5c0.7,1.8,1.801,3.2,3.301,4.2s3.199,1.5,5.3,1.8
					c2.1,0.2,4.5,0.3,7.2,0.2v5c-2.9,0.2-5.801,0.2-8.601-0.1c-2.8-0.301-5.3-1-7.399-2.301c-2.101-1.3-3.801-3.199-5.101-5.699
					s-1.8-6-1.6-10.5v-54.7h-14.5v-5h14.5v-24.4h5.8v24.4h17.1V377.6L352.6,377.6z"/>
				<path fill="#221F1F" d="M357.5,411.7c0-5.601,0.8-10.8,2.4-15.8c1.6-4.9,3.899-9.3,6.899-13c3-3.8,6.8-6.7,11.3-8.9
					s9.601-3.3,15.4-3.3s10.9,1.1,15.4,3.3s8.199,5.2,11.3,8.9c3,3.8,5.399,8.1,6.899,13c1.601,4.9,2.4,10.2,2.4,15.8
					c0,5.6-0.8,10.899-2.4,15.8c-1.6,5-3.899,9.3-6.899,13s-6.8,6.6-11.3,8.8s-9.601,3.3-15.4,3.3s-10.9-1.1-15.4-3.3
					s-8.199-5.1-11.3-8.8c-3-3.7-5.399-8-6.899-13C358.2,422.6,357.5,417.3,357.5,411.7z M363.3,411.7c0,4.7,0.7,9.2,2,13.5
					s3.2,8.1,5.8,11.5c2.5,3.3,5.7,6,9.4,8c3.8,2,8.1,3,12.9,3c4.899,0,9.199-1,12.899-3c3.8-2,6.9-4.601,9.4-8
					c2.5-3.3,4.5-7.2,5.8-11.5s2-8.8,2-13.5s-0.7-9.2-2-13.5c-1.3-4.3-3.2-8.1-5.8-11.5c-2.5-3.3-5.7-6-9.4-8c-3.8-2-8.1-3-12.899-3
					c-4.9,0-9.2,1-12.9,3c-3.8,2-6.9,4.6-9.4,8c-2.5,3.3-4.5,7.2-5.8,11.5C363.9,402.6,363.3,407.1,363.3,411.7z"/>
				<path fill="#221F1F" d="M448.7,390h0.5c0.7-2.5,2-4.9,3.899-7.2c1.9-2.2,4.2-4.2,6.9-5.8s5.7-2.9,9-3.7
					c3.3-0.9,6.7-1.2,10.3-1.1v5.8c-3-0.4-6.5-0.1-10.399,0.9c-3.9,1-7.601,3.3-11.2,6.7c-1.4,1.5-2.7,3-3.7,4.4
					c-1.1,1.4-2,3-2.7,4.7s-1.3,3.7-1.7,5.8c-0.399,2.1-0.699,4.7-0.8,7.6V450.9H443v-78.3h5.8V390H448.7z"/>
				<path fill="#221F1F" d="M485.5,412.5v0.9c0,4.6,0.6,8.899,1.8,13.1s3,7.8,5.4,11c2.399,3.1,5.399,5.6,9,7.5
					c3.6,1.8,7.8,2.7,12.6,2.7c7.8,0,14-2.101,18.601-6.2c4.6-4.1,7.699-9.8,9.5-17.1h5.8c-1.7,9.1-5.5,16.1-11.2,21
					c-5.7,4.899-13.3,7.3-22.8,7.3c-5.8,0-10.8-1-15.101-3.101c-4.3-2.1-7.899-4.899-10.8-8.5c-2.899-3.6-5.1-7.899-6.5-12.8
					c-1.399-4.899-2.1-10.2-2.1-15.899c0-5.5,0.7-10.7,2.2-15.801c1.5-5,3.699-9.399,6.6-13.2c2.9-3.8,6.6-6.9,11-9.1
					c4.4-2.3,9.6-3.4,15.6-3.4c5.5,0,10.301,1,14.5,3c4.2,2,7.7,4.8,10.601,8.3c2.8,3.5,5,7.6,6.5,12.2s2.2,9.6,2.2,14.8
					c0,0.5,0,1.1-0.101,1.7c-0.1,0.699-0.1,1.199-0.1,1.6H485.5z M543.1,407.5c-0.199-4.3-0.899-8.3-2.1-12.1c-1.2-3.8-3-7.2-5.4-10
					c-2.399-2.9-5.3-5.2-8.699-6.9c-3.4-1.7-7.301-2.6-11.7-2.6c-4.7,0-8.8,0.9-12.4,2.7c-3.6,1.8-6.6,4.1-9,7
					c-2.399,2.9-4.3,6.3-5.6,10.1c-1.3,3.8-2.101,7.8-2.4,11.899h57.3V407.5z"/>
			</g>
		</g>
	</g>
	<rect x="63.8" y="339.6" fill="#014868" width="113.1" height="113.1"/>
</g>
</svg>
