<svg id="Layer_1" data-name="Layer 1" xmlns="http://www.w3.org/2000/svg" viewBox="0 0 235.75 150"><defs><style>.cls-1{fill:#333;}</style></defs><g id="Light"><path id="Mac_Compare" data-name="Mac Compare" class="cls-1" d="M141.45,133.23v-69c0-3.24-1.75-5.06-5-5.06H18.52c-3.3,0-5,1.69-5,5.06v69H0c.17.3.44,1.08.71,1.08a38.56,38.56,0,0,0,15.62,4.78c8.66.6,17.32.91,17.35.87h87.57s7.94-.27,16.6-.84a38.64,38.64,0,0,0,15.63-4.78,4,4,0,0,0,1.48-1.08H141.45ZM20.21,65.87H134.72v67.36H20.21ZM178.33,140h0a.64.64,0,0,0,.14-.06,1.13,1.13,0,0,0,.8-1.08,1.14,1.14,0,0,0-1.17-1.15h-.24A9.46,9.46,0,0,1,168,130.3l-3-13.91H230.6c2.36,0,5.15-2.8,5.15-5.15V10.4c0-2.36-2.79-5.15-5.15-5.15H79.25c-2.36,0-5.16,2.79-5.16,5.15l.07,45.37h6.67V12H229v84.2h-84.2v33.68h13.47v3.37c-.13,5.18-10.1,6.73-10.1,6.73Zm-20.21-30.88c-.1.2-.2.4-.3.57a3.56,3.56,0,0,1-.34.47.84.84,0,0,1-.27.27,2.12,2.12,0,0,1-.37.24.64.64,0,0,1-.37.1,1.05,1.05,0,0,1-.3-.07l-.37-.1a1.35,1.35,0,0,1-.37-.13,1.11,1.11,0,0,0-.34,0,.77.77,0,0,0-.37.07,1.59,1.59,0,0,0-.4.14,1,1,0,0,0-.37.13,1.2,1.2,0,0,1-.27.07,1.09,1.09,0,0,1-.3-.07,1.05,1.05,0,0,1-.31-.17,3.39,3.39,0,0,1-.33-.33c-.14-.14-.24-.31-.41-.51s-.23-.4-.37-.64a5.38,5.38,0,0,1-.27-.74,7.12,7.12,0,0,1-.17-.74,6.88,6.88,0,0,1-.06-.74,3.19,3.19,0,0,1,.16-1,2.86,2.86,0,0,1,.44-.81,2,2,0,0,1,.68-.54,1.71,1.71,0,0,1,.84-.2,1.79,1.79,0,0,1,.77.2,2.09,2.09,0,0,0,.61.2,1,1,0,0,0,.2-.07l.47-.16a4.31,4.31,0,0,1,.47-.14,1.58,1.58,0,0,1,.37,0,1.88,1.88,0,0,1,.95.23,1.81,1.81,0,0,1,.7.64,2.48,2.48,0,0,0-.7.71,2,2,0,0,0-.21.94,2,2,0,0,0,.31,1.05,1.88,1.88,0,0,0,.84.7A1.88,1.88,0,0,0,158.12,109.08Zm-3.2-5.12a1.61,1.61,0,0,1,.14-.64,2.06,2.06,0,0,1,.37-.57,1.72,1.72,0,0,1,.54-.41,1.51,1.51,0,0,1,.64-.16v.2a1.71,1.71,0,0,1-.14.67,1.93,1.93,0,0,1-.37.57,1.43,1.43,0,0,1-.5.41,1.25,1.25,0,0,1-.57.17c-.07,0-.14,0-.14,0A.66.66,0,0,0,154.92,104Z"/></g></svg>