<?xml version="1.0" encoding="utf-8"?>
<!-- Generator: Adobe Illustrator 27.2.0, SVG Export Plug-In . SVG Version: 6.00 Build 0)  -->
<svg version="1.1" id="Layer_1" xmlns="http://www.w3.org/2000/svg" xmlns:xlink="http://www.w3.org/1999/xlink" x="0px" y="0px"
	 viewBox="0 0 60 54" style="enable-background:new 0 0 60 54;" xml:space="preserve">
<style type="text/css">
	.st0{fill:#1D1D1F;}
</style>
<path class="st0" d="M54.2,45.1v-27c0-0.6,0-1,0-1.2c0-0.3,0-0.5,0-0.6c0-0.2,0-0.5,0-0.7c0-0.3-0.1-0.5-0.2-0.8
	c-0.2-0.5-0.6-0.8-1-1c-0.2-0.1-0.5-0.2-0.8-0.2c-0.2,0-0.5-0.1-0.7-0.1c-0.2,0-0.3,0-0.6,0c-0.3,0-0.7,0-1.2,0H10.5
	c-0.6,0-1,0-1.2,0H8.6c-0.2,0-0.5,0-0.7,0.1c-0.3,0-0.5,0.1-0.8,0.2c-0.4,0.2-0.8,0.6-1,1c-0.1,0.2-0.2,0.5-0.2,0.8
	c0,0.2-0.1,0.5-0.1,0.7v0.6c0,0.3,0,0.7,0,1.2v27H0v1.1c0,1,0.8,1.8,1.8,1.8h2.6l0.3,0.6h3.5L8.4,48h43.2l0.3,0.6h3.5l0.3-0.6h2.6
	c1,0,1.8-0.8,1.8-1.8v-1.1H54.2z M52.5,45.1h-45v-27c0-0.6,0-1,0-1.2v-0.6c0-0.2,0-0.3,0.1-0.5c0-0.1,0-0.2,0.1-0.3
	c0-0.1,0.1-0.1,0.1-0.1c0.1,0,0.1-0.1,0.1-0.1c0.1,0,0.2-0.1,0.3-0.1c0.2,0,0.3,0,0.5-0.1h0.6c0.3,0,0.7,0,1.2,0h16.3
	c0,0.7,0.5,1.2,1.1,1.2H32c0.6,0,1.2-0.5,1.2-1.1l0,0l16.3,0c0.6,0,1,0,1.2,0h0.6c0.2,0,0.3,0,0.5,0.1c0.1,0,0.2,0,0.3,0.1
	c0,0,0.1,0.1,0.1,0.1c0,0.1,0.1,0.1,0.1,0.1c0,0.1,0.1,0.2,0.1,0.3c0,0.2,0,0.3,0,0.5v0.6c0,0.3,0,0.7,0,1.2L52.5,45.1L52.5,45.1z"
	/>
</svg>
