<?xml version="1.0" encoding="UTF-8"?>
<svg id="Layer_1" data-name="Layer 1" xmlns="http://www.w3.org/2000/svg" viewBox="0 0 50 50">
  <defs>
    <style>
      .cls-1 {
        fill: #1d1d1f;
      }
    </style>
  </defs>
  <path class="cls-1" d="m16.2,30.11v-10.05c0-.77.41-1.48,1.08-1.85l6.97-3.93c.59-.34,1.3-.41,1.95-.22l5.96,1.78c.97.29,1.63,1.18,1.63,2.19v14.05c0,1.07-.71,2-1.73,2.29l-5.67,1.6c-.8.22-1.65.12-2.38-.29l-4.06-2.3c-.96-.53-.59-1.99.51-1.99h6.9v-13.3l-5.83,2.07c-.53.19-.89.69-.89,1.26v7.36c.01.59-.31,1.14-.82,1.42l-1.8,1c-.81.45-1.82-.13-1.82-1.07Z"/>
  <g id="Regular-S">
    <path class="cls-1" d="m44.4,5.75c-1.3-1.28-2.82-2.08-4.58-2.4-1.75-.32-3.6-.49-5.55-.49H15.73c-1.95,0-3.8.16-5.55.49-1.75.32-3.28,1.12-4.58,2.4-1.28,1.3-2.07,2.81-2.39,4.55-.31,1.73-.47,3.57-.47,5.52v18.33c0,1.97.16,3.82.47,5.56.31,1.74,1.11,3.25,2.39,4.53,1.3,1.28,2.82,2.08,4.58,2.4,1.75.32,3.6.49,5.55.49h18.55c1.95,0,3.8-.16,5.55-.49,1.75-.32,3.28-1.12,4.58-2.4,1.28-1.28,2.07-2.79,2.39-4.53.31-1.74.47-3.6.47-5.56V15.85c0-1.97-.16-3.82-.47-5.56-.31-1.74-1.11-3.25-2.39-4.53Zm-1.52,9.42v19.64c0,1.11-.1,2.25-.3,3.42-.2,1.17-.66,2.1-1.37,2.81-.73.71-1.68,1.17-2.84,1.38-1.17.21-2.31.32-3.42.32H15.06c-1.11,0-2.26-.11-3.44-.32-1.18-.21-2.12-.67-2.83-1.38-.71-.71-1.17-1.65-1.37-2.81-.2-1.17-.3-2.31-.3-3.42V15.21c0-1.14.1-2.29.3-3.45.2-1.17.66-2.1,1.37-2.81.71-.71,1.65-1.17,2.83-1.38,1.18-.21,2.33-.32,3.47-.32h19.85c1.11,0,2.25.11,3.42.32,1.17.21,2.11.67,2.84,1.38.71.71,1.17,1.65,1.37,2.81.2,1.17.3,2.31.3,3.42Z"/>
  </g>
</svg>