<?xml version="1.0" encoding="UTF-8"?>
<svg id="Layer_1" data-name="Layer 1" xmlns="http://www.w3.org/2000/svg" viewBox="0 0 50 50">
  <defs>
    <style>
      .cls-1 {
        fill: #1d1d1f;
      }

      .cls-2 {
        fill: none;
        stroke: #1d1d1f;
        stroke-miterlimit: 10;
        stroke-width: 2px;
      }
    </style>
  </defs>
  <path class="cls-2" d="m48.09,2H14.41C7.44,2,1.79,7.65,1.79,14.61v34.71"/>
  <g>
    <circle class="cls-1" cx="16.04" cy="16.79" r="7.79"/>
    <path class="cls-1" d="m16.04,9.83c3.84,0,6.96,3.12,6.96,6.96s-3.12,6.96-6.96,6.96-6.96-3.12-6.96-6.96,3.12-6.96,6.96-6.96m0-1c-4.4,0-7.96,3.56-7.96,7.96s3.56,7.96,7.96,7.96,7.96-3.56,7.96-7.96-3.56-7.96-7.96-7.96h0Z"/>
  </g>
  <g>
    <path class="cls-1" d="m38.06,12.86c2.29,0,4.14,1.86,4.14,4.14s-1.86,4.14-4.14,4.14-4.14-1.86-4.14-4.14c0-1.11.43-2.15,1.21-2.93.78-.78,1.82-1.21,2.93-1.21m0-.8c-2.73,0-4.94,2.21-4.94,4.94,0,2.73,2.21,4.94,4.94,4.94s4.94-2.21,4.94-4.94-2.21-4.94-4.94-4.94h0Z"/>
    <circle class="cls-1" cx="28.81" cy="17" r="1.72"/>
  </g>
</svg>