<?xml version="1.0" encoding="UTF-8"?>
<svg id="Layer_1" data-name="Layer 1" xmlns="http://www.w3.org/2000/svg" viewBox="0 0 50 50">
  <defs>
    <style>
      .cls-1 {
        fill: #1d1d1f;
      }
    </style>
  </defs>
  <g id="Regular-S">
    <path class="cls-1" d="m3.54,25.52c0,11.72,9.75,21.45,21.45,21.45s21.48-9.73,21.48-21.45c0-6.91-3.43-13.16-8.64-17.12-1.04-.8-2.37-.56-2.95.43-.61.98-.29,2.13.66,2.84,4.17,3.16,6.83,8.16,6.86,13.85.03,9.67-7.73,17.41-17.41,17.41S7.63,35.19,7.63,25.52c0-8.24,5.58-15.07,13.24-16.9v2.71c0,1.65,1.12,2.07,2.37,1.2l6.75-4.73c1.04-.72,1.06-1.83,0-2.58L23.26.48c-1.28-.93-2.39-.5-2.39,1.17v2.82C11.06,6.44,3.54,15.21,3.54,25.52Z"/>
    <path class="cls-1" d="m31.76,34.32c3.46,0,5.71-3.27,5.71-8.27s-2.26-8.32-5.71-8.32-5.74,3.27-5.74,8.32,2.26,8.27,5.74,8.27Zm-13.29,0c3.3,0,5.61-1.97,5.61-4.81,0-2.02-1.36-3.67-3.32-3.91v.13c1.57-.27,2.82-1.89,2.82-3.72,0-2.55-2.05-4.28-4.97-4.28-2.52,0-4.68,1.41-5.13,3.46-.05.24-.08.48-.08.74,0,.82.56,1.41,1.36,1.41.64,0,1.04-.35,1.33-1.09.45-1.25,1.2-1.83,2.47-1.83s2.18.8,2.18,1.94c0,1.22-.9,2.07-2.23,2.07h-.77c-.77,0-1.28.53-1.28,1.36,0,.77.53,1.38,1.28,1.38h.85c1.62,0,2.6.85,2.6,2.21,0,1.28-1.14,2.26-2.68,2.26-1.36,0-2.23-.61-2.71-1.83-.32-.77-.72-1.09-1.36-1.09-.77,0-1.33.58-1.33,1.41,0,.27.03.5.08.74.43,1.97,2.74,3.46,5.29,3.46Zm13.29-2.82c-1.67,0-2.68-2.05-2.68-5.45s.98-5.5,2.68-5.5,2.66,2.02,2.66,5.5-1.01,5.45-2.66,5.45Z"/>
  </g>
</svg>