<svg id="Layer_1" data-name="Layer 1" xmlns="http://www.w3.org/2000/svg" viewBox="0 0 150 150"><defs><style>.cls-1{fill:#333;}</style></defs><path class="cls-1" d="M110.46,16H39.54a26.68,26.68,0,0,0-26.6,26.59v70.93a26.68,26.68,0,0,0,26.6,26.59h70.92a26.68,26.68,0,0,0,26.6-26.59V42.62A26.68,26.68,0,0,0,110.46,16Zm-9,84a9.47,9.47,0,0,1-4.88,6.38,12.91,12.91,0,0,1-4,1.37,17.06,17.06,0,0,1-6.21.31,9.47,9.47,0,0,1-4.21-2,7.95,7.95,0,0,1-.44-12,10.4,10.4,0,0,1,3.77-2.26,40.93,40.93,0,0,1,6.38-1.51l2.26-.4a3.93,3.93,0,0,0,2.53-1.19,3.65,3.65,0,0,0,.71-2.66V62.39c0-1.81-.89-2.3-2.75-2-1.33.22-30,5.58-30,5.58-1.64.36-2.17.85-2.17,2.71v34.75a17,17,0,0,1-.4,3.94,9.52,9.52,0,0,1-4.88,6.39,12.91,12.91,0,0,1-4,1.37,17.06,17.06,0,0,1-6.21.31,9.11,9.11,0,0,1-4.21-2,8.35,8.35,0,0,1-2.88-5.32,8,8,0,0,1,2.39-6.69,10.44,10.44,0,0,1,3.77-2.27,40.4,40.4,0,0,1,6.39-1.5l2.26-.4a4,4,0,0,0,2.52-1.2,3.68,3.68,0,0,0,.76-2.61v-40a5.36,5.36,0,0,1,.08-1.06,3.19,3.19,0,0,1,1.16-2.08,4.61,4.61,0,0,1,2.17-.89h0L95.79,43c.31,0,2.79-.49,3.06-.49a2.54,2.54,0,0,1,2.92,2.84V96.08A19.54,19.54,0,0,1,101.42,100Z"/></svg>