<svg version="1.1" id="Layer_1" xmlns="http://www.w3.org/2000/svg" xmlns:xlink="http://www.w3.org/1999/xlink" x="0px" y="0px" viewBox="0 0 23 26" style="enable-background:new 0 0 23 26;" xml:space="preserve">
<style type="text/css">
	.st0{fill:#858585;}
</style>
<g>
	<g>
		<path class="st0" d="M11.1,25.7L0.3,19.1V7l11.2-6.8l11.2,7.1v11.8L11.1,25.7z M1.1,18.6l10,6.1l10.7-6V7.9L11.5,1.3L1.1,7.5V18.6    z"/>
	</g>
	<g>
		<path class="st0" d="M11.3,13.7L0.6,7.8C0.4,7.7,0.3,7.4,0.4,7.2C0.5,7,0.8,6.9,1,7l10.4,5.7l10.7-5.5c0.2-0.1,0.5,0,0.6,0.2    s0,0.5-0.2,0.6L11.3,13.7z"/>
	</g>
	<g>
		<path class="st0" d="M11.2,25.7c-0.2,0-0.4-0.2-0.4-0.4V13.3c0-0.2,0.2-0.4,0.4-0.4s0.4,0.2,0.4,0.4v11.9    C11.6,25.5,11.5,25.7,11.2,25.7z"/>
	</g>
	<g>
		<path class="st0" d="M5.7,10.3c-0.1,0-0.3-0.1-0.4-0.2C5.2,9.9,5.2,9.6,5.4,9.5l10.2-6.3c0.2-0.1,0.5-0.1,0.6,0.1    c0.1,0.2,0.1,0.5-0.1,0.6L5.9,10.2C5.8,10.3,5.7,10.3,5.7,10.3z"/>
	</g>
</g>
</svg>