<?xml version="1.0" encoding="UTF-8"?>
<svg id="Layer_1" data-name="Layer 1" xmlns="http://www.w3.org/2000/svg" viewBox="0 0 62 50">
  <defs>
    <style>
      .cls-1 {
        fill: #1d1d1f;
      }
    </style>
  </defs>
  <g id="Regular-S">
    <path class="cls-1" d="m14.57,36.42h5.59c.68,0,1.22-.2,1.63-.61.41-.41.61-.93.61-1.57v-4.22c0-.64-.2-1.17-.61-1.57-.41-.41-.95-.61-1.63-.61h-5.59c-.66,0-1.2.2-1.62.61-.42.41-.63.93-.63,1.57v4.22c0,.64.21,1.17.63,1.57.42.41.96.61,1.62.61ZM6.09,19.99h49.84v-5.24H6.09v5.24Zm5.33,24.76h39.15c2.49,0,4.35-.61,5.58-1.82,1.23-1.21,1.85-3.04,1.85-5.49V12.56c0-2.45-.62-4.28-1.85-5.49-1.23-1.21-3.09-1.82-5.58-1.82H11.43c-2.47,0-4.32.61-5.56,1.82-1.24,1.21-1.86,3.04-1.86,5.49v24.88c0,2.45.62,4.28,1.86,5.49,1.24,1.21,3.1,1.82,5.56,1.82Zm.06-4.19c-1.05,0-1.86-.28-2.43-.84-.57-.56-.86-1.4-.86-2.51V12.8c0-1.11.29-1.94.86-2.51.57-.56,1.38-.84,2.43-.84h39.03c1.05,0,1.86.28,2.43.84s.86,1.4.86,2.51v24.41c0,1.11-.29,1.94-.86,2.51-.57.56-1.38.84-2.43.84H11.48Z"/>
  </g>
</svg>