<!-- SpeedSize.com --><svg version="1.1" id="Layer_1" xmlns="http://www.w3.org/2000/svg" x="0" y="0" viewBox="0 0 37 37" xml:space="preserve"><g><path d="M18.8 19.8c-2.2 2.2-4.7 4.2-5.7 3.3-1.4-1.4-2.3-2.7-5.4-.1-3.1 2.5-.7 4.2.7 5.6 1.6 1.6 7.5.1 13.4-5.8 5.9-5.9 7.4-11.8 5.8-13.4-1.4-1.4-3.1-3.8-5.6-.7-2.5 3.1-1.3 4 .1 5.4 1 1.1-1.1 3.6-3.3 5.7z"/></g><g><path d="M18.5 37C8.3 37 0 28.7 0 18.5S8.3 0 18.5 0 37 8.3 37 18.5 28.7 37 18.5 37zm0-35.1C9.3 1.9 1.9 9.3 1.9 18.5s7.4 16.6 16.6 16.6 16.6-7.4 16.6-16.6S27.7 1.9 18.5 1.9z"/></g></svg>