<!-- SpeedSize.com --><svg data-name="Layer 1" xmlns="http://www.w3.org/2000/svg" viewBox="0 0 100 100"><path d="M80.82 33H19.18c-5.13 0-7.81 2.52-7.81 7.74v19c0 5.22 2.62 7.75 7.81 7.75h4.06v3.63c0 4.49 2 6.43 6.47 6.43H70.3c4.4 0 6.46-1.94 6.46-6.43V67.5h4.06c5.19 0 7.81-2.53 7.81-7.75v-19c0-5.2-2.63-7.75-7.81-7.75zm-6.37 37.84c0 3.29-1.24 4.53-4.46 4.53H30c-3.25 0-4.49-1.24-4.49-4.53v-16.2c0-3.25 1.24-4.49 4.49-4.49h40c3.22 0 4.46 1.24 4.46 4.49zm5.9-28a2.73 2.73 0 112.73-2.73 2.72 2.72 0 01-2.73 2.69zm-10.8-20.4h-39.1c-4.59 0-7 2-7 6.59v1.53h53.13V29c0-4.56-2.37-6.56-7.03-6.56z" fill="#333"/></svg>