<svg version="1.1" id="Layer_1" xmlns="http://www.w3.org/2000/svg" xmlns:xlink="http://www.w3.org/1999/xlink" x="0px" y="0px" viewBox="0 0 16 13.9" style="enable-background:new 0 0 16 13.9;" xml:space="preserve">
<style type="text/css">
	.st0{fill:#FFFFFF;}
</style>
<g>
	<polygon class="st0" points="13.6,9.4 4.7,9.4 1.7,1 0,1 0,0 2.4,0 5.4,8.4 12.9,8.4 14.6,3.3 4.3,3.3 4.3,2.3 16,2.3  "/>
</g>
<g>
	<polygon class="st0" points="13.3,11.4 2.8,11.4 4.7,8.6 5.5,9.1 4.7,10.4 13.3,10.4  "/>
</g>
<g>
	<path class="st0" d="M6.3,13.9c-0.8,0-1.5-0.7-1.5-1.5s0.7-1.5,1.5-1.5s1.5,0.7,1.5,1.5S7.1,13.9,6.3,13.9z M6.3,11.7   c-0.4,0-0.7,0.3-0.7,0.7c0,0.4,0.3,0.7,0.7,0.7S7,12.8,7,12.4C7,12,6.7,11.7,6.3,11.7z"/>
</g>
<g>
	<path class="st0" d="M11.2,13.9c-0.8,0-1.5-0.7-1.5-1.5s0.7-1.5,1.5-1.5s1.5,0.7,1.5,1.5S12,13.9,11.2,13.9z M11.2,11.7   c-0.4,0-0.7,0.3-0.7,0.7c0,0.4,0.3,0.7,0.7,0.7s0.7-0.3,0.7-0.7C12,12,11.6,11.7,11.2,11.7z"/>
</g>
</svg>