<!-- SpeedSize.com --><svg data-name="Layer 1" xmlns="http://www.w3.org/2000/svg" viewBox="0 0 1080 1080"><path d="M540.32 1018c177.24 0 318.9-137.85 318.9-310.65 0-98.46-48.91-195-94-278.88L584.79 91.18C573.35 70.22 560 62 540.32 62 520 62 506 70.85 495.21 90.54l-180.41 338c-45.11 83.86-94 180.42-94 278.88C220.78 880.19 362.44 1018 540.32 1018zm0-29.85c-160.73 0-289.69-124.52-289.69-280.8C250.63 614 297 527 342.75 442.48L522.53 107.7c8.89-17.16 27.32-17.16 36.21 0l179.15 334.78C783 526.34 829.37 614 829.37 707.39c0 156.28-128.96 280.8-289.05 280.8z"/></svg>