<?xml version="1.0" encoding="utf-8"?>
<!-- Generator: Adobe Illustrator 16.0.0, SVG Export Plug-In . SVG Version: 6.00 Build 0)  -->
<!DOCTYPE svg PUBLIC "-//W3C//DTD SVG 1.1//EN" "http://www.w3.org/Graphics/SVG/1.1/DTD/svg11.dtd">
<svg version="1.1" id="Layer_1" xmlns="http://www.w3.org/2000/svg" xmlns:xlink="http://www.w3.org/1999/xlink" x="0px" y="0px"
	 width="594.705px" height="606.678px" viewBox="8.647 92.661 594.705 606.678"
	 enable-background="new 8.647 92.661 594.705 606.678" xml:space="preserve">
<g>
	<g>
		<path fill="#121414" d="M252.783,582.261c-135.705,0-244.8-109.096-244.8-244.8c0-135.705,109.096-244.8,244.8-244.8
			s244.8,109.095,244.8,244.8C497.583,473.165,385.826,582.261,252.783,582.261z M252.783,119.27
			c-119.739,0-218.191,98.452-218.191,218.191s98.452,218.191,218.191,218.191c119.739,0,218.191-98.452,218.191-218.191
			S372.521,119.27,252.783,119.27z"/>
	</g>
	<g>
		<path fill="#121414" d="M590.713,699.339c-2.661,0-7.982-2.661-10.644-5.321L404.452,507.757c-5.321-5.322-5.321-13.305,0-18.626
			c5.321-5.322,13.305-5.322,18.626,0l175.617,186.261c5.322,5.321,5.322,13.304,0,18.626
			C598.695,696.678,593.374,699.339,590.713,699.339z"/>
	</g>
</g>
</svg>
