<?xml version="1.0" encoding="UTF-8"?>
<svg id="Layer_1" data-name="Layer 1" xmlns="http://www.w3.org/2000/svg" viewBox="0 0 370.79 138.67">
  <defs>
    <style>
      .cls-1 {
        fill: #1d1d1f;
      }

      .cls-1, .cls-2 {
        stroke-width: 0px;
      }

      .cls-2 {
        fill: #d11819;
      }
    </style>
  </defs>
  <g>
    <g>
      <g>
        <path class="cls-2" d="m105.62,130.78c.19,2.2,2.14,4.09,5.77,4.09,3.34,0,5.26-1.54,5.26-3.93,0-1.95-1.35-2.97-4.13-3.63l-4.24-1.04c-3.45-.79-6.52-2.83-6.52-7.16,0-5.07,4.4-7.85,9.62-7.85s9.49,2.87,9.58,7.71h-4.46c-.17-2.12-1.85-3.95-5.17-3.95-2.93,0-4.9,1.39-4.9,3.72,0,1.68,1.21,2.85,3.64,3.39l4.22,1.02c3.93.93,7,2.8,7,7.35,0,5.19-4.15,8.16-10.26,8.16-7.43,0-9.89-4.3-9.99-7.89h4.55Z"/>
        <path class="cls-2" d="m147.61,138.15h-16.61v-26.33h16.61v3.9h-11.96v7.23h11.26v3.68h-11.26v7.62h11.96v3.9Z"/>
        <path class="cls-2" d="m177.12,120c0,4.34-2.72,6.6-4.8,7.39l5.3,10.76h-5.25l-4.69-10.01h-5.17v10.01h-4.63v-26.33h10.24c6.13,0,8.99,3.68,8.99,8.18Zm-9.76,4.51c3.14,0,4.94-1.54,4.94-4.38,0-3.03-1.99-4.55-4.82-4.55h-4.96v8.93h4.84Z"/>
        <path class="cls-2" d="m187.23,138.15v-26.33h4.67v26.33h-4.67Z"/>
        <path class="cls-2" d="m219.66,138.15h-16.61v-26.33h16.61v3.9h-11.96v7.23h11.26v3.68h-11.26v7.62h11.96v3.9Z"/>
        <path class="cls-2" d="m232.71,130.78c.19,2.2,2.14,4.09,5.77,4.09,3.34,0,5.27-1.54,5.27-3.93,0-1.95-1.35-2.97-4.13-3.63l-4.24-1.04c-3.45-.79-6.52-2.83-6.52-7.16,0-5.07,4.4-7.85,9.62-7.85s9.49,2.87,9.59,7.71h-4.46c-.17-2.12-1.85-3.95-5.17-3.95-2.93,0-4.9,1.39-4.9,3.72,0,1.68,1.22,2.85,3.65,3.39l4.22,1.02c3.94.93,7,2.8,7,7.35,0,5.19-4.15,8.16-10.26,8.16-7.43,0-9.89-4.3-9.99-7.89h4.55Z"/>
      </g>
      <path class="cls-1" d="m132.24,61.52h-.19l-10.33-41.43h-12.28l-10.33,41.43h-.19l-9.55-41.43h-12.86l16.18,58.1h12.08l10.72-39.78h.19l10.72,39.78h12.18l16.18-58.1h-12.86l-9.65,41.43Zm226.36-41.43v23.3h-23.68v-23.3h-12.08v58.1h12.08v-24.76h23.68v24.76h12.18V20.09h-12.18Zm-150.06,9.84h17.34v48.26h11.98V29.93h17.35v-9.84h-46.67v9.84Zm-33.33,24.67l6.62-23.11h.2l6.52,23.11h-13.35Zm-.1-34.51l-18.71,58.1h12.08l4.19-14.62h18.42l4.09,14.62h12.86l-18.61-58.1h-14.32Zm111.96-.69c-15.39,0-24.46,9.94-24.46,26.52v6.53c0,16.77,9.06,26.43,24.36,26.43s23.09-9.36,23.09-19.89v-1.07h-11.59c0,6.04-2.93,10.73-11.3,10.73s-12.37-5.17-12.37-16.19v-6.53c0-10.91,4.09-16.38,12.37-16.38,7.7,0,11.3,5.07,11.3,10.82h11.59v-.58c0-11.31-8.67-20.38-23-20.38"/>
    </g>
    <g>
      <path class="cls-1" d="m47.9,19.13c-6.52-.48-12.05,3.64-15.13,3.64s-7.96-3.54-13.07-3.44c-6.72.1-12.91,3.91-16.38,9.93-6.98,12.11-1.78,30.06,5.02,39.89,3.33,4.8,7.29,10.22,12.5,10.02,5.01-.2,6.91-3.24,12.97-3.24s7.77,3.24,13.07,3.15c5.4-.1,8.82-4.9,12.12-9.73,3.82-5.58,5.39-10.97,5.48-11.26-.12-.05-10.52-4.04-10.62-16.02-.09-10.02,8.18-14.83,8.55-15.07-4.7-6.92-11.95-7.68-14.5-7.87Z"/>
      <path class="cls-1" d="m43.87,12.64c2.77-3.35,4.63-8.01,4.12-12.64-3.98.16-8.8,2.65-11.66,6-2.56,2.96-4.81,7.71-4.2,12.25,4.44.34,8.97-2.26,11.74-5.6Z"/>
    </g>
  </g>
  <path class="cls-2" d="m269.78,131.48c.21,1.64,1.75,3.38,4.42,3.38,3.95,0,5.77-4.22,5.67-9.66h-.21c-.66,1.93-2.82,3.82-6.48,3.82-4.24,0-8.2-2.99-8.2-8.64s4.4-9.04,9.28-9.04c6.17,0,10.09,4.05,10.09,13.27,0,8.74-3.76,14.02-10.26,14.02-5.77,0-8.6-3.9-8.78-7.14h4.47Zm4.65-16.39c-2.56,0-4.92,1.74-4.92,5.17s2.2,5.15,4.84,5.15,4.98-2.1,4.98-5.07c0-3.45-2.16-5.25-4.9-5.25Z"/>
</svg>