<?xml version="1.0" encoding="UTF-8"?>
<svg id="Layer_1" data-name="Layer 1" xmlns="http://www.w3.org/2000/svg" viewBox="0 0 50 50">
  <defs>
    <style>
      .cls-1 {
        fill: #1d1d1f;
      }
    </style>
  </defs>
  <path class="cls-1" d="m49.98,25.71c-.27.71-.88,1-1.51.73-.45-.2-.55-.6-.58-1.02-.04-.71-.05-1.43-.1-2.14-.19-2.62-.86-5.13-1.92-7.54-2.37-5.38-6.24-9.28-11.61-11.68-3.18-1.42-6.53-2.06-10.02-1.92-4.31.17-8.27,1.42-11.88,3.78-.3.19-.6.39-.91.55-.54.28-1.06.15-1.37-.3-.31-.46-.25-1.02.24-1.38.75-.54,1.51-1.07,2.31-1.52,2.46-1.4,5.09-2.36,7.88-2.88C22.67,0,24.82-.1,26.99.1c4.28.4,8.23,1.75,11.78,4.16,5.48,3.72,9.06,8.79,10.59,15.26.33,1.39.52,2.8.57,4.23,0,.13.03.25.04.38v1.58Z"/>
  <path class="cls-1" d="m.02,23.77c.03-.37.05-.74.09-1.11.25-2.94,1.07-5.73,2.32-8.39,1.19-2.53,2.75-4.81,4.74-6.8.07-.07.13-.13.2-.19.47-.42.98-.42,1.45,0,.41.37.46.89.08,1.37-.42.53-.9,1.02-1.34,1.54-2.74,3.19-4.46,6.87-5.15,11.02-.47,2.83-.38,5.65.18,8.46.07.35.12.7.19,1.05.07.32-.06.56-.29.77-.62.57-1.36.46-1.67-.32-.23-.57-.38-1.18-.48-1.79-.14-.85-.19-1.72-.28-2.58,0-.09-.03-.18-.04-.27,0-.92,0-1.84,0-2.75Z"/>
  <path class="cls-1" d="m38.6,29.8c-.03.59-.03,1.19-.1,1.78-.07.59-.4.93-.87.99-.62.08-1.13-.29-1.17-.91-.07-1.01-.11-2.02-.14-3.03-.08-2.09-.24-4.17-.76-6.21-.71-2.75-2.16-4.98-4.53-6.58-1.46-.98-3.08-1.52-4.83-1.68-2.15-.2-4.23.08-6.16,1.09-3.06,1.6-5.08,4.05-5.77,7.49-.3,1.48-.23,2.98.03,4.46.23,1.26.29,2.53.23,3.81-.21,4.59-2.12,8.38-5.5,11.46-.17.16-.37.3-.58.41-.33.19-.68.15-.99-.06-.33-.23-.53-.57-.49-.98.01-.16.13-.33.24-.46.39-.43.79-.84,1.19-1.26,1.62-1.66,2.83-3.57,3.5-5.81.42-1.4.59-2.83.51-4.28-.06-1.05-.21-2.09-.33-3.14-.52-4.36.77-8.09,3.86-11.21,2.1-2.11,4.66-3.33,7.6-3.66.95-.11,1.94-.01,2.9.07,4.48.39,8.98,3.84,10.62,8.06.48,1.24.78,2.53.97,3.84.28,1.92.46,3.84.56,5.78Z"/>
  <path class="cls-1" d="m32.57,30.52c-.09,1.31-.12,2.63-.28,3.94-.45,3.61-1.44,7.08-2.99,10.37-.75,1.6-1.59,3.15-2.62,4.6-.38.53-.75.67-1.26.51-.62-.19-.9-.8-.61-1.37.27-.53.58-1.03.9-1.54,2.12-3.44,3.49-7.15,4.25-11.11.43-2.25.42-4.51.4-6.78-.02-1.82-.22-3.63-.67-5.4-.49-1.92-1.7-3.14-3.64-3.56-2.39-.53-5.01.91-5.76,3.13-.26.77-.24,1.55-.17,2.34.02.24.04.47.04.71,0,.49-.3.9-.75,1.01-.51.13-.98-.09-1.21-.56-.25-.52-.28-1.08-.26-1.64.1-2.91,1.38-5.14,3.98-6.47,2.52-1.3,4.96-.88,7.21.73,1.6,1.15,2.53,2.72,2.85,4.67.36,2.12.61,4.25.59,6.42Z"/>
  <path class="cls-1" d="m44.53,30.38c-.07,1.48-.06,2.98-.22,4.45-.18,1.7-.5,3.39-.79,5.08-.13.75-.33,1.49-.53,2.23-.16.58-.69.87-1.27.76-.5-.1-.88-.58-.78-1.08.2-1.02.44-2.04.64-3.06.4-1.98.64-3.99.75-6.01.11-2.1.08-4.2-.11-6.29-.2-2.17-.53-4.33-1.14-6.43-.82-2.84-2.38-5.21-4.51-7.24-1.59-1.52-3.41-2.65-5.43-3.49-.62-.26-.86-.72-.76-1.3.09-.49.81-.97,1.36-.74,5.96,2.44,9.84,6.76,11.6,12.93.44,1.53.61,3.15.86,4.73.28,1.81.26,3.64.32,5.47Z"/>
  <path class="cls-1" d="m25.1,5.98c.87.08,1.81.15,2.74.26.41.05.72.26.91.68.27.58-.43,1.5-1.11,1.41-1.13-.14-2.29-.18-3.43-.16-2.55.04-4.96.71-7.19,1.91-4.2,2.27-6.97,5.73-8.3,10.33-.11.37-.24.73-.39,1.07-.17.38-.48.56-.91.57-.43,0-.7-.24-.92-.55-.07-.09-.07-.24-.07-.37.02-.77.26-1.49.52-2.2,1.2-3.33,3.11-6.19,5.82-8.49,2.64-2.23,5.66-3.66,9.07-4.21,1.04-.17,2.11-.18,3.24-.26Z"/>
  <path class="cls-1" d="m26.55,30.47c-.08,5.54-1.6,10.66-4.65,15.3-.68,1.04-1.5,1.99-2.24,2.99-.3.4-.7.47-1.16.4-.54-.08-.92-.73-.69-1.25.15-.34.36-.66.6-.94,1.96-2.39,3.49-5.01,4.53-7.92.75-2.09,1.21-4.24,1.41-6.45.21-2.34.07-4.67-.33-6.98-.03-.17-.04-.34-.06-.51-.05-.54.19-.92.71-1.1.43-.15.87,0,1.15.42.3.43.33.94.41,1.43.23,1.52.31,3.06.33,4.6Z"/>
  <path class="cls-1" d="m20.56,30.84c-.07,2.65-.59,5.21-1.58,7.67-1.17,2.91-2.87,5.46-5.1,7.66-.31.3-.62.6-1.12.55-.78-.08-1.21-.93-.75-1.55.31-.42.66-.79,1.02-1.17,2.47-2.69,4.18-5.78,4.96-9.36.28-1.26.38-2.53.44-3.82.01-.3.03-.61.1-.91.15-.75.97-1.05,1.59-.61.3.22.55.46.46.9-.04.2,0,.42,0,.63Z"/>
  <path class="cls-1" d="m8.6,30.36c-.13,2.96-1.18,5.52-3.43,7.54-.51.46-1.04.48-1.51.08-.51-.44-.43-1.38.16-1.71.07-.04.15-.09.2-.15,1.11-1.2,2-2.53,2.3-4.18.21-1.17.11-2.33-.05-3.5-.15-1.09-.23-2.19-.33-3.29-.02-.18.01-.37.04-.56.07-.51.45-.85.97-.87.49-.02.95.31,1.03.81.07.42.07.85.12,1.27.13,1.1.27,2.19.4,3.28.05.41.07.83.1,1.28Z"/>
  <path class="cls-1" d="m38.2,35.72c-.12.69-.27,1.67-.47,2.64-.64,3.07-1.61,6.02-2.93,8.87-.12.26-.26.51-.41.76-.29.49-.84.51-1.23.36-.43-.16-.69-.67-.57-1.13.11-.42.26-.83.44-1.22,1.47-3.25,2.45-6.65,2.99-10.17.04-.23.08-.47.14-.7.15-.61.62-.94,1.19-.86.53.07.88.54.85,1.44Z"/>
</svg>