<?xml version="1.0" encoding="UTF-8"?>
<svg id="Layer_1" data-name="Layer 1" xmlns="http://www.w3.org/2000/svg" viewBox="0 0 54 50">
  <defs>
    <style>
      .cls-1 {
        fill: #1d1d1f;
      }
    </style>
  </defs>
  <g id="Regular-S">
    <path class="cls-1" d="m1.56,25.11c-.46.63-.59,1.18-.39,1.68.21.49.73.74,1.57.74h2.76c.32,2.66,1.1,5.15,2.33,7.47,1.23,2.32,2.83,4.35,4.77,6.1,1.95,1.75,4.15,3.12,6.6,4.09,2.45.97,5.04,1.46,7.78,1.46,3.2,0,6.2-.67,9-2,2.8-1.33,5.19-3.13,7.18-5.38.45-.5.65-1.04.6-1.62-.04-.58-.3-1.04-.76-1.38-.46-.34-.96-.46-1.49-.36-.53.1-.99.37-1.38.82-1.59,1.81-3.52,3.23-5.79,4.28-2.27,1.05-4.72,1.57-7.35,1.57-2.22,0-4.31-.38-6.28-1.14-1.97-.76-3.73-1.82-5.28-3.18-1.56-1.36-2.83-2.96-3.84-4.79-1-1.83-1.65-3.81-1.96-5.94h2.87c.84,0,1.36-.24,1.57-.72.21-.48.08-1.04-.36-1.66l-4.77-6.81c-.38-.52-.81-.78-1.3-.79-.49,0-.93.25-1.3.79l-4.77,6.79Zm9.28-14.41c-.45.52-.65,1.06-.6,1.64.04.57.3,1.02.76,1.34.48.34.99.46,1.52.38.53-.09.99-.36,1.38-.8,1.61-1.79,3.55-3.21,5.81-4.25,2.26-1.05,4.69-1.57,7.28-1.57,2.24,0,4.34.38,6.3,1.14,1.97.76,3.73,1.82,5.28,3.19,1.56,1.37,2.83,2.96,3.84,4.79,1,1.82,1.65,3.8,1.93,5.93h-2.87c-.82,0-1.34.25-1.54.74-.21.49-.08,1.05.36,1.68l4.77,6.79c.36.54.79.8,1.29.8s.94-.27,1.31-.8l4.77-6.76c.46-.64.59-1.21.39-1.7-.21-.49-.73-.74-1.57-.74h-2.76c-.32-2.66-1.1-5.15-2.33-7.47-1.23-2.32-2.83-4.35-4.77-6.09-1.95-1.74-4.15-3.11-6.6-4.09-2.45-.98-5.05-1.48-7.81-1.48-3.18,0-6.17.66-8.96,1.99-2.79,1.32-5.19,3.11-7.19,5.37Z"/>
  </g>
</svg>