<?xml version="1.0" encoding="utf-8"?>
<!-- Generator: Adobe Illustrator 22.1.0, SVG Export Plug-In . SVG Version: 6.00 Build 0)  -->
<svg version="1.1" id="Layer_1" xmlns="http://www.w3.org/2000/svg" xmlns:xlink="http://www.w3.org/1999/xlink" x="0px" y="0px"
	 viewBox="0 0 32 32" style="enable-background:new 0 0 32 32;" xml:space="preserve">
<style type="text/css">
	.st0{fill:#231F20;}
</style>
<g>
	<g>
		<path class="st0" d="M22,24.7H10L8.7,9.5h14.6L22,24.7z M11.2,23.4h9.7l1.1-12.6H10.1L11.2,23.4z"/>
	</g>
	<g>
		<path class="st0" d="M24.5,10.8h-17c-0.4,0-0.6-0.3-0.6-0.6s0.3-0.6,0.6-0.6h17c0.4,0,0.7,0.3,0.7,0.6S24.9,10.8,24.5,10.8z"/>
	</g>
	<g>
		<path class="st0" d="M19.2,10.1h-1.3V8.7c0-0.1-0.1-0.1-0.1-0.1h-3.4c-0.1,0-0.1,0.1-0.1,0.1v1.4h-1.3V8.7c0-0.8,0.6-1.4,1.4-1.4
			h3.4c0.8,0,1.4,0.6,1.4,1.4V10.1z"/>
	</g>
	<g>
		<path class="st0" d="M13.1,22.7c-0.3,0-0.6-0.3-0.6-0.6L12,12.2c0-0.4,0.3-0.7,0.6-0.7c0.4,0,0.7,0.3,0.7,0.6l0.4,9.9
			C13.7,22.4,13.4,22.7,13.1,22.7C13.1,22.7,13.1,22.7,13.1,22.7z"/>
	</g>
	<g>
		<path class="st0" d="M16,22.7c-0.4,0-0.6-0.3-0.6-0.7v-9.9c0-0.4,0.3-0.6,0.6-0.6s0.6,0.3,0.6,0.6v9.9
			C16.6,22.4,16.4,22.7,16,22.7z"/>
	</g>
	<g>
		<path class="st0" d="M18.9,22.7C18.9,22.7,18.9,22.7,18.9,22.7c-0.4,0-0.7-0.3-0.6-0.7l0.4-9.9c0-0.4,0.3-0.7,0.7-0.6
			c0.4,0,0.6,0.3,0.6,0.7l-0.4,9.9C19.6,22.4,19.3,22.7,18.9,22.7z"/>
	</g>
</g>
<g>
	<path class="st0" d="M16,31.8C7.3,31.8,0.2,24.7,0.2,16C0.2,7.3,7.3,0.2,16,0.2c8.7,0,15.8,7.1,15.8,15.8
		C31.8,24.7,24.7,31.8,16,31.8z M16,1.5C8,1.5,1.5,8,1.5,16C1.5,24,8,30.5,16,30.5c8,0,14.5-6.5,14.5-14.5C30.5,8,24,1.5,16,1.5z"/>
</g>
</svg>
