<?xml version="1.0" encoding="UTF-8"?>
<svg id="Layer_1" data-name="Layer 1" xmlns="http://www.w3.org/2000/svg" viewBox="0 0 50 50">
  <defs>
    <style>
      .cls-1 {
        fill: #1d1d1f;
      }
    </style>
  </defs>
  <path class="cls-1" d="m37.55,2c5.76,0,10.45,4.69,10.45,10.45v25.1c0,5.76-4.69,10.45-10.45,10.45H12.45c-5.76,0-10.45-4.69-10.45-10.45V12.45C2,6.69,6.69,2,12.45,2h25.1m0-2H12.45C5.57,0,0,5.57,0,12.45v25.1c0,6.88,5.57,12.45,12.45,12.45h25.1c6.88,0,12.45-5.57,12.45-12.45V12.45c0-6.88-5.57-12.45-12.45-12.45h0Z"/>
  <g>
    <g>
      <circle class="cls-1" cx="15.31" cy="14.28" r="9.28"/>
      <path class="cls-1" d="m15.31,5.3c4.95,0,8.97,4.03,8.97,8.97s-4.03,8.97-8.97,8.97-8.97-4.03-8.97-8.97S10.36,5.3,15.31,5.3m0-1.5c-5.78,0-10.47,4.69-10.47,10.47s4.69,10.47,10.47,10.47,10.47-4.69,10.47-10.47S21.09,3.8,15.31,3.8h0Z"/>
    </g>
    <g>
      <circle class="cls-1" cx="34.69" cy="35.72" r="9.72"/>
      <path class="cls-1" d="m34.69,26.75c4.95,0,8.97,4.03,8.97,8.97s-4.03,8.97-8.97,8.97-8.97-4.03-8.97-8.97,4.03-8.97,8.97-8.97m0-1.5c-5.78,0-10.47,4.69-10.47,10.47s4.69,10.47,10.47,10.47,10.47-4.69,10.47-10.47-4.69-10.47-10.47-10.47h0Z"/>
    </g>
  </g>
  <circle class="cls-1" cx="15.01" cy="35.88" r="1.64"/>
  <path class="cls-1" d="m35.01,10.79c1.7,0,3.09,1.39,3.09,3.09s-1.39,3.09-3.09,3.09-3.09-1.39-3.09-3.09,1.39-3.09,3.09-3.09m0-.8c-2.15,0-3.89,1.74-3.89,3.89s1.74,3.89,3.89,3.89,3.89-1.74,3.89-3.89-1.74-3.89-3.89-3.89h0Z"/>
</svg>