<?xml version="1.0" encoding="utf-8"?>
<!-- Generator: Adobe Illustrator 22.1.0, SVG Export Plug-In . SVG Version: 6.00 Build 0)  -->
<svg version="1.1" id="Layer_1" xmlns="http://www.w3.org/2000/svg" xmlns:xlink="http://www.w3.org/1999/xlink" x="0px" y="0px"
	 viewBox="0 0 37 37" style="enable-background:new 0 0 37 37;" xml:space="preserve">
<style type="text/css">
	.st1{clip-path:url(#SVGID_2_);}
</style>
<g>
	<g>
		<path d="M18.5,36.6c-10,0-18.1-8.1-18.1-18.1S8.5,0.4,18.5,0.4c10,0,18.1,8.1,18.1,18.1S28.5,36.6,18.5,36.6z M18.5,1.5
			c-9.4,0-17,7.6-17,17s7.6,17,17,17c9.4,0,17-7.6,17-17S27.9,1.5,18.5,1.5z"/>
	</g>
	<g>
		<path d="M16.2,7.8c0,0,2.2-0.6,3.6-1c1.4-0.4,1.8-0.6,1.8-0.6s-1.3,1,0,1.7s0,2.2,0,2.2l-3.9-0.2L16.2,7.8z"/>
	</g>
	<g>
		<path d="M13.5,28c0,0,0.9-0.9,1.1-1.6c0.2-0.7,0.5-1,1.2-0.9c0.7,0,0.4,2.5,0.4,2.5l-2.1,1.5L13.5,28z"/>
	</g>
	<g>
		<path d="M23.9,28c0,0-0.9-0.9-1.1-1.6c-0.2-0.7-0.5-1-1.2-0.9c-0.7,0-0.4,2.5-0.4,2.5l2.1,1.5L23.9,28z"/>
	</g>
	<g>
		<defs>
			<circle id="SVGID_1_" cx="18.5" cy="18.5" r="17.5"/>
		</defs>
		<clipPath id="SVGID_2_">
			<use xlink:href="#SVGID_1_"  style="overflow:visible;"/>
		</clipPath>
		<g class="st1">
			<g>
				<path d="M27.1,29.4C23.2,28,22,26.7,22,24.1c0-1.6,1.2-1.1,1.7-4c0.2-1.2,1.3,0,1.5-2.8c0-1.1-0.6-1.4-0.6-1.4s-0.3-1.6-0.2-2.9
					c0.1-1.6-0.3-5.6-5.7-5.6s-5.8,4-5.7,5.6c0.1,1.3-0.2,2.9-0.2,2.9s-0.6,0.3-0.6,1.4c0.2,2.8,1.2,1.6,1.5,2.8
					c0.5,2.9,1.7,2.4,1.7,4c0,2.7-1.2,3.9-5.1,5.4c-3.9,1.5-6.4,3-6.4,4c0,1,0,3.4,0,3.4h14.8h14.8c0,0,0-2.4,0-3.4
					C33.5,32.4,31,30.9,27.1,29.4z"/>
			</g>
		</g>
	</g>
</g>
</svg>
