<?xml version="1.0" encoding="UTF-8"?>
<svg id="Layer_1" data-name="Layer 1" xmlns="http://www.w3.org/2000/svg" viewBox="0 0 207 77">
  <defs>
    <style>
      .cls-1 {
        fill: #ca1f1f;
      }
    </style>
  </defs>
  <g>
    <g>
      <path class="cls-1" d="m94.46,72.62c.11,1.22,1.19,2.27,3.2,2.27,1.85,0,2.92-.86,2.92-2.18,0-1.08-.75-1.65-2.29-2.01l-2.36-.58c-1.92-.44-3.62-1.57-3.62-3.97,0-2.82,2.44-4.36,5.34-4.36s5.27,1.6,5.32,4.28h-2.47c-.1-1.18-1.03-2.2-2.87-2.2-1.63,0-2.72.77-2.72,2.07,0,.93.67,1.58,2.02,1.88l2.35.57c2.18.51,3.89,1.55,3.89,4.08,0,2.88-2.3,4.53-5.7,4.53-4.12,0-5.49-2.39-5.55-4.38h2.53Z"/>
      <path class="cls-1" d="m116.35,76.71h-9.22v-14.62h9.22v2.16h-6.64v4.02h6.25v2.05h-6.25v4.23h6.64v2.16Z"/>
    </g>
    <path d="m73.99,34.16h-.11l-5.74-23.01h-6.82l-5.74,23.01h-.11l-5.3-23.01h-7.14l8.98,32.26h6.71l5.95-22.09h.11l5.95,22.09h6.76l8.98-32.26h-7.14l-5.36,23.01Zm125.69-23.01v12.94h-13.15v-12.94h-6.71v32.26h6.71v-13.75h13.15v13.75h6.77V11.16h-6.77Zm-83.32,5.46h9.63v26.8h6.65v-26.8h9.63v-5.46h-25.92v5.46Zm-18.51,13.7l3.68-12.83h.11l3.62,12.83h-7.41Zm-.05-19.16l-10.39,32.26h6.71l2.33-8.12h10.23l2.27,8.12h7.14l-10.34-32.26h-7.95Zm62.17-.38c-8.55,0-13.58,5.52-13.58,14.72v3.63c0,9.31,5.03,14.67,13.53,14.67s12.82-5.2,12.82-11.04v-.6h-6.44c0,3.36-1.63,5.96-6.28,5.96s-6.87-2.87-6.87-8.99v-3.63c0-6.06,2.27-9.09,6.87-9.09,4.27,0,6.28,2.82,6.28,6.01h6.44v-.32c0-6.28-4.81-11.32-12.77-11.32"/>
  </g>
  <g>
    <path d="m27.15,10.62c-3.62-.27-6.69,2.02-8.4,2.02s-4.42-1.96-7.26-1.91c-3.73.05-7.17,2.17-9.09,5.51-3.88,6.73-.99,16.69,2.79,22.15,1.85,2.67,4.05,5.67,6.94,5.56,2.78-.11,3.84-1.8,7.2-1.8s4.31,1.8,7.26,1.75c3-.06,4.9-2.72,6.73-5.4,2.12-3.1,2.99-6.09,3.04-6.25-.07-.03-5.84-2.24-5.9-8.89-.05-5.56,4.54-8.24,4.75-8.37-2.61-3.84-6.63-4.26-8.05-4.37Z"/>
    <path d="m24.92,7.02c1.54-1.86,2.57-4.45,2.29-7.02-2.21.09-4.89,1.47-6.48,3.33-1.42,1.64-2.67,4.28-2.33,6.8,2.47.19,4.98-1.25,6.52-3.11Z"/>
  </g>
</svg>