<!-- SpeedSize.com --><svg id="Layer_1" data-name="Layer 1" xmlns="http://www.w3.org/2000/svg" viewBox="0 0 100 100"><defs><style>.cls-1{fill:#333}</style></defs><path class="cls-1" d="M70.17 77.08V22.92a33.65 33.65 0 0113.6 26.29H100v1.58H83.77a33.65 33.65 0 01-13.6 26.29zM16.36 50A33.68 33.68 0 0130 22.92v54.16A33.68 33.68 0 0116.36 50zm47.33-38.63H36.3A5.55 5.55 0 0030.68 17v66a5.55 5.55 0 005.62 5.61h27.39A5.55 5.55 0 0069.32 83V17a5.55 5.55 0 00-5.63-5.63zm-10 1.93a.53.53 0 11-.52.53.56.56 0 01.51-.53zm-5.44.17h3.51a.39.39 0 01.36.36c0 .17-.18.52-.36.52h-3.52a.38.38 0 01-.35-.35c0-.17.18-.53.35-.53zM67.56 83a3.9 3.9 0 01-3.87 3.86H36.3A3.9 3.9 0 0132.43 83V17a3.9 3.9 0 013.87-3.86h4a.83.83 0 01.87.88v.88A1.66 1.66 0 0043 16.63h14a1.65 1.65 0 001.74-1.75V14a.84.84 0 01.89-.88h4A3.9 3.9 0 0167.56 17z"/><path class="cls-1" d="M41.65 51.47a.79.79 0 00.23.57.88.88 0 00.62.23h6.7l-3.53 9.61a1.18 1.18 0 00-.07.79.86.86 0 00.39.48.85.85 0 00.63.06 1.25 1.25 0 00.65-.46l10.78-13.47a1.25 1.25 0 00.3-.76.79.79 0 00-.23-.57.88.88 0 00-.62-.23h-6.7l3.53-9.61a1.15 1.15 0 00.07-.78.86.86 0 00-.39-.48.85.85 0 00-.63-.06 1.2 1.2 0 00-.65.46L42 50.71a1.29 1.29 0 00-.35.76z" id="Regular-M"/></svg>