<!-- SpeedSize.com --><svg version="1.1" id="Layer_1" xmlns="http://www.w3.org/2000/svg" x="0" y="0" viewBox="0 0 38 32" xml:space="preserve"><g><g><path d="M19 32L3.3 17.6C1.2 15.6 0 13 0 10.3S1.2 5 3.3 3c3.9-3.5 10.1-3.5 14 0L19 4.6 20.7 3c3.9-3.5 10.1-3.5 14 0 2.1 2 3.3 4.6 3.3 7.3s-1.2 5.3-3.3 7.3L19 32zM10.3 2.3c-2.1 0-4.2.7-5.7 2.2C2.9 6 1.9 8.1 1.9 10.3c0 2.2.9 4.3 2.6 5.9L19 29.4l14.4-13.2c1.7-1.6 2.6-3.6 2.6-5.9 0-2.2-.9-4.3-2.6-5.8-3.1-2.9-8.3-2.9-11.4 0l-3 2.8-3-2.8c-1.6-1.5-3.7-2.2-5.7-2.2z"/></g></g></svg>